ComicNeue_Light_Oblique.ufo
<glyph name="exclam" format="1">
  <advance width="186"/>
  <unicode hex="0021"/>
  <outline>
    <contour>
      <point x="110" y="178" type="curve" smooth="yes"/>
      <point x="217" y="680" type="line" smooth="yes"/>
      <point x="220" y="692"/>
      <point x="232" y="701"/>
      <point x="242" y="701" type="curve" smooth="yes"/>
      <point x="253" y="701"/>
      <point x="260" y="692"/>
      <point x="257" y="680" type="curve" smooth="yes"/>
      <point x="150" y="178" type="line" smooth="yes"/>
      <point x="148" y="168"/>
      <point x="137" y="158"/>
      <point x="126" y="158" type="curve" smooth="yes"/>
      <point x="116" y="158"/>
      <point x="108" y="168"/>
    </contour>
    <contour>
      <point x="123" y="39" type="curve" smooth="yes"/>
      <point x="118" y="17"/>
      <point x="99" y="0"/>
      <point x="84" y="0" type="curve" smooth="yes"/>
      <point x="72.1495" y="0"/>
      <point x="65.3145" y="9.31452"/>
      <point x="65.3145" y="21.2721" type="curve" smooth="yes"/>
      <point x="65.3145" y="23.4411"/>
      <point x="65.5394" y="25.697"/>
      <point x="66" y="28" type="curve" smooth="yes"/>
      <point x="71" y="48"/>
      <point x="89" y="66"/>
      <point x="106" y="66" type="curve" smooth="yes"/>
      <point x="117.645" y="66"/>
      <point x="123.755" y="57.0063"/>
      <point x="123.755" y="45.924" type="curve" smooth="yes"/>
      <point x="123.755" y="43.6824"/>
      <point x="123.505" y="41.3553"/>
    </contour>
  </outline>
</glyph>
<glyph name="quotedbl" format="1">
  <advance width="303"/>
  <unicode hex="0022"/>
  <outline>
    <contour>
      <point x="203" y="521" type="curve" smooth="yes"/>
      <point x="192" y="521"/>
      <point x="186" y="529"/>
      <point x="188" y="540" type="curve" smooth="yes"/>
      <point x="218" y="679" type="line" smooth="yes"/>
      <point x="220" y="690"/>
      <point x="230" y="698"/>
      <point x="241" y="698" type="curve" smooth="yes"/>
      <point x="251" y="698"/>
      <point x="258" y="690"/>
      <point x="256" y="679" type="curve" smooth="yes"/>
      <point x="226" y="540" type="line" smooth="yes"/>
      <point x="224" y="529"/>
      <point x="213" y="521"/>
    </contour>
    <contour>
      <point x="327" y="521" type="curve" smooth="yes"/>
      <point x="316" y="521"/>
      <point x="310" y="529"/>
      <point x="312" y="540" type="curve" smooth="yes"/>
      <point x="342" y="679" type="line" smooth="yes"/>
      <point x="344" y="690"/>
      <point x="354" y="698"/>
      <point x="365" y="698" type="curve" smooth="yes"/>
      <point x="375" y="698"/>
      <point x="382" y="690"/>
      <point x="380" y="679" type="curve" smooth="yes"/>
      <point x="350" y="540" type="line" smooth="yes"/>
      <point x="348" y="529"/>
      <point x="337" y="521"/>
    </contour>
  </outline>
</glyph>
<glyph name="numbersign" format="1">
  <advance width="736"/>
  <unicode hex="0023"/>
  <outline>
    <contour>
      <point x="520" y="219" type="line"/>
      <point x="416" y="14" type="line" smooth="yes"/>
      <point x="412" y="5"/>
      <point x="405" y="0"/>
      <point x="397" y="0" type="curve" smooth="yes"/>
      <point x="385" y="0"/>
      <point x="379" y="8"/>
      <point x="382" y="19" type="curve"/>
      <point x="382" y="22"/>
      <point x="384" y="27"/>
      <point x="388" y="34" type="curve" smooth="yes"/>
      <point x="482" y="219" type="line"/>
      <point x="300" y="219" type="line"/>
      <point x="197" y="14" type="line" smooth="yes"/>
      <point x="193" y="5"/>
      <point x="185" y="0"/>
      <point x="177" y="0" type="curve" smooth="yes"/>
      <point x="165" y="0"/>
      <point x="159" y="8"/>
      <point x="161" y="17" type="curve" smooth="yes"/>
      <point x="162" y="22"/>
      <point x="164" y="26"/>
      <point x="168" y="33" type="curve" smooth="yes"/>
      <point x="262" y="219" type="line"/>
      <point x="126" y="219" type="line" smooth="yes"/>
      <point x="116" y="219"/>
      <point x="109" y="227"/>
      <point x="111" y="238" type="curve" smooth="yes"/>
      <point x="113" y="248"/>
      <point x="124" y="256"/>
      <point x="134" y="256" type="curve" smooth="yes"/>
      <point x="281" y="256" type="line"/>
      <point x="377" y="447" type="line"/>
      <point x="222" y="447" type="line" smooth="yes"/>
      <point x="211" y="447"/>
      <point x="204" y="455"/>
      <point x="207" y="466" type="curve" smooth="yes"/>
      <point x="209" y="476"/>
      <point x="219" y="485"/>
      <point x="230" y="485" type="curve" smooth="yes"/>
      <point x="397" y="485" type="line"/>
      <point x="496" y="684" type="line" smooth="yes"/>
      <point x="500" y="692"/>
      <point x="508" y="697"/>
      <point x="517" y="697" type="curve" smooth="yes"/>
      <point x="528" y="697"/>
      <point x="533" y="689"/>
      <point x="531" y="679" type="curve" smooth="yes"/>
      <point x="530" y="675"/>
      <point x="528" y="671"/>
      <point x="525" y="665" type="curve" smooth="yes"/>
      <point x="434" y="485" type="line"/>
      <point x="616" y="485" type="line"/>
      <point x="716" y="684" type="line" smooth="yes"/>
      <point x="720" y="692"/>
      <point x="728" y="697"/>
      <point x="736" y="697" type="curve" smooth="yes"/>
      <point x="748" y="697"/>
      <point x="753" y="688"/>
      <point x="751" y="681" type="curve" smooth="yes"/>
      <point x="750" y="677"/>
      <point x="748" y="672"/>
      <point x="745" y="666" type="curve" smooth="yes"/>
      <point x="654" y="485" type="line"/>
      <point x="774" y="485" type="line" smooth="yes"/>
      <point x="784" y="485"/>
      <point x="791" y="476"/>
      <point x="789" y="466" type="curve" smooth="yes"/>
      <point x="786" y="455"/>
      <point x="776" y="447"/>
      <point x="766" y="447" type="curve" smooth="yes"/>
      <point x="635" y="447" type="line"/>
      <point x="538" y="256" type="line"/>
      <point x="678" y="256" type="line" smooth="yes"/>
      <point x="688" y="256"/>
      <point x="695" y="248"/>
      <point x="693" y="238" type="curve" smooth="yes"/>
      <point x="691" y="227"/>
      <point x="680" y="219"/>
      <point x="670" y="219" type="curve" smooth="yes"/>
    </contour>
    <contour>
      <point x="501" y="256" type="line"/>
      <point x="597" y="447" type="line"/>
      <point x="416" y="447" type="line"/>
      <point x="318" y="256" type="line"/>
    </contour>
  </outline>
</glyph>
<glyph name="ampersand" format="1">
  <advance width="650"/>
  <unicode hex="0026"/>
  <outline>
    <contour>
      <point x="554" y="270" type="curve" smooth="yes"/>
      <point x="564" y="290"/>
      <point x="568" y="296"/>
      <point x="581" y="296" type="curve" smooth="yes"/>
      <point x="590" y="296"/>
      <point x="596" y="289"/>
      <point x="594" y="279" type="curve" smooth="yes"/>
      <point x="594" y="278"/>
      <point x="592" y="273"/>
      <point x="586" y="262" type="curve" smooth="yes"/>
      <point x="567" y="223"/>
      <point x="544" y="185"/>
      <point x="520" y="154" type="curve"/>
      <point x="598" y="29" type="line" smooth="yes"/>
      <point x="600" y="25"/>
      <point x="601" y="22"/>
      <point x="600" y="18" type="curve" smooth="yes"/>
      <point x="598" y="8"/>
      <point x="588" y="0"/>
      <point x="579" y="0" type="curve" smooth="yes"/>
      <point x="574" y="0"/>
      <point x="569" y="2"/>
      <point x="566" y="6" type="curve" smooth="yes"/>
      <point x="493" y="121" type="line"/>
      <point x="384" y="3"/>
      <point x="287" y="-4"/>
      <point x="262" y="-4" type="curve" smooth="yes"/>
      <point x="176.292" y="-4"/>
      <point x="95.3671" y="51.7949"/>
      <point x="95.3671" y="143.46" type="curve" smooth="yes"/>
      <point x="95.3671" y="154.467"/>
      <point x="96.5341" y="165.992"/>
      <point x="99" y="178" type="curve"/>
      <point x="124" y="292"/>
      <point x="223" y="345"/>
      <point x="321" y="393" type="curve"/>
      <point x="299.709" y="425.362"/>
      <point x="268.99" y="478.756"/>
      <point x="268.99" y="532.801" type="curve" smooth="yes"/>
      <point x="268.99" y="542.217"/>
      <point x="269.923" y="551.652"/>
      <point x="272" y="561" type="curve" smooth="yes"/>
      <point x="287" y="634"/>
      <point x="370" y="698"/>
      <point x="444" y="698" type="curve" smooth="yes"/>
      <point x="509.62" y="698"/>
      <point x="559.513" y="646.889"/>
      <point x="559.513" y="587.2" type="curve" smooth="yes"/>
      <point x="559.513" y="579.577"/>
      <point x="558.699" y="571.814"/>
      <point x="557" y="564" type="curve" smooth="yes"/>
      <point x="541" y="485"/>
      <point x="485" y="438"/>
      <point x="375" y="385" type="curve"/>
      <point x="501" y="183" type="line"/>
      <point x="528" y="219"/>
      <point x="539" y="243"/>
    </contour>
    <contour>
      <point x="307" y="561" type="curve" smooth="yes"/>
      <point x="305.4" y="553.8"/>
      <point x="304.671" y="546.44"/>
      <point x="304.671" y="539.015" type="curve" smooth="yes"/>
      <point x="304.671" y="490.751"/>
      <point x="335.467" y="439.733"/>
      <point x="358" y="412" type="curve"/>
      <point x="504" y="477"/>
      <point x="514" y="522"/>
      <point x="523" y="562" type="curve" smooth="yes"/>
      <point x="524.169" y="567.312"/>
      <point x="524.728" y="572.635"/>
      <point x="524.728" y="577.908" type="curve" smooth="yes"/>
      <point x="524.728" y="622.261"/>
      <point x="485.157" y="663"/>
      <point x="436" y="663" type="curve" smooth="yes"/>
      <point x="386" y="663"/>
      <point x="319" y="619"/>
    </contour>
    <contour>
      <point x="269" y="31" type="curve" smooth="yes"/>
      <point x="292" y="31"/>
      <point x="380" y="39"/>
      <point x="476" y="150" type="curve"/>
      <point x="341" y="368" type="line"/>
      <point x="237" y="319"/>
      <point x="157" y="278"/>
      <point x="135" y="178" type="curve"/>
      <point x="132.864" y="167.727"/>
      <point x="131.866" y="158.024"/>
      <point x="131.866" y="148.88" type="curve" smooth="yes"/>
      <point x="131.866" y="68.1187"/>
      <point x="209.713" y="31"/>
    </contour>
  </outline>
</glyph>
<glyph name="quotesingle" format="1">
  <advance width="179"/>
  <unicode hex="0027"/>
  <outline>
    <contour>
      <point x="203" y="521" type="curve" smooth="yes"/>
      <point x="193" y="521"/>
      <point x="186" y="529"/>
      <point x="188" y="540" type="curve" smooth="yes"/>
      <point x="218" y="679" type="line" smooth="yes"/>
      <point x="220" y="690"/>
      <point x="231" y="698"/>
      <point x="241" y="698" type="curve" smooth="yes"/>
      <point x="251" y="698"/>
      <point x="258" y="690"/>
      <point x="256" y="679" type="curve" smooth="yes"/>
      <point x="226" y="540" type="line" smooth="yes"/>
      <point x="224" y="529"/>
      <point x="213" y="521"/>
    </contour>
  </outline>
</glyph>
<glyph name="asterisk" format="1">
  <advance width="387"/>
  <unicode hex="002A"/>
  <outline>
    <contour>
      <point x="316" y="564" type="curve"/>
      <point x="316" y="564"/>
      <point x="278" y="513"/>
      <point x="266" y="503" type="curve" smooth="yes"/>
      <point x="220" y="463" type="line" smooth="yes"/>
      <point x="216" y="460"/>
      <point x="212" y="457"/>
      <point x="208" y="457" type="curve" smooth="yes"/>
      <point x="199" y="457"/>
      <point x="192" y="465"/>
      <point x="194" y="475" type="curve"/>
      <point x="196" y="480"/>
      <point x="198" y="485"/>
      <point x="201" y="489" type="curve"/>
      <point x="243" y="525" type="line"/>
      <point x="259" y="541"/>
      <point x="305" y="567"/>
      <point x="309" y="570" type="curve"/>
      <point x="306" y="570"/>
      <point x="251" y="581"/>
      <point x="241" y="588" type="curve"/>
      <point x="231" y="593"/>
      <point x="221" y="600"/>
      <point x="211" y="605" type="curve"/>
      <point x="212" y="605" type="line"/>
      <point x="206" y="609"/>
      <point x="204" y="615"/>
      <point x="205" y="621" type="curve" smooth="yes"/>
      <point x="207" y="628"/>
      <point x="217" y="638"/>
      <point x="226" y="638" type="curve" smooth="yes"/>
      <point x="230" y="638"/>
      <point x="233" y="637"/>
      <point x="236" y="636" type="curve" smooth="yes"/>
      <point x="261" y="621" type="line"/>
      <point x="260" y="621" type="line"/>
      <point x="276" y="612"/>
      <point x="313" y="577"/>
      <point x="313" y="577" type="curve"/>
      <point x="313" y="577"/>
      <point x="313" y="638"/>
      <point x="316" y="652" type="curve" smooth="yes"/>
      <point x="322" y="680" type="line" smooth="yes"/>
      <point x="324" y="690"/>
      <point x="335" y="698"/>
      <point x="344" y="698" type="curve" smooth="yes"/>
      <point x="354" y="698"/>
      <point x="360" y="690"/>
      <point x="358" y="680" type="curve" smooth="yes"/>
      <point x="352" y="652" type="line" smooth="yes"/>
      <point x="349" y="638"/>
      <point x="323" y="577"/>
      <point x="323" y="577" type="curve"/>
      <point x="323" y="577"/>
      <point x="376" y="612"/>
      <point x="394" y="621" type="curve"/>
      <point x="393" y="621" type="line"/>
      <point x="426" y="636" type="line" smooth="yes"/>
      <point x="429" y="637"/>
      <point x="431" y="638"/>
      <point x="436" y="638" type="curve" smooth="yes"/>
      <point x="446" y="638"/>
      <point x="451" y="628"/>
      <point x="449" y="621" type="curve" smooth="yes"/>
      <point x="448" y="615"/>
      <point x="444" y="609"/>
      <point x="437" y="605" type="curve"/>
      <point x="438" y="605" type="line"/>
      <point x="398" y="588" type="line"/>
      <point x="385" y="580"/>
      <point x="329" y="570"/>
      <point x="324" y="570" type="curve"/>
      <point x="326" y="569"/>
      <point x="358" y="543"/>
      <point x="371" y="525" type="curve" smooth="yes"/>
      <point x="397" y="489" type="line" smooth="yes"/>
      <point x="400" y="485"/>
      <point x="400" y="480"/>
      <point x="398" y="475" type="curve"/>
      <point x="396" y="465"/>
      <point x="387" y="457"/>
      <point x="379" y="457" type="curve" smooth="yes"/>
      <point x="373" y="457"/>
      <point x="369" y="460"/>
      <point x="367" y="463" type="curve" smooth="yes"/>
      <point x="339" y="503" type="line" smooth="yes"/>
      <point x="332" y="513"/>
      <point x="316" y="564"/>
    </contour>
  </outline>
</glyph>
<glyph name="plus" format="1">
  <advance width="433"/>
  <unicode hex="002B"/>
  <outline>
    <contour>
      <point x="417" y="233" type="curve" smooth="yes"/>
      <point x="287" y="233" type="line"/>
      <point x="260" y="106" type="line" smooth="yes"/>
      <point x="258" y="97"/>
      <point x="248" y="89"/>
      <point x="239" y="89" type="curve" smooth="yes"/>
      <point x="229" y="89"/>
      <point x="223" y="97"/>
      <point x="225" y="106" type="curve" smooth="yes"/>
      <point x="252" y="233" type="line"/>
      <point x="124" y="233" type="line" smooth="yes"/>
      <point x="114" y="233"/>
      <point x="108" y="242"/>
      <point x="110" y="251" type="curve" smooth="yes"/>
      <point x="112" y="261"/>
      <point x="122" y="269"/>
      <point x="132" y="269" type="curve" smooth="yes"/>
      <point x="260" y="269" type="line"/>
      <point x="285" y="386" type="line"/>
      <point x="286" y="395"/>
      <point x="296" y="403"/>
      <point x="306" y="403" type="curve" smooth="yes"/>
      <point x="315" y="403"/>
      <point x="321" y="395"/>
      <point x="320" y="386" type="curve"/>
      <point x="295" y="269" type="line"/>
      <point x="425" y="269" type="line" smooth="yes"/>
      <point x="434" y="269"/>
      <point x="440" y="261"/>
      <point x="438" y="251" type="curve" smooth="yes"/>
      <point x="436" y="242"/>
      <point x="426" y="233"/>
    </contour>
  </outline>
</glyph>
<glyph name="comma" format="1">
  <advance width="251"/>
  <unicode hex="002C"/>
  <outline>
    <contour>
      <point x="81" y="-76" type="curve" smooth="yes"/>
      <point x="123" y="-5" type="line"/>
      <point x="116" y="3"/>
      <point x="113" y="14"/>
      <point x="115" y="23" type="curve" smooth="yes"/>
      <point x="120" y="43"/>
      <point x="138" y="59"/>
      <point x="154" y="59" type="curve" smooth="yes"/>
      <point x="165.528" y="59"/>
      <point x="172.338" y="49.5641"/>
      <point x="172.338" y="39.7568" type="curve" smooth="yes"/>
      <point x="172.338" y="18.7442"/>
      <point x="163.947" y="10.9127"/>
      <point x="141" y="-27" type="curve" smooth="yes"/>
      <point x="116" y="-67"/>
      <point x="99" y="-96"/>
      <point x="88" y="-96" type="curve" smooth="yes"/>
      <point x="81" y="-96"/>
      <point x="76" y="-91"/>
      <point x="77" y="-86" type="curve" smooth="yes"/>
      <point x="78" y="-83"/>
      <point x="78" y="-81"/>
    </contour>
  </outline>
</glyph>
<glyph name="zero" format="1">
  <advance width="604"/>
  <unicode hex="0030"/>
  <outline>
    <contour>
      <point x="296" y="-3" type="curve" smooth="yes"/>
      <point x="190.215" y="-3"/>
      <point x="129.424" y="97.4211"/>
      <point x="129.424" y="228.756" type="curve" smooth="yes"/>
      <point x="129.424" y="260.061"/>
      <point x="132.878" y="293.123"/>
      <point x="140" y="327" type="curve" smooth="yes"/>
      <point x="181" y="521"/>
      <point x="328" y="694"/>
      <point x="468" y="694" type="curve" smooth="yes"/>
      <point x="573.565" y="694"/>
      <point x="633.673" y="594.645"/>
      <point x="633.673" y="462.918" type="curve" smooth="yes"/>
      <point x="633.673" y="431.179"/>
      <point x="630.184" y="397.561"/>
      <point x="623" y="363" type="curve" smooth="yes"/>
      <point x="581" y="166"/>
      <point x="432" y="-3"/>
    </contour>
    <contour>
      <point x="460" y="658" type="curve" smooth="yes"/>
      <point x="345" y="658"/>
      <point x="214" y="509"/>
      <point x="175" y="329" type="curve"/>
      <point x="168.475" y="297.6"/>
      <point x="165.276" y="266.698"/>
      <point x="165.276" y="237.398" type="curve" smooth="yes"/>
      <point x="165.276" y="122.997"/>
      <point x="214.04" y="33"/>
      <point x="304" y="33" type="curve" smooth="yes"/>
      <point x="418" y="33"/>
      <point x="550" y="182"/>
      <point x="588" y="361" type="curve" smooth="yes"/>
      <point x="594.625" y="392.318"/>
      <point x="597.824" y="423.031"/>
      <point x="597.824" y="452.121" type="curve" smooth="yes"/>
      <point x="597.824" y="567.93"/>
      <point x="547.118" y="658"/>
    </contour>
  </outline>
</glyph>
<glyph name="one" format="1">
  <advance width="394"/>
  <unicode hex="0031"/>
  <outline>
    <contour>
      <point x="235" y="38" type="line"/>
      <point x="320" y="38" type="line" smooth="yes"/>
      <point x="333" y="38"/>
      <point x="339" y="29"/>
      <point x="337" y="19" type="curve" smooth="yes"/>
      <point x="334" y="8"/>
      <point x="324" y="0"/>
      <point x="314" y="0" type="curve" smooth="yes"/>
      <point x="87" y="0" type="line" smooth="yes"/>
      <point x="76" y="0"/>
      <point x="69" y="8"/>
      <point x="72" y="19" type="curve" smooth="yes"/>
      <point x="74" y="29"/>
      <point x="84" y="38"/>
      <point x="95" y="38" type="curve" smooth="yes"/>
      <point x="198" y="38" type="line"/>
      <point x="329" y="620" type="line"/>
      <point x="206" y="512" type="line" smooth="yes"/>
      <point x="201" y="507"/>
      <point x="196" y="505"/>
      <point x="191" y="505" type="curve" smooth="yes"/>
      <point x="180" y="505"/>
      <point x="174" y="514"/>
      <point x="176" y="524" type="curve" smooth="yes"/>
      <point x="177" y="528"/>
      <point x="180" y="534"/>
      <point x="184" y="537" type="curve" smooth="yes"/>
      <point x="347" y="681" type="line" smooth="yes"/>
      <point x="352" y="686"/>
      <point x="359" y="688"/>
      <point x="363" y="688" type="curve" smooth="yes"/>
      <point x="374" y="688"/>
      <point x="380" y="677"/>
      <point x="379" y="669" type="curve"/>
    </contour>
  </outline>
</glyph>
<glyph name="three" format="1">
  <advance width="533"/>
  <unicode hex="0033"/>
  <outline>
    <contour>
      <point x="266" y="-6" type="curve" smooth="yes"/>
      <point x="130" y="-6"/>
      <point x="96" y="93"/>
      <point x="94" y="102" type="curve" smooth="yes"/>
      <point x="93" y="109"/>
      <point x="94" y="114"/>
      <point x="94" y="117" type="curve" smooth="yes"/>
      <point x="96" y="126"/>
      <point x="107" y="133"/>
      <point x="116" y="133" type="curve" smooth="yes"/>
      <point x="124" y="133"/>
      <point x="128" y="129"/>
      <point x="131" y="123" type="curve"/>
      <point x="140" y="97"/>
      <point x="175" y="31"/>
      <point x="271" y="31" type="curve" smooth="yes"/>
      <point x="351" y="31"/>
      <point x="452" y="83"/>
      <point x="477" y="198" type="curve"/>
      <point x="479.911" y="212.053"/>
      <point x="481.25" y="224.997"/>
      <point x="481.25" y="236.914" type="curve" smooth="yes"/>
      <point x="481.25" y="343.72"/>
      <point x="373.68" y="368"/>
      <point x="326" y="368" type="curve" smooth="yes"/>
      <point x="316" y="368"/>
      <point x="309" y="376"/>
      <point x="312" y="387" type="curve" smooth="yes"/>
      <point x="314" y="397"/>
      <point x="324" y="405"/>
      <point x="335" y="405" type="curve" smooth="yes"/>
      <point x="415" y="405"/>
      <point x="518" y="469"/>
      <point x="534" y="544" type="curve" smooth="yes"/>
      <point x="535.138" y="549.484"/>
      <point x="535.709" y="555.011"/>
      <point x="535.709" y="560.513" type="curve" smooth="yes"/>
      <point x="535.709" y="608.185"/>
      <point x="492.86" y="654"/>
      <point x="405" y="654" type="curve" smooth="yes"/>
      <point x="331" y="654"/>
      <point x="288" y="626"/>
      <point x="267" y="613" type="curve" smooth="yes"/>
      <point x="257" y="606"/>
      <point x="252" y="603"/>
      <point x="248" y="603" type="curve" smooth="yes"/>
      <point x="235" y="603"/>
      <point x="231" y="614"/>
      <point x="233" y="622" type="curve" smooth="yes"/>
      <point x="234" y="629"/>
      <point x="244" y="640"/>
      <point x="269" y="654" type="curve" smooth="yes"/>
      <point x="301" y="672"/>
      <point x="356" y="692"/>
      <point x="413" y="692" type="curve" smooth="yes"/>
      <point x="508.588" y="692"/>
      <point x="573.85" y="640.125"/>
      <point x="573.85" y="569.885" type="curve" smooth="yes"/>
      <point x="573.85" y="561.499"/>
      <point x="572.92" y="552.852"/>
      <point x="571" y="544" type="curve" smooth="yes"/>
      <point x="558" y="482"/>
      <point x="498" y="425"/>
      <point x="420" y="388" type="curve"/>
      <point x="486.098" y="357.43"/>
      <point x="519.429" y="302.284"/>
      <point x="519.429" y="238.92" type="curve" smooth="yes"/>
      <point x="519.429" y="225.593"/>
      <point x="517.954" y="211.902"/>
      <point x="515" y="198" type="curve" smooth="yes"/>
      <point x="482" y="47"/>
      <point x="344" y="-6"/>
    </contour>
  </outline>
</glyph>
<glyph name="five" format="1">
  <advance width="549"/>
  <unicode hex="0035"/>
  <outline>
    <contour>
      <point x="131" y="122" type="curve" smooth="yes"/>
      <point x="159" y="66"/>
      <point x="200" y="34"/>
      <point x="274" y="34" type="curve" smooth="yes"/>
      <point x="374" y="34"/>
      <point x="485" y="135"/>
      <point x="510" y="253" type="curve" smooth="yes"/>
      <point x="513.688" y="270.519"/>
      <point x="515.642" y="288.106"/>
      <point x="515.642" y="305.14" type="curve" smooth="yes"/>
      <point x="515.642" y="380.477"/>
      <point x="477.424" y="445"/>
      <point x="382" y="445" type="curve" smooth="yes"/>
      <point x="291" y="445"/>
      <point x="224" y="386"/>
      <point x="211" y="375" type="curve" smooth="yes"/>
      <point x="204" y="369"/>
      <point x="199" y="367"/>
      <point x="194" y="367" type="curve" smooth="yes"/>
      <point x="183.208" y="367"/>
      <point x="177.24" y="374.58"/>
      <point x="177.24" y="384.02" type="curve" smooth="yes"/>
      <point x="177.24" y="385.952"/>
      <point x="177.49" y="387.962"/>
      <point x="178" y="390" type="curve"/>
      <point x="266" y="664" type="line" smooth="yes"/>
      <point x="269" y="673"/>
      <point x="278" y="680"/>
      <point x="287" y="680" type="curve" smooth="yes"/>
      <point x="591" y="680" type="line" smooth="yes"/>
      <point x="601" y="680"/>
      <point x="607" y="672"/>
      <point x="605" y="662" type="curve" smooth="yes"/>
      <point x="603" y="651"/>
      <point x="593" y="643"/>
      <point x="583" y="643" type="curve" smooth="yes"/>
      <point x="296" y="643" type="line"/>
      <point x="231" y="433" type="line"/>
      <point x="277" y="457"/>
      <point x="335" y="482"/>
      <point x="390" y="482" type="curve" smooth="yes"/>
      <point x="489.379" y="482"/>
      <point x="554.003" y="417.454"/>
      <point x="554.003" y="314.647" type="curve" smooth="yes"/>
      <point x="554.003" y="295.383"/>
      <point x="551.734" y="274.777"/>
      <point x="547" y="253" type="curve"/>
      <point x="518" y="113"/>
      <point x="385" y="-3"/>
      <point x="266" y="-3" type="curve" smooth="yes"/>
      <point x="154" y="-3"/>
      <point x="101" y="74"/>
      <point x="93" y="104" type="curve" smooth="yes"/>
      <point x="92" y="107"/>
      <point x="92" y="110"/>
      <point x="93" y="115" type="curve" smooth="yes"/>
      <point x="95" y="125"/>
      <point x="106" y="133"/>
      <point x="116" y="133" type="curve" smooth="yes"/>
      <point x="125" y="133"/>
      <point x="128" y="129"/>
    </contour>
  </outline>
</glyph>
<glyph name="nine" format="1">
  <advance width="536"/>
  <unicode hex="0039"/>
  <outline>
    <contour>
      <point x="518" y="363" type="curve"/>
      <point x="527" y="388"/>
      <point x="534" y="415"/>
      <point x="539" y="442" type="curve"/>
      <point x="545.116" y="470.647"/>
      <point x="547.89" y="495.669"/>
      <point x="547.89" y="517.489" type="curve" smooth="yes"/>
      <point x="547.89" y="631.247"/>
      <point x="472.481" y="658"/>
      <point x="402" y="658" type="curve" smooth="yes"/>
      <point x="355" y="658"/>
      <point x="228" y="620"/>
      <point x="192" y="447" type="curve"/>
      <point x="187.969" y="428.31"/>
      <point x="186.161" y="411.725"/>
      <point x="186.161" y="397.008" type="curve" smooth="yes"/>
      <point x="186.161" y="291.247"/>
      <point x="279.52" y="282"/>
      <point x="312" y="282" type="curve" smooth="yes"/>
      <point x="419" y="283"/>
      <point x="494" y="342"/>
    </contour>
    <contour>
      <point x="208" y="4" type="curve" smooth="yes"/>
      <point x="202" y="1"/>
      <point x="198" y="0"/>
      <point x="193" y="0" type="curve" smooth="yes"/>
      <point x="184" y="0"/>
      <point x="177" y="8"/>
      <point x="179" y="17" type="curve" smooth="yes"/>
      <point x="181" y="24"/>
      <point x="187" y="30"/>
      <point x="193" y="33" type="curve" smooth="yes"/>
      <point x="308" y="84"/>
      <point x="427" y="188"/>
      <point x="498" y="312" type="curve"/>
      <point x="447" y="276"/>
      <point x="368" y="247"/>
      <point x="305" y="247" type="curve" smooth="yes"/>
      <point x="215.913" y="247"/>
      <point x="152.741" y="296.671"/>
      <point x="152.741" y="391.737" type="curve" smooth="yes"/>
      <point x="152.741" y="408.717"/>
      <point x="154.757" y="427.147"/>
      <point x="159" y="447" type="curve" smooth="yes"/>
      <point x="201" y="649"/>
      <point x="357" y="692"/>
      <point x="410" y="692" type="curve" smooth="yes"/>
      <point x="498.364" y="692"/>
      <point x="582.478" y="649.507"/>
      <point x="582.478" y="522.8" type="curve" smooth="yes"/>
      <point x="582.478" y="498.945"/>
      <point x="579.496" y="472.104"/>
      <point x="573" y="442" type="curve" smooth="yes"/>
      <point x="510" y="144"/>
      <point x="260" y="28"/>
    </contour>
  </outline>
</glyph>
<glyph name="colon" format="1">
  <advance width="225"/>
  <unicode hex="003A"/>
  <outline>
    <contour>
      <point x="96" y="0" type="curve" smooth="yes"/>
      <point x="84.6357" y="0"/>
      <point x="77.8838" y="9.22485"/>
      <point x="77.8838" y="20.7213" type="curve" smooth="yes"/>
      <point x="77.8838" y="23.3876"/>
      <point x="78.247" y="26.1761"/>
      <point x="79" y="29" type="curve" smooth="yes"/>
      <point x="83" y="48"/>
      <point x="101" y="66"/>
      <point x="118" y="66" type="curve" smooth="yes"/>
      <point x="128.988" y="66"/>
      <point x="135.689" y="56.7131"/>
      <point x="135.689" y="45.3849" type="curve" smooth="yes"/>
      <point x="135.689" y="43.3102"/>
      <point x="135.464" y="41.1671"/>
      <point x="135" y="39" type="curve" smooth="yes"/>
      <point x="130" y="18"/>
      <point x="112" y="0"/>
    </contour>
    <contour>
      <point x="205" y="373" type="curve" smooth="yes"/>
      <point x="193.355" y="373"/>
      <point x="187.245" y="382.686"/>
      <point x="187.245" y="394.576" type="curve" smooth="yes"/>
      <point x="187.245" y="396.981"/>
      <point x="187.495" y="399.476"/>
      <point x="188" y="402" type="curve" smooth="yes"/>
      <point x="192" y="421"/>
      <point x="211" y="439"/>
      <point x="227" y="439" type="curve" smooth="yes"/>
      <point x="237.988" y="439"/>
      <point x="244.689" y="429.713"/>
      <point x="244.689" y="418.385" type="curve" smooth="yes"/>
      <point x="244.689" y="416.31"/>
      <point x="244.464" y="414.167"/>
      <point x="244" y="412" type="curve" smooth="yes"/>
      <point x="240" y="391"/>
      <point x="222" y="373"/>
    </contour>
  </outline>
</glyph>
<glyph name="at" format="1">
  <advance width="818"/>
  <unicode hex="0040"/>
  <outline>
    <contour>
      <point x="622" y="-3" type="curve" smooth="yes"/>
      <point x="631" y="2"/>
      <point x="634" y="4"/>
      <point x="639" y="4" type="curve" smooth="yes"/>
      <point x="648" y="4"/>
      <point x="655" y="-4"/>
      <point x="653" y="-14" type="curve" smooth="yes"/>
      <point x="651" y="-20"/>
      <point x="646" y="-25"/>
      <point x="636" y="-32" type="curve"/>
      <point x="588" y="-60"/>
      <point x="501" y="-98"/>
      <point x="405" y="-98" type="curve" smooth="yes"/>
      <point x="239.182" y="-98"/>
      <point x="113.39" y="18.2298"/>
      <point x="113.39" y="181.806" type="curve" smooth="yes"/>
      <point x="113.39" y="204.675"/>
      <point x="115.848" y="228.469"/>
      <point x="121" y="253" type="curve" smooth="yes"/>
      <point x="166" y="465"/>
      <point x="356" y="623"/>
      <point x="567" y="623" type="curve" smooth="yes"/>
      <point x="731.178" y="623"/>
      <point x="841.781" y="513.585"/>
      <point x="841.781" y="360.304" type="curve" smooth="yes"/>
      <point x="841.781" y="337.13"/>
      <point x="839.253" y="312.953"/>
      <point x="834" y="288" type="curve" smooth="yes"/>
      <point x="797" y="113"/>
      <point x="669" y="99"/>
      <point x="637" y="99" type="curve" smooth="yes"/>
      <point x="555" y="99"/>
      <point x="521" y="142"/>
      <point x="517" y="198" type="curve"/>
      <point x="474" y="154"/>
      <point x="422" y="114"/>
      <point x="374" y="114" type="curve" smooth="yes"/>
      <point x="322.674" y="114"/>
      <point x="284.8" y="142.319"/>
      <point x="284.8" y="201.339" type="curve" smooth="yes"/>
      <point x="284.8" y="212.463"/>
      <point x="286.145" y="224.678"/>
      <point x="289" y="238" type="curve" smooth="yes"/>
      <point x="310" y="336"/>
      <point x="402" y="426"/>
      <point x="496" y="426" type="curve" smooth="yes"/>
      <point x="526" y="426"/>
      <point x="557" y="417"/>
      <point x="581" y="399" type="curve" smooth="yes"/>
      <point x="592" y="391"/>
      <point x="596" y="385"/>
      <point x="595" y="378" type="curve" smooth="yes"/>
      <point x="593" y="369"/>
      <point x="582" y="361"/>
      <point x="572" y="361" type="curve" smooth="yes"/>
      <point x="569" y="361"/>
      <point x="565" y="362"/>
      <point x="558" y="367" type="curve" smooth="yes"/>
      <point x="536" y="382"/>
      <point x="513" y="392"/>
      <point x="490" y="392" type="curve" smooth="yes"/>
      <point x="414" y="392"/>
      <point x="342" y="317"/>
      <point x="325" y="238" type="curve" smooth="yes"/>
      <point x="322.569" y="226.886"/>
      <point x="321.434" y="216.917"/>
      <point x="321.434" y="208.032" type="curve" smooth="yes"/>
      <point x="321.434" y="165.754"/>
      <point x="347.12" y="148"/>
      <point x="381" y="148" type="curve" smooth="yes"/>
      <point x="444" y="148"/>
      <point x="521" y="250"/>
      <point x="543" y="287" type="curve" smooth="yes"/>
      <point x="547" y="295"/>
      <point x="555" y="298"/>
      <point x="563" y="298" type="curve" smooth="yes"/>
      <point x="572" y="298"/>
      <point x="578" y="290"/>
      <point x="576" y="280" type="curve" smooth="yes"/>
      <point x="575" y="275"/>
      <point x="573" y="271"/>
      <point x="570" y="265" type="curve" smooth="yes"/>
      <point x="565" y="256"/>
      <point x="560" y="247"/>
      <point x="556" y="227" type="curve" smooth="yes"/>
      <point x="554.437" y="219.754"/>
      <point x="553.641" y="212.71"/>
      <point x="553.641" y="205.953" type="curve" smooth="yes"/>
      <point x="553.641" y="165.157"/>
      <point x="582.656" y="134.858"/>
      <point x="647" y="134" type="curve" smooth="yes"/>
      <point x="679" y="134"/>
      <point x="769" y="148"/>
      <point x="799" y="288" type="curve" smooth="yes"/>
      <point x="803.586" y="310.042"/>
      <point x="805.918" y="332.129"/>
      <point x="805.918" y="353.763" type="curve" smooth="yes"/>
      <point x="805.918" y="478.372"/>
      <point x="728.561" y="588"/>
      <point x="559" y="588" type="curve" smooth="yes"/>
      <point x="394" y="588"/>
      <point x="203" y="473"/>
      <point x="156" y="253" type="curve" smooth="yes"/>
      <point x="151.05" y="229.713"/>
      <point x="148.745" y="207.653"/>
      <point x="148.745" y="186.839" type="curve" smooth="yes"/>
      <point x="148.745" y="22.6423"/>
      <point x="292.187" y="-64"/>
      <point x="412" y="-64" type="curve" smooth="yes"/>
      <point x="502" y="-64"/>
      <point x="579" y="-28"/>
    </contour>
  </outline>
</glyph>
<glyph name="A" format="1">
  <advance width="614"/>
  <unicode hex="0041"/>
  <outline>
    <contour>
      <point x="58" y="27" type="curve" smooth="yes"/>
      <point x="165" y="203" type="line"/>
      <point x="126" y="194" type="line"/>
      <point x="113" y="192"/>
      <point x="107" y="202"/>
      <point x="110" y="212" type="curve" smooth="yes"/>
      <point x="112" y="222"/>
      <point x="120" y="229"/>
      <point x="129" y="231" type="curve" smooth="yes"/>
      <point x="190" y="244" type="line"/>
      <point x="452" y="677" type="line" smooth="yes"/>
      <point x="457" y="684"/>
      <point x="465" y="689"/>
      <point x="474" y="689" type="curve" smooth="yes"/>
      <point x="484" y="689"/>
      <point x="489" y="683"/>
      <point x="489" y="677" type="curve"/>
      <point x="574" y="32" type="line" smooth="yes"/>
      <point x="575" y="23"/>
      <point x="574" y="18"/>
      <point x="574" y="15" type="curve"/>
      <point x="571" y="4"/>
      <point x="560" y="-1"/>
      <point x="549" y="-1" type="curve" smooth="yes"/>
      <point x="541" y="-1"/>
      <point x="536" y="3"/>
      <point x="535" y="11" type="curve" smooth="yes"/>
      <point x="501" y="272" type="line"/>
      <point x="211" y="211" type="line"/>
      <point x="91" y="11" type="line" smooth="yes"/>
      <point x="86" y="4"/>
      <point x="80" y="0"/>
      <point x="72" y="0" type="curve" smooth="yes"/>
      <point x="60" y="0"/>
      <point x="52" y="8"/>
      <point x="54" y="18" type="curve" smooth="yes"/>
      <point x="55" y="21"/>
      <point x="57" y="25"/>
    </contour>
    <contour>
      <point x="237" y="253" type="line"/>
      <point x="496" y="307" type="line"/>
      <point x="455" y="614" type="line"/>
    </contour>
  </outline>
</glyph>
<glyph name="F" format="1">
  <advance width="535"/>
  <unicode hex="0046"/>
  <outline>
    <contour>
      <point x="171" y="333" type="line"/>
      <point x="105" y="19" type="line"/>
      <point x="102" y="8"/>
      <point x="91" y="-1"/>
      <point x="81" y="-1" type="curve" smooth="yes"/>
      <point x="71" y="-1"/>
      <point x="64" y="8"/>
      <point x="67" y="19" type="curve"/>
      <point x="203" y="661" type="line" smooth="yes"/>
      <point x="205" y="672"/>
      <point x="216" y="681"/>
      <point x="226" y="681" type="curve" smooth="yes"/>
      <point x="667" y="681" type="line" smooth="yes"/>
      <point x="677" y="681"/>
      <point x="684" y="672"/>
      <point x="682" y="661" type="curve" smooth="yes"/>
      <point x="680" y="651"/>
      <point x="669" y="643"/>
      <point x="659" y="643" type="curve" smooth="yes"/>
      <point x="237" y="643" type="line"/>
      <point x="179" y="371" type="line"/>
      <point x="509" y="371" type="line" smooth="yes"/>
      <point x="520" y="371"/>
      <point x="526" y="362"/>
      <point x="524" y="351" type="curve" smooth="yes"/>
      <point x="522" y="341"/>
      <point x="512" y="333"/>
      <point x="501" y="333" type="curve" smooth="yes"/>
    </contour>
  </outline>
</glyph>
<glyph name="I" format="1">
  <advance width="423"/>
  <unicode hex="0049"/>
  <outline>
    <contour>
      <point x="242" y="37" type="line"/>
      <point x="354" y="37" type="line" smooth="yes"/>
      <point x="366" y="37"/>
      <point x="372" y="29"/>
      <point x="370" y="19" type="curve" smooth="yes"/>
      <point x="367" y="8"/>
      <point x="356" y="-1"/>
      <point x="346" y="-1" type="curve" smooth="yes"/>
      <point x="82" y="-1" type="line" smooth="yes"/>
      <point x="72" y="-1"/>
      <point x="65" y="8"/>
      <point x="68" y="19" type="curve" smooth="yes"/>
      <point x="70" y="29"/>
      <point x="80" y="37"/>
      <point x="90" y="37" type="curve" smooth="yes"/>
      <point x="204" y="37" type="line"/>
      <point x="333" y="643" type="line"/>
      <point x="219" y="643" type="line" smooth="yes"/>
      <point x="209" y="643"/>
      <point x="202" y="652"/>
      <point x="204" y="662" type="curve" smooth="yes"/>
      <point x="207" y="673"/>
      <point x="217" y="681"/>
      <point x="227" y="681" type="curve" smooth="yes"/>
      <point x="491" y="681" type="line" smooth="yes"/>
      <point x="501" y="681"/>
      <point x="509" y="673"/>
      <point x="506" y="662" type="curve" smooth="yes"/>
      <point x="504" y="652"/>
      <point x="493" y="643"/>
      <point x="483" y="643" type="curve" smooth="yes"/>
      <point x="371" y="643" type="line"/>
    </contour>
  </outline>
</glyph>
<glyph name="J" format="1">
  <advance width="462"/>
  <unicode hex="004A"/>
  <outline>
    <contour>
      <point x="360" y="677" type="curve" smooth="yes"/>
      <point x="571" y="677" type="line" smooth="yes"/>
      <point x="581" y="677"/>
      <point x="589" y="669"/>
      <point x="586" y="658" type="curve" smooth="yes"/>
      <point x="584" y="648"/>
      <point x="573" y="639"/>
      <point x="563" y="639" type="curve" smooth="yes"/>
      <point x="527" y="639" type="line"/>
      <point x="424" y="154" type="line" smooth="yes"/>
      <point x="409" y="83"/>
      <point x="349" y="0"/>
      <point x="226" y="0" type="curve" smooth="yes"/>
      <point x="105.809" y="0"/>
      <point x="83.783" y="77.5312"/>
      <point x="83.783" y="129.757" type="curve" smooth="yes"/>
      <point x="83.783" y="143.58"/>
      <point x="85.3258" y="155.629"/>
      <point x="87" y="164" type="curve" smooth="yes"/>
      <point x="90" y="176"/>
      <point x="99" y="185"/>
      <point x="112" y="185" type="curve" smooth="yes"/>
      <point x="122" y="185"/>
      <point x="128" y="176"/>
      <point x="126" y="166" type="curve" smooth="yes"/>
      <point x="124.659" y="159.563"/>
      <point x="122.455" y="147.372"/>
      <point x="122.455" y="132.977" type="curve" smooth="yes"/>
      <point x="122.455" y="93.6959"/>
      <point x="138.865" y="38"/>
      <point x="234" y="38" type="curve" smooth="yes"/>
      <point x="349" y="38"/>
      <point x="379" y="118"/>
      <point x="386" y="154" type="curve" smooth="yes"/>
      <point x="489" y="639" type="line"/>
      <point x="352" y="639" type="line" smooth="yes"/>
      <point x="342" y="639"/>
      <point x="334" y="648"/>
      <point x="336" y="658" type="curve" smooth="yes"/>
      <point x="339" y="669"/>
      <point x="350" y="677"/>
    </contour>
  </outline>
</glyph>
<glyph name="K" format="1">
  <advance width="560"/>
  <unicode hex="004B"/>
  <outline>
    <contour>
      <point x="182" y="367" type="line"/>
      <point x="609" y="677" type="line" smooth="yes"/>
      <point x="614" y="680"/>
      <point x="618" y="682"/>
      <point x="623" y="682" type="curve" smooth="yes"/>
      <point x="632" y="682"/>
      <point x="639" y="673"/>
      <point x="637" y="664" type="curve" smooth="yes"/>
      <point x="635" y="658"/>
      <point x="631" y="653"/>
      <point x="627" y="650" type="curve" smooth="yes"/>
      <point x="190" y="335" type="line"/>
      <point x="515" y="32" type="line" smooth="yes"/>
      <point x="520" y="27"/>
      <point x="520" y="22"/>
      <point x="519" y="17" type="curve" smooth="yes"/>
      <point x="517" y="6"/>
      <point x="506" y="-1"/>
      <point x="496" y="-1" type="curve" smooth="yes"/>
      <point x="492" y="-1"/>
      <point x="489" y="0"/>
      <point x="486" y="3" type="curve" smooth="yes"/>
      <point x="167" y="301" type="line"/>
      <point x="108" y="19" type="line"/>
      <point x="105" y="8"/>
      <point x="96" y="0"/>
      <point x="85" y="0" type="curve" smooth="yes"/>
      <point x="76" y="0"/>
      <point x="69" y="8"/>
      <point x="72" y="19" type="curve"/>
      <point x="209" y="664" type="line" smooth="yes"/>
      <point x="211" y="673"/>
      <point x="220" y="681"/>
      <point x="229" y="681" type="curve" smooth="yes"/>
      <point x="240" y="681"/>
      <point x="247" y="673"/>
      <point x="245" y="664" type="curve" smooth="yes"/>
    </contour>
  </outline>
</glyph>
<glyph name="L" format="1">
  <advance width="467"/>
  <unicode hex="004C"/>
  <outline>
    <contour>
      <point x="448" y="25" type="curve" smooth="yes"/>
      <point x="87" y="0" type="line" smooth="yes"/>
      <point x="76" y="-1"/>
      <point x="69" y="7"/>
      <point x="72" y="19" type="curve" smooth="yes"/>
      <point x="208" y="662" type="line"/>
      <point x="211" y="673"/>
      <point x="220" y="681"/>
      <point x="231" y="681" type="curve" smooth="yes"/>
      <point x="241" y="681"/>
      <point x="248" y="673"/>
      <point x="245" y="662" type="curve"/>
      <point x="113" y="38" type="line"/>
      <point x="454" y="62" type="line" smooth="yes"/>
      <point x="465" y="63"/>
      <point x="472" y="54"/>
      <point x="470" y="43" type="curve" smooth="yes"/>
      <point x="468" y="34"/>
      <point x="459" y="26"/>
    </contour>
  </outline>
</glyph>
<glyph name="M" format="1">
  <advance width="847"/>
  <unicode hex="004D"/>
  <outline>
    <contour>
      <point x="370" y="669" type="curve" smooth="yes"/>
      <point x="431" y="76" type="line"/>
      <point x="771" y="670" type="line" smooth="yes"/>
      <point x="776" y="678"/>
      <point x="782" y="681"/>
      <point x="791" y="681" type="curve" smooth="yes"/>
      <point x="800" y="681"/>
      <point x="805" y="676"/>
      <point x="805" y="670" type="curve" smooth="yes"/>
      <point x="813" y="41" type="line"/>
      <point x="814" y="29"/>
      <point x="813" y="21"/>
      <point x="811" y="14" type="curve" smooth="yes"/>
      <point x="810" y="8"/>
      <point x="804" y="0"/>
      <point x="791" y="0" type="curve" smooth="yes"/>
      <point x="782" y="0"/>
      <point x="775" y="4"/>
      <point x="775" y="14" type="curve" smooth="yes"/>
      <point x="770" y="596" type="line"/>
      <point x="435" y="11" type="line" smooth="yes"/>
      <point x="430" y="3"/>
      <point x="424" y="0"/>
      <point x="415" y="0" type="curve" smooth="yes"/>
      <point x="408" y="0"/>
      <point x="401" y="3"/>
      <point x="400" y="12" type="curve" smooth="yes"/>
      <point x="340" y="595" type="line"/>
      <point x="88" y="14" type="line"/>
      <point x="85" y="5"/>
      <point x="76" y="0"/>
      <point x="68" y="0" type="curve" smooth="yes"/>
      <point x="57" y="0"/>
      <point x="51" y="7"/>
      <point x="53" y="15" type="curve" smooth="yes"/>
      <point x="54" y="20"/>
      <point x="58" y="30"/>
      <point x="62" y="38" type="curve" smooth="yes"/>
      <point x="334" y="667" type="line" smooth="yes"/>
      <point x="338" y="676"/>
      <point x="346" y="681"/>
      <point x="355" y="681" type="curve" smooth="yes"/>
      <point x="363" y="681"/>
      <point x="369" y="676"/>
    </contour>
  </outline>
</glyph>
<glyph name="N" format="1">
  <advance width="609"/>
  <unicode hex="004E"/>
  <outline>
    <contour>
      <point x="518" y="7" type="curve" smooth="yes"/>
      <point x="234" y="603" type="line"/>
      <point x="109" y="19" type="line"/>
      <point x="106" y="8"/>
      <point x="96" y="0"/>
      <point x="86" y="0" type="curve" smooth="yes"/>
      <point x="76" y="0"/>
      <point x="69" y="8"/>
      <point x="72" y="19" type="curve"/>
      <point x="209" y="662" type="line"/>
      <point x="212" y="673"/>
      <point x="220" y="681"/>
      <point x="230" y="681" type="curve" smooth="yes"/>
      <point x="238" y="681"/>
      <point x="244" y="678"/>
      <point x="247" y="670" type="curve"/>
      <point x="530" y="77" type="line"/>
      <point x="655" y="664" type="line" smooth="yes"/>
      <point x="657" y="674"/>
      <point x="666" y="682"/>
      <point x="676" y="682" type="curve" smooth="yes"/>
      <point x="687" y="682"/>
      <point x="694" y="674"/>
      <point x="692" y="664" type="curve" smooth="yes"/>
      <point x="555" y="19" type="line"/>
      <point x="552" y="8"/>
      <point x="543" y="0"/>
      <point x="532" y="0" type="curve" smooth="yes"/>
      <point x="525" y="0"/>
      <point x="520" y="2"/>
    </contour>
  </outline>
</glyph>
<glyph name="P" format="1">
  <advance width="537"/>
  <unicode hex="0050"/>
  <outline>
    <contour>
      <point x="86" y="0" type="curve" smooth="yes"/>
      <point x="76" y="0"/>
      <point x="69" y="8"/>
      <point x="72" y="19" type="curve"/>
      <point x="206" y="650" type="line" smooth="yes"/>
      <point x="211" y="674"/>
      <point x="214" y="682"/>
      <point x="283" y="682" type="curve" smooth="yes"/>
      <point x="509.716" y="682"/>
      <point x="619.069" y="623.723"/>
      <point x="619.069" y="518.092" type="curve" smooth="yes"/>
      <point x="619.069" y="506.312"/>
      <point x="617.709" y="493.943"/>
      <point x="615" y="481" type="curve" smooth="yes"/>
      <point x="576" y="298"/>
      <point x="301" y="246"/>
      <point x="157" y="246" type="curve"/>
      <point x="109" y="19" type="line"/>
      <point x="106" y="8"/>
      <point x="97" y="0"/>
    </contour>
    <contour>
      <point x="241" y="643" type="curve"/>
      <point x="165" y="283" type="line"/>
      <point x="259" y="283"/>
      <point x="542" y="312"/>
      <point x="578" y="481" type="curve" smooth="yes"/>
      <point x="579.953" y="490.319"/>
      <point x="580.921" y="499.276"/>
      <point x="580.921" y="507.862" type="curve" smooth="yes"/>
      <point x="580.921" y="596.008"/>
      <point x="478.894" y="645"/>
      <point x="293" y="645" type="curve" smooth="yes"/>
      <point x="280" y="645"/>
      <point x="260" y="645"/>
    </contour>
  </outline>
</glyph>
<glyph name="Q" format="1">
  <advance width="704"/>
  <unicode hex="0051"/>
  <outline>
    <contour>
      <point x="557" y="83" type="curve"/>
      <point x="656" y="9" type="line" smooth="yes"/>
      <point x="662" y="5"/>
      <point x="662" y="-1"/>
      <point x="661" y="-7" type="curve" smooth="yes"/>
      <point x="658" y="-19"/>
      <point x="647" y="-25"/>
      <point x="638" y="-25" type="curve" smooth="yes"/>
      <point x="635" y="-25"/>
      <point x="632" y="-25"/>
      <point x="628" y="-22" type="curve" smooth="yes"/>
      <point x="522" y="60" type="line"/>
      <point x="459" y="21"/>
      <point x="392" y="-2"/>
      <point x="332" y="-2" type="curve" smooth="yes"/>
      <point x="193.382" y="-2"/>
      <point x="109.005" y="101.419"/>
      <point x="109.005" y="236.299" type="curve" smooth="yes"/>
      <point x="109.005" y="260.023"/>
      <point x="111.615" y="284.721"/>
      <point x="117" y="310" type="curve" smooth="yes"/>
      <point x="160" y="512"/>
      <point x="349" y="680"/>
      <point x="525" y="680" type="curve" smooth="yes"/>
      <point x="662.752" y="680"/>
      <point x="746.999" y="576.604"/>
      <point x="746.999" y="441.132" type="curve" smooth="yes"/>
      <point x="746.999" y="417.286"/>
      <point x="744.388" y="392.445"/>
      <point x="739" y="367" type="curve" smooth="yes"/>
      <point x="716" y="261"/>
      <point x="647" y="158"/>
    </contour>
    <contour>
      <point x="340" y="33" type="curve" smooth="yes"/>
      <point x="385" y="33"/>
      <point x="437" y="50"/>
      <point x="494" y="81" type="curve"/>
      <point x="413" y="143" type="line" smooth="yes"/>
      <point x="409" y="146"/>
      <point x="407" y="152"/>
      <point x="408" y="159" type="curve" smooth="yes"/>
      <point x="410" y="169"/>
      <point x="420" y="177"/>
      <point x="429" y="177" type="curve" smooth="yes"/>
      <point x="433" y="177"/>
      <point x="438" y="176"/>
      <point x="440" y="174" type="curve" smooth="yes"/>
      <point x="530" y="105" type="line"/>
      <point x="608" y="169"/>
      <point x="675" y="264"/>
      <point x="696" y="364" type="curve" smooth="yes"/>
      <point x="700.476" y="385.335"/>
      <point x="702.659" y="406.559"/>
      <point x="702.659" y="427.23" type="curve" smooth="yes"/>
      <point x="702.659" y="545.107"/>
      <point x="631.665" y="645"/>
      <point x="510" y="645" type="curve" smooth="yes"/>
      <point x="364" y="645"/>
      <point x="199" y="498"/>
      <point x="160" y="314" type="curve" smooth="yes"/>
      <point x="154.747" y="289.009"/>
      <point x="152.205" y="264.854"/>
      <point x="152.205" y="241.902" type="curve" smooth="yes"/>
      <point x="152.205" y="120.666"/>
      <point x="223.126" y="33"/>
    </contour>
  </outline>
</glyph>
<glyph name="U" format="1">
  <advance width="673"/>
  <unicode hex="0055"/>
  <outline>
    <contour>
      <point x="752" y="653" type="curve" smooth="yes"/>
      <point x="730" y="527"/>
      <point x="708" y="400"/>
      <point x="663" y="270" type="curve" smooth="yes"/>
      <point x="608" y="110"/>
      <point x="502" y="0"/>
      <point x="329" y="0" type="curve" smooth="yes"/>
      <point x="202.421" y="1.42109e-14"/>
      <point x="134.248" y="80.2261"/>
      <point x="134.248" y="236.565" type="curve" smooth="yes"/>
      <point x="134.248" y="275.374"/>
      <point x="138.449" y="318.873"/>
      <point x="147" y="367" type="curve"/>
      <point x="165" y="474"/>
      <point x="188" y="570"/>
      <point x="207" y="655" type="curve" smooth="yes"/>
      <point x="210" y="671"/>
      <point x="218" y="681"/>
      <point x="232" y="681" type="curve" smooth="yes"/>
      <point x="242.827" y="681"/>
      <point x="246.36" y="675.27"/>
      <point x="246.36" y="666.065" type="curve" smooth="yes"/>
      <point x="246.36" y="662.516"/>
      <point x="245.835" y="658.452"/>
      <point x="245" y="654" type="curve"/>
      <point x="224" y="565"/>
      <point x="202" y="474"/>
      <point x="185" y="381" type="curve"/>
      <point x="177.612" y="338.151"/>
      <point x="171.622" y="290.063"/>
      <point x="171.622" y="243.574" type="curve" smooth="yes"/>
      <point x="171.622" y="132.744"/>
      <point x="205.669" y="31"/>
      <point x="336" y="31" type="curve" smooth="yes"/>
      <point x="496" y="31"/>
      <point x="583" y="139"/>
      <point x="628" y="277" type="curve" smooth="yes"/>
      <point x="667" y="397"/>
      <point x="687" y="518"/>
      <point x="715" y="651" type="curve" smooth="yes"/>
      <point x="718" y="667"/>
      <point x="722" y="681"/>
      <point x="740" y="681" type="curve" smooth="yes"/>
      <point x="750.365" y="681"/>
      <point x="753.568" y="674.793"/>
      <point x="753.568" y="666.008" type="curve" smooth="yes"/>
      <point x="753.568" y="662.08"/>
      <point x="752.927" y="657.635"/>
    </contour>
  </outline>
</glyph>
<glyph name="W" format="1">
  <advance width="857"/>
  <unicode hex="0057"/>
  <outline>
    <contour>
      <point x="186" y="668" type="curve"/>
      <point x="240" y="78" type="line"/>
      <point x="557" y="669" type="line" smooth="yes"/>
      <point x="561" y="677"/>
      <point x="569" y="681"/>
      <point x="577" y="681" type="curve" smooth="yes"/>
      <point x="585" y="681"/>
      <point x="590" y="676"/>
      <point x="590" y="668" type="curve" smooth="yes"/>
      <point x="627" y="79" type="line"/>
      <point x="964" y="667" type="line" smooth="yes"/>
      <point x="970" y="677"/>
      <point x="977" y="681"/>
      <point x="986" y="681" type="curve" smooth="yes"/>
      <point x="998" y="681"/>
      <point x="1002" y="672"/>
      <point x="1001" y="665" type="curve" smooth="yes"/>
      <point x="1000" y="660"/>
      <point x="998" y="656"/>
      <point x="996" y="653" type="curve" smooth="yes"/>
      <point x="629" y="11" type="line" smooth="yes"/>
      <point x="626" y="5"/>
      <point x="619" y="0"/>
      <point x="610" y="0" type="curve" smooth="yes"/>
      <point x="600" y="0"/>
      <point x="594" y="4"/>
      <point x="594" y="12" type="curve" smooth="yes"/>
      <point x="557" y="601" type="line"/>
      <point x="243" y="12" type="line" smooth="yes"/>
      <point x="238" y="3"/>
      <point x="232" y="0"/>
      <point x="223" y="0" type="curve" smooth="yes"/>
      <point x="216" y="0"/>
      <point x="209" y="4"/>
      <point x="209" y="12" type="curve"/>
      <point x="151" y="644" type="line" smooth="yes"/>
      <point x="150" y="657"/>
      <point x="150" y="661"/>
      <point x="151" y="664" type="curve" smooth="yes"/>
      <point x="153" y="674"/>
      <point x="162" y="681"/>
      <point x="172" y="681" type="curve" smooth="yes"/>
      <point x="181" y="681"/>
      <point x="186" y="676"/>
    </contour>
  </outline>
</glyph>
<glyph name="X" format="1">
  <advance width="671"/>
  <unicode hex="0058"/>
  <outline>
    <contour>
      <point x="593" y="6" type="curve" smooth="yes"/>
      <point x="411" y="316" type="line"/>
      <point x="86" y="6" type="line" smooth="yes"/>
      <point x="82" y="2"/>
      <point x="76" y="0"/>
      <point x="71" y="0" type="curve" smooth="yes"/>
      <point x="60" y="0"/>
      <point x="53" y="9"/>
      <point x="56" y="19" type="curve"/>
      <point x="56" y="23"/>
      <point x="59" y="28"/>
      <point x="63" y="31" type="curve" smooth="yes"/>
      <point x="395" y="346" type="line"/>
      <point x="216" y="651" type="line" smooth="yes"/>
      <point x="215" y="654"/>
      <point x="213" y="659"/>
      <point x="214" y="664" type="curve" smooth="yes"/>
      <point x="216" y="673"/>
      <point x="227" y="681"/>
      <point x="237" y="681" type="curve" smooth="yes"/>
      <point x="242" y="681"/>
      <point x="247" y="680"/>
      <point x="250" y="675" type="curve" smooth="yes"/>
      <point x="424" y="375" type="line"/>
      <point x="740" y="675" type="line" smooth="yes"/>
      <point x="745" y="680"/>
      <point x="750" y="681"/>
      <point x="755" y="681" type="curve" smooth="yes"/>
      <point x="765" y="681"/>
      <point x="773" y="673"/>
      <point x="771" y="664" type="curve" smooth="yes"/>
      <point x="770" y="659"/>
      <point x="768" y="655"/>
      <point x="763" y="650" type="curve" smooth="yes"/>
      <point x="442" y="345" type="line"/>
      <point x="626" y="30" type="line" smooth="yes"/>
      <point x="627" y="27"/>
      <point x="627" y="23"/>
      <point x="627" y="19" type="curve"/>
      <point x="624" y="8"/>
      <point x="615" y="0"/>
      <point x="606" y="0" type="curve" smooth="yes"/>
      <point x="601" y="0"/>
      <point x="596" y="1"/>
    </contour>
  </outline>
</glyph>
<glyph name="Z" format="1">
  <advance width="629"/>
  <unicode hex="005A"/>
  <outline>
    <contour>
      <point x="106" y="41" type="line"/>
      <point x="558" y="41" type="line" smooth="yes"/>
      <point x="568" y="41"/>
      <point x="575" y="32"/>
      <point x="573" y="21" type="curve" smooth="yes"/>
      <point x="570" y="9"/>
      <point x="560" y="0"/>
      <point x="550" y="0" type="curve" smooth="yes"/>
      <point x="74" y="0" type="line" smooth="yes"/>
      <point x="62.2181" y="0"/>
      <point x="53.7218" y="6.571"/>
      <point x="53.7218" y="18.2242" type="curve" smooth="yes"/>
      <point x="53.7218" y="26.9683"/>
      <point x="58.1507" y="34.1507"/>
      <point x="64" y="40" type="curve" smooth="yes"/>
      <point x="673" y="638" type="line"/>
      <point x="222" y="638" type="line" smooth="yes"/>
      <point x="212" y="638"/>
      <point x="204" y="647"/>
      <point x="207" y="659" type="curve" smooth="yes"/>
      <point x="209" y="671"/>
      <point x="221" y="680"/>
      <point x="231" y="680" type="curve" smooth="yes"/>
      <point x="707" y="680" type="line" smooth="yes"/>
      <point x="718.301" y="680"/>
      <point x="726.579" y="672.443"/>
      <point x="726.579" y="661.928" type="curve" smooth="yes"/>
      <point x="726.579" y="660.347"/>
      <point x="726.392" y="658.699"/>
      <point x="726" y="657" type="curve" smooth="yes"/>
      <point x="725" y="652"/>
      <point x="721" y="645"/>
      <point x="717" y="641" type="curve" smooth="yes"/>
    </contour>
  </outline>
</glyph>
<glyph name="bracketright" format="1">
  <advance width="305"/>
  <unicode hex="005D"/>
  <outline>
    <contour>
      <point x="275" y="819" type="curve" smooth="yes"/>
      <point x="401" y="819" type="line" smooth="yes"/>
      <point x="412" y="819"/>
      <point x="418" y="811"/>
      <point x="416" y="800" type="curve" smooth="yes"/>
      <point x="222" y="-110" type="line" smooth="yes"/>
      <point x="220" y="-121"/>
      <point x="210" y="-129"/>
      <point x="199" y="-129" type="curve" smooth="yes"/>
      <point x="56" y="-129" type="line" smooth="yes"/>
      <point x="46" y="-129"/>
      <point x="40" y="-121"/>
      <point x="42" y="-110" type="curve" smooth="yes"/>
      <point x="44" y="-100"/>
      <point x="54" y="-92"/>
      <point x="64" y="-92" type="curve" smooth="yes"/>
      <point x="188" y="-92" type="line"/>
      <point x="374" y="782" type="line"/>
      <point x="267" y="782" type="line" smooth="yes"/>
      <point x="257" y="782"/>
      <point x="249" y="790"/>
      <point x="252" y="800" type="curve"/>
      <point x="254" y="811"/>
      <point x="265" y="819"/>
    </contour>
  </outline>
</glyph>
<glyph name="asciicircum" format="1">
  <advance width="490"/>
  <unicode hex="005E"/>
  <outline>
    <contour>
      <point x="423" y="652" type="curve" smooth="yes"/>
      <point x="485" y="441" type="line" smooth="yes"/>
      <point x="487" y="435"/>
      <point x="486" y="432"/>
      <point x="486" y="429" type="curve" smooth="yes"/>
      <point x="484" y="420"/>
      <point x="474" y="412"/>
      <point x="464" y="412" type="curve" smooth="yes"/>
      <point x="457" y="412"/>
      <point x="452" y="414"/>
      <point x="451" y="420" type="curve"/>
      <point x="392" y="617" type="line"/>
      <point x="227" y="419" type="line" smooth="yes"/>
      <point x="222" y="414"/>
      <point x="217" y="412"/>
      <point x="211" y="412" type="curve" smooth="yes"/>
      <point x="201" y="412"/>
      <point x="194" y="420"/>
      <point x="196" y="429" type="curve" smooth="yes"/>
      <point x="196" y="432"/>
      <point x="198" y="436"/>
      <point x="202" y="441" type="curve" smooth="yes"/>
      <point x="376" y="654" type="line" smooth="yes"/>
      <point x="384" y="664"/>
      <point x="393" y="670"/>
      <point x="404" y="670" type="curve" smooth="yes"/>
      <point x="413" y="670"/>
      <point x="420" y="664"/>
    </contour>
  </outline>
</glyph>
<glyph name="grave" format="1">
  <advance width="490"/>
  <unicode hex="0060"/>
  <outline>
    <contour>
      <point x="379" y="763" type="curve" smooth="yes"/>
      <point x="459" y="627" type="line" smooth="yes"/>
      <point x="462" y="622"/>
      <point x="463" y="618"/>
      <point x="462" y="614" type="curve" smooth="yes"/>
      <point x="460" y="604"/>
      <point x="449" y="598"/>
      <point x="440" y="598" type="curve" smooth="yes"/>
      <point x="436" y="598"/>
      <point x="431" y="600"/>
      <point x="428" y="604" type="curve" smooth="yes"/>
      <point x="332" y="730" type="line" smooth="yes"/>
      <point x="328" y="736"/>
      <point x="326" y="742"/>
      <point x="328" y="749" type="curve" smooth="yes"/>
      <point x="331" y="763"/>
      <point x="346" y="774"/>
      <point x="360" y="774" type="curve" smooth="yes"/>
      <point x="368" y="774"/>
      <point x="374" y="771"/>
    </contour>
  </outline>
</glyph>
<glyph name="c" format="1">
  <advance width="499"/>
  <unicode hex="0063"/>
  <outline>
    <contour>
      <point x="480" y="108" type="curve" smooth="yes"/>
      <point x="479" y="103"/>
      <point x="474" y="97"/>
      <point x="470" y="93" type="curve" smooth="yes"/>
      <point x="426" y="43"/>
      <point x="351" y="3"/>
      <point x="277" y="0" type="curve" smooth="yes"/>
      <point x="273.458" y="-0.18009"/>
      <point x="269.943" y="-0.26919"/>
      <point x="266.455" y="-0.26919" type="curve" smooth="yes"/>
      <point x="167.931" y="-0.26919"/>
      <point x="92.1397" y="70.8541"/>
      <point x="92.1397" y="170.411" type="curve" smooth="yes"/>
      <point x="92.1397" y="184.728"/>
      <point x="93.7072" y="199.633"/>
      <point x="97" y="215" type="curve" smooth="yes"/>
      <point x="107" y="263"/>
      <point x="131" y="308"/>
      <point x="146" y="334" type="curve"/>
      <point x="189" y="401"/>
      <point x="286" y="500"/>
      <point x="379" y="500" type="curve" smooth="yes"/>
      <point x="451" y="500"/>
      <point x="483" y="474"/>
      <point x="512" y="430" type="curve" smooth="yes"/>
      <point x="514" y="427"/>
      <point x="515" y="422"/>
      <point x="514" y="418" type="curve" smooth="yes"/>
      <point x="512" y="408"/>
      <point x="503" y="400"/>
      <point x="494" y="400" type="curve" smooth="yes"/>
      <point x="489" y="400"/>
      <point x="484" y="402"/>
      <point x="482" y="405" type="curve" smooth="yes"/>
      <point x="459" y="441"/>
      <point x="431" y="467"/>
      <point x="374" y="467" type="curve" smooth="yes"/>
      <point x="300" y="467"/>
      <point x="215" y="386"/>
      <point x="176" y="323" type="curve" smooth="yes"/>
      <point x="151" y="281"/>
      <point x="139" y="246"/>
      <point x="133" y="217" type="curve" smooth="yes"/>
      <point x="129.508" y="201.006"/>
      <point x="127.92" y="186.28"/>
      <point x="127.92" y="172.74" type="curve" smooth="yes"/>
      <point x="127.92" y="66.0713"/>
      <point x="226.519" y="33"/>
      <point x="270" y="33" type="curve" smooth="yes"/>
      <point x="349" y="33"/>
      <point x="406" y="71"/>
      <point x="444" y="111" type="curve" smooth="yes"/>
      <point x="449" y="117"/>
      <point x="457" y="124"/>
      <point x="466" y="124" type="curve" smooth="yes"/>
      <point x="475" y="124"/>
      <point x="482" y="117"/>
    </contour>
  </outline>
</glyph>
<glyph name="e" format="1">
  <advance width="511"/>
  <unicode hex="0065"/>
  <outline>
    <contour>
      <point x="487" y="83" type="curve" smooth="yes"/>
      <point x="486" y="79"/>
      <point x="483" y="75"/>
      <point x="480" y="72" type="curve" smooth="yes"/>
      <point x="436" y="32"/>
      <point x="363" y="0"/>
      <point x="302" y="0" type="curve" smooth="yes"/>
      <point x="169.535" y="0"/>
      <point x="97.7861" y="85.4524"/>
      <point x="97.7861" y="188.864" type="curve" smooth="yes"/>
      <point x="97.7861" y="204.895"/>
      <point x="99.5104" y="221.357"/>
      <point x="103" y="238" type="curve" smooth="yes"/>
      <point x="132" y="376"/>
      <point x="247" y="499"/>
      <point x="382" y="499" type="curve" smooth="yes"/>
      <point x="497.526" y="499"/>
      <point x="540.234" y="427.838"/>
      <point x="540.234" y="383.366" type="curve" smooth="yes"/>
      <point x="540.234" y="378.948"/>
      <point x="539.813" y="374.795"/>
      <point x="539" y="371" type="curve" smooth="yes"/>
      <point x="538" y="365"/>
      <point x="530" y="357"/>
      <point x="517" y="350" type="curve" smooth="yes"/>
      <point x="134" y="155" type="line"/>
      <point x="161" y="74"/>
      <point x="220" y="33"/>
      <point x="308" y="33" type="curve" smooth="yes"/>
      <point x="356" y="33"/>
      <point x="426" y="60"/>
      <point x="463" y="95" type="curve" smooth="yes"/>
      <point x="466" y="98"/>
      <point x="470" y="100"/>
      <point x="474" y="100" type="curve" smooth="yes"/>
      <point x="484" y="100"/>
      <point x="489" y="93"/>
    </contour>
    <contour>
      <point x="374" y="465" type="curve" smooth="yes"/>
      <point x="262" y="465"/>
      <point x="162" y="364"/>
      <point x="135" y="237" type="curve" smooth="yes"/>
      <point x="132" y="225"/>
      <point x="130" y="216"/>
      <point x="130" y="188" type="curve"/>
      <point x="506" y="373" type="line"/>
      <point x="495" y="432"/>
      <point x="456" y="465"/>
    </contour>
  </outline>
</glyph>
<glyph name="f" format="1">
  <advance width="361"/>
  <unicode hex="0066"/>
  <outline>
    <contour>
      <point x="143" y="501" type="curve" smooth="yes"/>
      <point x="234" y="501" type="line"/>
      <point x="266" y="650"/>
      <point x="335" y="699"/>
      <point x="475" y="699" type="curve" smooth="yes"/>
      <point x="489.903" y="699"/>
      <point x="502.204" y="696.397"/>
      <point x="502.204" y="685.535" type="curve" smooth="yes"/>
      <point x="502.204" y="673.763"/>
      <point x="492.017" y="665"/>
      <point x="480" y="665" type="curve" smooth="yes"/>
      <point x="347" y="665"/>
      <point x="302" y="646"/>
      <point x="271" y="501" type="curve"/>
      <point x="425" y="500" type="line" smooth="yes"/>
      <point x="433" y="500"/>
      <point x="439" y="493"/>
      <point x="438" y="485" type="curve"/>
      <point x="435" y="475"/>
      <point x="427" y="468"/>
      <point x="418" y="468" type="curve" smooth="yes"/>
      <point x="264" y="468" type="line"/>
      <point x="168" y="17" type="line" smooth="yes"/>
      <point x="166" y="7"/>
      <point x="157" y="0"/>
      <point x="146" y="0" type="curve" smooth="yes"/>
      <point x="136" y="0"/>
      <point x="129" y="7"/>
      <point x="131" y="17" type="curve" smooth="yes"/>
      <point x="227" y="468" type="line"/>
      <point x="138" y="468" type="line" smooth="yes"/>
      <point x="129" y="468"/>
      <point x="122" y="475"/>
      <point x="125" y="485" type="curve" smooth="yes"/>
      <point x="127" y="494"/>
      <point x="136" y="501"/>
    </contour>
  </outline>
</glyph>
<glyph name="g" format="1">
  <advance width="511"/>
  <unicode hex="0067"/>
  <outline>
    <contour>
      <point x="76" y="-177" type="curve" smooth="yes"/>
      <point x="67" y="-175"/>
      <point x="63" y="-168"/>
      <point x="65" y="-159" type="curve" smooth="yes"/>
      <point x="67" y="-149"/>
      <point x="77" y="-141"/>
      <point x="88" y="-141" type="curve" smooth="yes"/>
      <point x="91" y="-141"/>
      <point x="100" y="-143"/>
      <point x="108" y="-145" type="curve" smooth="yes"/>
      <point x="124" y="-149"/>
      <point x="153" y="-155"/>
      <point x="206" y="-155" type="curve" smooth="yes"/>
      <point x="328" y="-155"/>
      <point x="382" y="-89"/>
      <point x="407" y="14" type="curve" smooth="yes"/>
      <point x="429" y="102" type="line"/>
      <point x="390" y="51"/>
      <point x="312" y="-1"/>
      <point x="248" y="-1" type="curve" smooth="yes"/>
      <point x="151.464" y="-1"/>
      <point x="96.4557" y="71.1625"/>
      <point x="96.4557" y="172.798" type="curve" smooth="yes"/>
      <point x="96.4557" y="194.343"/>
      <point x="98.9277" y="217.213"/>
      <point x="104" y="241" type="curve" smooth="yes"/>
      <point x="132" y="374"/>
      <point x="261" y="500"/>
      <point x="396" y="500" type="curve" smooth="yes"/>
      <point x="442" y="500"/>
      <point x="486" y="481"/>
      <point x="513" y="458" type="curve"/>
      <point x="521" y="494"/>
      <point x="526" y="512"/>
      <point x="547" y="512" type="curve" smooth="yes"/>
      <point x="553" y="512"/>
      <point x="561" y="507"/>
      <point x="558" y="492" type="curve" smooth="yes"/>
      <point x="444" y="9" type="line"/>
      <point x="412" y="-130"/>
      <point x="313" y="-193"/>
      <point x="198" y="-193" type="curve" smooth="yes"/>
      <point x="150" y="-193"/>
      <point x="106" y="-184"/>
    </contour>
    <contour>
      <point x="468" y="268" type="curve" smooth="yes"/>
      <point x="502" y="424" type="line"/>
      <point x="481" y="447"/>
      <point x="435" y="464"/>
      <point x="392" y="464" type="curve" smooth="yes"/>
      <point x="277" y="464"/>
      <point x="163" y="367"/>
      <point x="135" y="237" type="curve" smooth="yes"/>
      <point x="131.433" y="220.212"/>
      <point x="129.362" y="201.487"/>
      <point x="129.362" y="182.376" type="curve" smooth="yes"/>
      <point x="129.362" y="110.418"/>
      <point x="158.713" y="33"/>
      <point x="248" y="33" type="curve" smooth="yes"/>
      <point x="324" y="33"/>
      <point x="430" y="88"/>
    </contour>
  </outline>
</glyph>
<glyph name="l" format="1">
  <advance width="216"/>
  <unicode hex="006C"/>
  <outline>
    <contour>
      <point x="273" y="680" type="curve" smooth="yes"/>
      <point x="132" y="16" type="line" smooth="yes"/>
      <point x="130" y="7"/>
      <point x="119" y="0"/>
      <point x="110" y="0" type="curve" smooth="yes"/>
      <point x="101" y="0"/>
      <point x="92" y="7"/>
      <point x="94" y="16" type="curve" smooth="yes"/>
      <point x="235" y="680" type="line" smooth="yes"/>
      <point x="237" y="690"/>
      <point x="248" y="698"/>
      <point x="258" y="698" type="curve" smooth="yes"/>
      <point x="268" y="698"/>
      <point x="275" y="690"/>
    </contour>
  </outline>
</glyph>
<glyph name="m" format="1">
  <advance width="803"/>
  <unicode hex="006D"/>
  <outline>
    <contour>
      <point x="732" y="512" type="curve" smooth="yes"/>
      <point x="781.053" y="512"/>
      <point x="833.448" y="490.612"/>
      <point x="833.448" y="400.841" type="curve" smooth="yes"/>
      <point x="833.448" y="380.807"/>
      <point x="830.838" y="357.368"/>
      <point x="825" y="330" type="curve" smooth="yes"/>
      <point x="758" y="18" type="line" smooth="yes"/>
      <point x="756" y="8"/>
      <point x="747" y="0"/>
      <point x="737" y="0" type="curve" smooth="yes"/>
      <point x="726" y="0"/>
      <point x="719" y="8"/>
      <point x="721" y="18" type="curve" smooth="yes"/>
      <point x="789" y="338" type="line" smooth="yes"/>
      <point x="794.6" y="363.8"/>
      <point x="797.04" y="385"/>
      <point x="797.04" y="402.408" type="curve" smooth="yes"/>
      <point x="797.04" y="472.04"/>
      <point x="758" y="481"/>
      <point x="726" y="481" type="curve" smooth="yes"/>
      <point x="666" y="481"/>
      <point x="528" y="408"/>
      <point x="502" y="284" type="curve" smooth="yes"/>
      <point x="445" y="18" type="line" smooth="yes"/>
      <point x="443" y="8"/>
      <point x="433" y="0"/>
      <point x="423" y="0" type="curve" smooth="yes"/>
      <point x="413" y="0"/>
      <point x="405" y="8"/>
      <point x="407" y="18" type="curve" smooth="yes"/>
      <point x="475" y="338" type="line" smooth="yes"/>
      <point x="480.684" y="364.187"/>
      <point x="483.154" y="385.634"/>
      <point x="483.154" y="403.188" type="curve" smooth="yes"/>
      <point x="483.154" y="472.107"/>
      <point x="445.083" y="481"/>
      <point x="414" y="481" type="curve" smooth="yes"/>
      <point x="367" y="481"/>
      <point x="277" y="425"/>
      <point x="181" y="310" type="curve" smooth="yes"/>
      <point x="171" y="298"/>
      <point x="161" y="278"/>
      <point x="156" y="256" type="curve" smooth="yes"/>
      <point x="105" y="18" type="line" smooth="yes"/>
      <point x="103" y="8"/>
      <point x="94" y="0"/>
      <point x="83" y="0" type="curve" smooth="yes"/>
      <point x="73" y="0"/>
      <point x="66" y="8"/>
      <point x="68" y="18" type="curve" smooth="yes"/>
      <point x="167" y="480" type="line" smooth="yes"/>
      <point x="169" y="491"/>
      <point x="179" y="499"/>
      <point x="189" y="499" type="curve" smooth="yes"/>
      <point x="200" y="499"/>
      <point x="206" y="491"/>
      <point x="204" y="480" type="curve" smooth="yes"/>
      <point x="174" y="339" type="line"/>
      <point x="224" y="416"/>
      <point x="353" y="512"/>
      <point x="421" y="512" type="curve" smooth="yes"/>
      <point x="465.696" y="512"/>
      <point x="519.437" y="493.008"/>
      <point x="519.437" y="397.4" type="curve" smooth="yes"/>
      <point x="519.437" y="392.473"/>
      <point x="519.294" y="387.342"/>
      <point x="519" y="382" type="curve"/>
      <point x="579" y="467"/>
      <point x="679" y="512"/>
    </contour>
  </outline>
</glyph>
<glyph name="n" format="1">
  <advance width="525"/>
  <unicode hex="006E"/>
  <outline>
    <contour>
      <point x="207" y="482" type="curve" smooth="yes"/>
      <point x="161" y="265" type="line"/>
      <point x="205" y="380"/>
      <point x="335" y="499"/>
      <point x="439" y="499" type="curve" smooth="yes"/>
      <point x="508.687" y="499"/>
      <point x="535.207" y="461.566"/>
      <point x="535.207" y="383.174" type="curve" smooth="yes"/>
      <point x="535.207" y="326.575"/>
      <point x="521.383" y="248.626"/>
      <point x="500" y="148" type="curve" smooth="yes"/>
      <point x="491" y="108"/>
      <point x="483" y="66"/>
      <point x="472" y="20" type="curve" smooth="yes"/>
      <point x="469" y="9"/>
      <point x="461" y="0"/>
      <point x="451" y="0" type="curve" smooth="yes"/>
      <point x="442" y="0"/>
      <point x="434" y="8"/>
      <point x="437" y="19" type="curve"/>
      <point x="445" y="65"/>
      <point x="454" y="106"/>
      <point x="462" y="145" type="curve" smooth="yes"/>
      <point x="482.927" y="245.83"/>
      <point x="498.877" y="322.908"/>
      <point x="498.877" y="376.019" type="curve" smooth="yes"/>
      <point x="498.877" y="434.577"/>
      <point x="479.488" y="464"/>
      <point x="426" y="464" type="curve" smooth="yes"/>
      <point x="378" y="464"/>
      <point x="312" y="438"/>
      <point x="232" y="334" type="curve"/>
      <point x="184" y="269"/>
      <point x="144" y="179"/>
      <point x="127" y="105" type="curve" smooth="yes"/>
      <point x="108" y="21" type="line" smooth="yes"/>
      <point x="105" y="9"/>
      <point x="98" y="0"/>
      <point x="86" y="0" type="curve" smooth="yes"/>
      <point x="76" y="0"/>
      <point x="69" y="7"/>
      <point x="71" y="17" type="curve" smooth="yes"/>
      <point x="170" y="482" type="line" smooth="yes"/>
      <point x="172" y="492"/>
      <point x="182" y="500"/>
      <point x="192" y="500" type="curve" smooth="yes"/>
      <point x="203" y="500"/>
      <point x="209" y="492"/>
    </contour>
  </outline>
</glyph>
<glyph name="o" format="1">
  <advance width="525"/>
  <unicode hex="006F"/>
  <outline>
    <contour>
      <point x="252" y="0" type="curve" smooth="yes"/>
      <point x="155.345" y="-1.42109e-14"/>
      <point x="93.9137" y="74.0417"/>
      <point x="93.9137" y="173.367" type="curve" smooth="yes"/>
      <point x="93.9137" y="191.191"/>
      <point x="95.892" y="209.829"/>
      <point x="100" y="229" type="curve" smooth="yes"/>
      <point x="131" y="376"/>
      <point x="264" y="500"/>
      <point x="390" y="500" type="curve" smooth="yes"/>
      <point x="486.102" y="500"/>
      <point x="546.763" y="424.055"/>
      <point x="546.763" y="325.066" type="curve" smooth="yes"/>
      <point x="546.763" y="307.661"/>
      <point x="544.888" y="289.543"/>
      <point x="541" y="271" type="curve" smooth="yes"/>
      <point x="510" y="123"/>
      <point x="378" y="0"/>
    </contour>
    <contour>
      <point x="379" y="471" type="curve" smooth="yes"/>
      <point x="277" y="471"/>
      <point x="166" y="358"/>
      <point x="139" y="231" type="curve" smooth="yes"/>
      <point x="135.03" y="212.357"/>
      <point x="133.086" y="194.131"/>
      <point x="133.086" y="176.733" type="curve" smooth="yes"/>
      <point x="133.086" y="93.3479"/>
      <point x="177.744" y="29"/>
      <point x="258" y="29" type="curve" smooth="yes"/>
      <point x="358" y="29"/>
      <point x="474" y="140"/>
      <point x="501" y="266" type="curve" smooth="yes"/>
      <point x="504.659" y="283.338"/>
      <point x="506.419" y="300.348"/>
      <point x="506.419" y="316.695" type="curve" smooth="yes"/>
      <point x="506.419" y="403.112"/>
      <point x="457.207" y="471"/>
    </contour>
  </outline>
</glyph>
<glyph name="p" format="1">
  <advance width="510"/>
  <unicode hex="0070"/>
  <outline>
    <contour>
      <point x="417" y="500" type="curve"/>
      <point x="501.319" y="496.096"/>
      <point x="534.436" y="425.753"/>
      <point x="534.436" y="345.6" type="curve" smooth="yes"/>
      <point x="534.436" y="323.089"/>
      <point x="531.824" y="299.804"/>
      <point x="527" y="277" type="curve" smooth="yes"/>
      <point x="503" y="163"/>
      <point x="427" y="8"/>
      <point x="252" y="8" type="curve" smooth="yes"/>
      <point x="199" y="8"/>
      <point x="148" y="27"/>
      <point x="113" y="42" type="curve"/>
      <point x="65" y="-184" type="line" smooth="yes"/>
      <point x="63" y="-195"/>
      <point x="53" y="-203"/>
      <point x="42" y="-203" type="curve" smooth="yes"/>
      <point x="32" y="-203"/>
      <point x="26" y="-195"/>
      <point x="28" y="-184" type="curve" smooth="yes"/>
      <point x="170" y="480" type="line" smooth="yes"/>
      <point x="172" y="491"/>
      <point x="182" y="500"/>
      <point x="192" y="500" type="curve" smooth="yes"/>
      <point x="203" y="500"/>
      <point x="209" y="491"/>
      <point x="207" y="480" type="curve" smooth="yes"/>
      <point x="193" y="415" type="line"/>
      <point x="254" y="462"/>
      <point x="328" y="500"/>
    </contour>
    <contour>
      <point x="266" y="47" type="curve" smooth="yes"/>
      <point x="401" y="47"/>
      <point x="468" y="146"/>
      <point x="495" y="277" type="curve" smooth="yes"/>
      <point x="498.953" y="295.182"/>
      <point x="501.725" y="317.183"/>
      <point x="501.725" y="339.727" type="curve" smooth="yes"/>
      <point x="501.725" y="402.739"/>
      <point x="480.068" y="470"/>
      <point x="402" y="470" type="curve" smooth="yes"/>
      <point x="288" y="470"/>
      <point x="208" y="399"/>
      <point x="183" y="371" type="curve"/>
      <point x="123" y="86" type="line"/>
      <point x="143" y="76"/>
      <point x="203" y="47"/>
    </contour>
  </outline>
</glyph>
<glyph name="q" format="1">
  <advance width="504"/>
  <unicode hex="0071"/>
  <outline>
    <contour>
      <point x="350" y="-176" type="curve" smooth="yes"/>
      <point x="407" y="56" type="line"/>
      <point x="407" y="56"/>
      <point x="350" y="-6"/>
      <point x="259" y="-6" type="curve" smooth="yes"/>
      <point x="152.497" y="-6"/>
      <point x="90.2761" y="62.2394"/>
      <point x="90.2761" y="157.277" type="curve" smooth="yes"/>
      <point x="90.2761" y="173.782"/>
      <point x="92.1527" y="191.095"/>
      <point x="96" y="209" type="curve" smooth="yes"/>
      <point x="132" y="380"/>
      <point x="265" y="489"/>
      <point x="427" y="489" type="curve" smooth="yes"/>
      <point x="450" y="489"/>
      <point x="478" y="486"/>
      <point x="513" y="479" type="curve"/>
      <point x="518" y="501" type="line" smooth="yes"/>
      <point x="520" y="511"/>
      <point x="530" y="519"/>
      <point x="539" y="519" type="curve" smooth="yes"/>
      <point x="549" y="519"/>
      <point x="555" y="511"/>
      <point x="553" y="501" type="curve" smooth="yes"/>
      <point x="385" y="-177" type="line" smooth="yes"/>
      <point x="382" y="-190"/>
      <point x="372" y="-197"/>
      <point x="363" y="-197" type="curve" smooth="yes"/>
      <point x="352" y="-197"/>
      <point x="346" y="-191"/>
    </contour>
    <contour>
      <point x="256" y="25" type="curve" smooth="yes"/>
      <point x="345" y="25"/>
      <point x="413" y="73"/>
      <point x="434" y="159" type="curve" smooth="yes"/>
      <point x="505" y="450" type="line"/>
      <point x="473" y="455"/>
      <point x="446" y="457"/>
      <point x="421" y="457" type="curve" smooth="yes"/>
      <point x="280" y="457"/>
      <point x="162" y="367"/>
      <point x="127" y="207" type="curve"/>
      <point x="123.914" y="191.992"/>
      <point x="122.442" y="177.613"/>
      <point x="122.442" y="163.982" type="curve" smooth="yes"/>
      <point x="122.442" y="80.4359"/>
      <point x="177.764" y="25"/>
    </contour>
  </outline>
</glyph>
<glyph name="r" format="1">
  <advance width="406"/>
  <unicode hex="0072"/>
  <outline>
    <contour>
      <point x="209" y="481" type="curve" smooth="yes"/>
      <point x="179" y="342" type="line"/>
      <point x="215" y="409"/>
      <point x="317" y="502"/>
      <point x="404" y="502" type="curve" smooth="yes"/>
      <point x="440.979" y="502"/>
      <point x="464.34" y="489"/>
      <point x="464.34" y="450.336" type="curve" smooth="yes"/>
      <point x="464.34" y="439.859"/>
      <point x="462.624" y="427.498"/>
      <point x="459" y="413" type="curve"/>
      <point x="456" y="396" type="line"/>
      <point x="453" y="385"/>
      <point x="445" y="377"/>
      <point x="435" y="377" type="curve" smooth="yes"/>
      <point x="421" y="377"/>
      <point x="418" y="386"/>
      <point x="420" y="397" type="curve" smooth="yes"/>
      <point x="422" y="407" type="line" smooth="yes"/>
      <point x="424.229" y="417.774"/>
      <point x="427.01" y="428.687"/>
      <point x="427.01" y="438.147" type="curve" smooth="yes"/>
      <point x="427.01" y="454.151"/>
      <point x="419.052" y="466"/>
      <point x="387" y="466" type="curve" smooth="yes"/>
      <point x="333" y="466"/>
      <point x="274" y="422"/>
      <point x="223" y="368" type="curve" smooth="yes"/>
      <point x="196" y="340"/>
      <point x="168" y="289"/>
      <point x="160" y="253" type="curve" smooth="yes"/>
      <point x="109" y="17" type="line" smooth="yes"/>
      <point x="107" y="7"/>
      <point x="98" y="0"/>
      <point x="87" y="0" type="curve" smooth="yes"/>
      <point x="78" y="0"/>
      <point x="70" y="7"/>
      <point x="72" y="17" type="curve" smooth="yes"/>
      <point x="171" y="481" type="line" smooth="yes"/>
      <point x="173" y="491"/>
      <point x="183" y="499"/>
      <point x="193" y="499" type="curve" smooth="yes"/>
      <point x="204" y="499"/>
      <point x="211" y="491"/>
    </contour>
  </outline>
</glyph>
<glyph name="braceleft" format="1">
  <advance width="366"/>
  <unicode hex="007B"/>
  <outline>
    <contour>
      <point x="229" y="225" type="curve" smooth="yes"/>
      <point x="184" y="13" type="line" smooth="yes"/>
      <point x="182.277" y="4.92385"/>
      <point x="181.482" y="-2.56093"/>
      <point x="181.482" y="-9.49804" type="curve" smooth="yes"/>
      <point x="181.482" y="-66.9832"/>
      <point x="236.092" y="-86.8615"/>
      <point x="270" y="-94" type="curve" smooth="yes"/>
      <point x="282" y="-96"/>
      <point x="287" y="-101"/>
      <point x="285" y="-112" type="curve" smooth="yes"/>
      <point x="282.342" y="-122.632"/>
      <point x="273.404" y="-129.339"/>
      <point x="263.75" y="-129.339" type="curve" smooth="yes"/>
      <point x="262.508" y="-129.339"/>
      <point x="261.254" y="-129.228"/>
      <point x="260" y="-129" type="curve" smooth="yes"/>
      <point x="208.4" y="-119.214"/>
      <point x="144.927" y="-85.6827"/>
      <point x="144.927" y="-15.0278" type="curve" smooth="yes"/>
      <point x="144.927" y="-6.26479"/>
      <point x="145.904" y="3.06931"/>
      <point x="148" y="13" type="curve" smooth="yes"/>
      <point x="194" y="226" type="line" smooth="yes"/>
      <point x="196.005" y="235.523"/>
      <point x="196.949" y="244.544"/>
      <point x="196.949" y="253.039" type="curve" smooth="yes"/>
      <point x="196.949" y="295.39"/>
      <point x="173.484" y="324.673"/>
      <point x="141" y="338" type="curve" smooth="yes"/>
      <point x="133" y="342"/>
      <point x="131" y="347"/>
      <point x="133" y="354" type="curve"/>
      <point x="134" y="362"/>
      <point x="138" y="366"/>
      <point x="147" y="370" type="curve" smooth="yes"/>
      <point x="216" y="400"/>
      <point x="238" y="436"/>
      <point x="248" y="482" type="curve" smooth="yes"/>
      <point x="290" y="679" type="line" smooth="yes"/>
      <point x="309" y="769"/>
      <point x="400" y="810"/>
      <point x="462" y="821" type="curve" smooth="yes"/>
      <point x="473" y="823"/>
      <point x="482" y="816"/>
      <point x="479" y="804" type="curve" smooth="yes"/>
      <point x="477" y="793"/>
      <point x="470" y="788"/>
      <point x="457" y="786" type="curve" smooth="yes"/>
      <point x="416" y="778"/>
      <point x="342" y="754"/>
      <point x="326" y="679" type="curve" smooth="yes"/>
      <point x="284" y="483" type="line" smooth="yes"/>
      <point x="273" y="430"/>
      <point x="237" y="387"/>
      <point x="189" y="354" type="curve"/>
      <point x="214.6" y="331.6"/>
      <point x="232.52" y="297.68"/>
      <point x="232.52" y="256.848" type="curve" smooth="yes"/>
      <point x="232.52" y="246.64"/>
      <point x="231.4" y="236"/>
    </contour>
  </outline>
</glyph>
<glyph name="bar" format="1">
  <advance width="183"/>
  <unicode hex="007C"/>
  <outline>
    <contour>
      <point x="55" y="-175" type="curve" smooth="yes"/>
      <point x="45" y="-175"/>
      <point x="38" y="-167"/>
      <point x="40" y="-156" type="curve" smooth="yes"/>
      <point x="251" y="836" type="line" smooth="yes"/>
      <point x="253" y="846"/>
      <point x="264" y="854"/>
      <point x="274" y="854" type="curve" smooth="yes"/>
      <point x="284" y="854"/>
      <point x="291" y="846"/>
      <point x="289" y="836" type="curve" smooth="yes"/>
      <point x="78" y="-156" type="line" smooth="yes"/>
      <point x="76" y="-167"/>
      <point x="65" y="-175"/>
    </contour>
  </outline>
</glyph>
<glyph name="braceright" format="1">
  <advance width="366"/>
  <unicode hex="007D"/>
  <outline>
    <contour>
      <point x="284" y="467" type="curve" smooth="yes"/>
      <point x="329" y="679" type="line" smooth="yes"/>
      <point x="330.724" y="687.082"/>
      <point x="331.519" y="694.573"/>
      <point x="331.519" y="701.514" type="curve" smooth="yes"/>
      <point x="331.519" y="758.987"/>
      <point x="277.013" y="778.862"/>
      <point x="244" y="786" type="curve"/>
      <point x="231" y="788"/>
      <point x="226" y="793"/>
      <point x="228" y="804" type="curve" smooth="yes"/>
      <point x="230.658" y="814.632"/>
      <point x="239.596" y="821.339"/>
      <point x="249.25" y="821.339" type="curve" smooth="yes"/>
      <point x="250.492" y="821.339"/>
      <point x="251.746" y="821.228"/>
      <point x="253" y="821" type="curve" smooth="yes"/>
      <point x="304.6" y="811.214"/>
      <point x="368.073" y="777.683"/>
      <point x="368.073" y="707.028" type="curve" smooth="yes"/>
      <point x="368.073" y="698.265"/>
      <point x="367.096" y="688.931"/>
      <point x="365" y="679" type="curve" smooth="yes"/>
      <point x="320" y="466" type="line"/>
      <point x="317.697" y="455.904"/>
      <point x="316.618" y="446.373"/>
      <point x="316.618" y="437.434" type="curve" smooth="yes"/>
      <point x="316.618" y="395.906"/>
      <point x="339.908" y="367.166"/>
      <point x="372" y="354" type="curve" smooth="yes"/>
      <point x="380" y="350"/>
      <point x="382" y="345"/>
      <point x="380" y="338" type="curve"/>
      <point x="379" y="330"/>
      <point x="375" y="326"/>
      <point x="366" y="322" type="curve" smooth="yes"/>
      <point x="298" y="292"/>
      <point x="275" y="256"/>
      <point x="265" y="210" type="curve" smooth="yes"/>
      <point x="223" y="13" type="line" smooth="yes"/>
      <point x="204" y="-77"/>
      <point x="113" y="-118"/>
      <point x="51" y="-129" type="curve" smooth="yes"/>
      <point x="40" y="-131"/>
      <point x="31" y="-124"/>
      <point x="34" y="-112" type="curve" smooth="yes"/>
      <point x="36" y="-101"/>
      <point x="43" y="-96"/>
      <point x="57" y="-94" type="curve"/>
      <point x="97" y="-86"/>
      <point x="171" y="-62"/>
      <point x="187" y="13" type="curve" smooth="yes"/>
      <point x="229" y="209" type="line" smooth="yes"/>
      <point x="240" y="262"/>
      <point x="276" y="305"/>
      <point x="324" y="338" type="curve"/>
      <point x="298.4" y="360.4"/>
      <point x="280.48" y="394.32"/>
      <point x="280.48" y="435.152" type="curve" smooth="yes"/>
      <point x="280.48" y="445.36"/>
      <point x="281.6" y="456"/>
    </contour>
  </outline>
</glyph>
<glyph name="asciitilde" format="1">
  <advance width="630"/>
  <unicode hex="007E"/>
  <outline>
    <contour>
      <point x="634" y="296" type="curve" smooth="yes"/>
      <point x="607" y="248"/>
      <point x="544" y="156"/>
      <point x="457" y="156" type="curve" smooth="yes"/>
      <point x="397" y="156"/>
      <point x="374" y="201"/>
      <point x="353" y="242" type="curve" smooth="yes"/>
      <point x="332" y="284"/>
      <point x="315" y="311"/>
      <point x="276" y="311" type="curve" smooth="yes"/>
      <point x="216" y="311"/>
      <point x="165" y="248"/>
      <point x="144" y="205" type="curve" smooth="yes"/>
      <point x="140" y="197"/>
      <point x="134" y="192"/>
      <point x="124" y="192" type="curve" smooth="yes"/>
      <point x="114" y="192"/>
      <point x="108" y="199"/>
      <point x="109" y="207" type="curve"/>
      <point x="111" y="213"/>
      <point x="114" y="217"/>
      <point x="115" y="220" type="curve" smooth="yes"/>
      <point x="154" y="286"/>
      <point x="212" y="346"/>
      <point x="283" y="346" type="curve" smooth="yes"/>
      <point x="343" y="346"/>
      <point x="365" y="301"/>
      <point x="386" y="262" type="curve" smooth="yes"/>
      <point x="409" y="219"/>
      <point x="425" y="192"/>
      <point x="464" y="192" type="curve" smooth="yes"/>
      <point x="525" y="192"/>
      <point x="578" y="266"/>
      <point x="602" y="306" type="curve" smooth="yes"/>
      <point x="611" y="320"/>
      <point x="619" y="326"/>
      <point x="627" y="326" type="curve" smooth="yes"/>
      <point x="636" y="326"/>
      <point x="641" y="319"/>
      <point x="639" y="309" type="curve" smooth="yes"/>
      <point x="638" y="305"/>
      <point x="638" y="302"/>
    </contour>
  </outline>
</glyph>
<glyph name="exclamdown" format="1">
  <advance width="186"/>
  <unicode hex="00A1"/>
  <outline>
    <contour>
      <point x="170" y="318" type="curve" smooth="yes"/>
      <point x="63" y="-184" type="line" smooth="yes"/>
      <point x="61" y="-196"/>
      <point x="49" y="-205"/>
      <point x="39" y="-205" type="curve" smooth="yes"/>
      <point x="28" y="-205"/>
      <point x="21" y="-196"/>
      <point x="23" y="-184" type="curve" smooth="yes"/>
      <point x="130" y="318" type="line" smooth="yes"/>
      <point x="132" y="328"/>
      <point x="143" y="338"/>
      <point x="154" y="338" type="curve" smooth="yes"/>
      <point x="164" y="338"/>
      <point x="172" y="328"/>
    </contour>
    <contour>
      <point x="158" y="457" type="curve" smooth="yes"/>
      <point x="162" y="479"/>
      <point x="182" y="496"/>
      <point x="197" y="496" type="curve" smooth="yes"/>
      <point x="208.645" y="496"/>
      <point x="214.755" y="487.006"/>
      <point x="214.755" y="475.349" type="curve" smooth="yes"/>
      <point x="214.755" y="472.991"/>
      <point x="214.505" y="470.524"/>
      <point x="214" y="468" type="curve" smooth="yes"/>
      <point x="210" y="448"/>
      <point x="192" y="430"/>
      <point x="175" y="430" type="curve" smooth="yes"/>
      <point x="163.355" y="430"/>
      <point x="157.245" y="438.994"/>
      <point x="157.245" y="450.076" type="curve" smooth="yes"/>
      <point x="157.245" y="452.318"/>
      <point x="157.495" y="454.645"/>
    </contour>
  </outline>
</glyph>
<glyph name="cent" format="1">
  <advance width="546"/>
  <unicode hex="00A2"/>
  <outline>
    <contour>
      <point x="511" y="227" type="curve" smooth="yes"/>
      <point x="521" y="227"/>
      <point x="527" y="219"/>
      <point x="525" y="208" type="curve" smooth="yes"/>
      <point x="524" y="204"/>
      <point x="521" y="200"/>
      <point x="517" y="196" type="curve" smooth="yes"/>
      <point x="468" y="143"/>
      <point x="391" y="104"/>
      <point x="311" y="104" type="curve"/>
      <point x="290" y="15" type="line" smooth="yes"/>
      <point x="288" y="6"/>
      <point x="280" y="0"/>
      <point x="272" y="0" type="curve" smooth="yes"/>
      <point x="263" y="0"/>
      <point x="257" y="7"/>
      <point x="259" y="17" type="curve" smooth="yes"/>
      <point x="280" y="105" type="line"/>
      <point x="167.888" y="134.419"/>
      <point x="139.229" y="209.99"/>
      <point x="139.229" y="272.396" type="curve" smooth="yes"/>
      <point x="139.229" y="288.476"/>
      <point x="141.132" y="303.683"/>
      <point x="144" y="317" type="curve" smooth="yes"/>
      <point x="170" y="440"/>
      <point x="268" y="563"/>
      <point x="400" y="601" type="curve"/>
      <point x="420" y="684" type="line" smooth="yes"/>
      <point x="422" y="694"/>
      <point x="431" y="699"/>
      <point x="439" y="699" type="curve" smooth="yes"/>
      <point x="448" y="699"/>
      <point x="453" y="692"/>
      <point x="451" y="683" type="curve" smooth="yes"/>
      <point x="431" y="602" type="line"/>
      <point x="432.109" y="602.038"/>
      <point x="433.225" y="602.057"/>
      <point x="434.348" y="602.057" type="curve" smooth="yes"/>
      <point x="489.534" y="602.057"/>
      <point x="561.435" y="556.53"/>
      <point x="561.435" y="525.106" type="curve" smooth="yes"/>
      <point x="561.435" y="513.512"/>
      <point x="550.926" y="504"/>
      <point x="541" y="504" type="curve" smooth="yes"/>
      <point x="536" y="504"/>
      <point x="532" y="505"/>
      <point x="529" y="510" type="curve" smooth="yes"/>
      <point x="507" y="547"/>
      <point x="471" y="568"/>
      <point x="423" y="572" type="curve"/>
      <point x="319" y="135" type="line"/>
      <point x="387" y="139"/>
      <point x="447" y="169"/>
      <point x="491" y="214" type="curve" smooth="yes"/>
      <point x="496" y="219"/>
      <point x="504" y="227"/>
    </contour>
    <contour>
      <point x="178" y="319" type="curve" smooth="yes"/>
      <point x="175.239" y="305.778"/>
      <point x="173.914" y="293"/>
      <point x="173.914" y="280.754" type="curve" smooth="yes"/>
      <point x="173.914" y="208.714"/>
      <point x="219.769" y="155.094"/>
      <point x="289" y="138" type="curve"/>
      <point x="391" y="568" type="line"/>
      <point x="265" y="529"/>
      <point x="193" y="387"/>
    </contour>
  </outline>
</glyph>
<glyph name="currency" format="1">
  <advance width="507"/>
  <unicode hex="00A4"/>
  <outline>
    <contour>
      <point x="414" y="154" type="curve"/>
      <point x="477" y="74" type="line" smooth="yes"/>
      <point x="480" y="71"/>
      <point x="480" y="67"/>
      <point x="479" y="63" type="curve" smooth="yes"/>
      <point x="477" y="54"/>
      <point x="469" y="46"/>
      <point x="459" y="46" type="curve" smooth="yes"/>
      <point x="455" y="46"/>
      <point x="452" y="48"/>
      <point x="449" y="51" type="curve" smooth="yes"/>
      <point x="386" y="130" type="line"/>
      <point x="351" y="108"/>
      <point x="315" y="95"/>
      <point x="279" y="95" type="curve" smooth="yes"/>
      <point x="246" y="95"/>
      <point x="213" y="108"/>
      <point x="187" y="130" type="curve"/>
      <point x="89" y="50" type="line" smooth="yes"/>
      <point x="85" y="47"/>
      <point x="82" y="46"/>
      <point x="78" y="46" type="curve" smooth="yes"/>
      <point x="69" y="46"/>
      <point x="63" y="53"/>
      <point x="65" y="63" type="curve" smooth="yes"/>
      <point x="66" y="67"/>
      <point x="69" y="71"/>
      <point x="72" y="74" type="curve" smooth="yes"/>
      <point x="170" y="154" type="line"/>
      <point x="159.988" y="175.455"/>
      <point x="154.067" y="198.956"/>
      <point x="154.067" y="222.674" type="curve" smooth="yes"/>
      <point x="154.067" y="232.12"/>
      <point x="155.006" y="241.601"/>
      <point x="157" y="251" type="curve" smooth="yes"/>
      <point x="164" y="286"/>
      <point x="185" y="320"/>
      <point x="214" y="350" type="curve"/>
      <point x="148" y="432" type="line" smooth="yes"/>
      <point x="145" y="436"/>
      <point x="145" y="440"/>
      <point x="146" y="444" type="curve" smooth="yes"/>
      <point x="148" y="452"/>
      <point x="156" y="460"/>
      <point x="166" y="460" type="curve" smooth="yes"/>
      <point x="170" y="460"/>
      <point x="174" y="458"/>
      <point x="176" y="455" type="curve" smooth="yes"/>
      <point x="242" y="373" type="line"/>
      <point x="276" y="395"/>
      <point x="312" y="406"/>
      <point x="345" y="406" type="curve" smooth="yes"/>
      <point x="380" y="406"/>
      <point x="410" y="395"/>
      <point x="436" y="373" type="curve"/>
      <point x="535" y="455" type="line" smooth="yes"/>
      <point x="539" y="458"/>
      <point x="543" y="460"/>
      <point x="547" y="460" type="curve" smooth="yes"/>
      <point x="555" y="460"/>
      <point x="562" y="452"/>
      <point x="560" y="444" type="curve" smooth="yes"/>
      <point x="559" y="440"/>
      <point x="558" y="436"/>
      <point x="553" y="432" type="curve" smooth="yes"/>
      <point x="454" y="350" type="line"/>
      <point x="465.549" y="328.345"/>
      <point x="471.888" y="303.563"/>
      <point x="471.888" y="279.04" type="curve" smooth="yes"/>
      <point x="471.888" y="269.591"/>
      <point x="470.947" y="260.179"/>
      <point x="469" y="251" type="curve" smooth="yes"/>
      <point x="462" y="218"/>
      <point x="442" y="184"/>
    </contour>
    <contour>
      <point x="190" y="251" type="curve" smooth="yes"/>
      <point x="188.01" y="241.848"/>
      <point x="187.059" y="232.943"/>
      <point x="187.059" y="224.379" type="curve" smooth="yes"/>
      <point x="187.059" y="168.378"/>
      <point x="227.754" y="127"/>
      <point x="285" y="127" type="curve" smooth="yes"/>
      <point x="354" y="127"/>
      <point x="421" y="182"/>
      <point x="436" y="251" type="curve" smooth="yes"/>
      <point x="437.982" y="260.118"/>
      <point x="438.934" y="268.975"/>
      <point x="438.934" y="277.479" type="curve" smooth="yes"/>
      <point x="438.934" y="333.329"/>
      <point x="397.882" y="374"/>
      <point x="338" y="374" type="curve" smooth="yes"/>
      <point x="272" y="374"/>
      <point x="205" y="320"/>
    </contour>
  </outline>
</glyph>
<glyph name="dieresis" format="1">
  <advance width="490"/>
  <unicode hex="00A8"/>
  <outline>
    <contour>
      <point x="342.384" y="640.086" type="curve" smooth="yes"/>
      <point x="342.384" y="616.881"/>
      <point x="313.97" y="600"/>
      <point x="291" y="600" type="curve" smooth="yes"/>
      <point x="272.818" y="600"/>
      <point x="259.595" y="610.744"/>
      <point x="259.595" y="625.47" type="curve" smooth="yes"/>
      <point x="259.595" y="626.942"/>
      <point x="259.727" y="628.455"/>
      <point x="260" y="630" type="curve" smooth="yes"/>
      <point x="264" y="649"/>
      <point x="287" y="666"/>
      <point x="311" y="666" type="curve" smooth="yes"/>
      <point x="328.362" y="666"/>
      <point x="342.384" y="654.31"/>
    </contour>
    <contour>
      <point x="507.384" y="640.097" type="curve" smooth="yes"/>
      <point x="507.384" y="616.883"/>
      <point x="478.977" y="600"/>
      <point x="456" y="600" type="curve" smooth="yes"/>
      <point x="438.732" y="600"/>
      <point x="425.594" y="610.738"/>
      <point x="425.594" y="625.457" type="curve" smooth="yes"/>
      <point x="425.594" y="626.934"/>
      <point x="425.726" y="628.45"/>
      <point x="426" y="630" type="curve" smooth="yes"/>
      <point x="430" y="649"/>
      <point x="453" y="666"/>
      <point x="477" y="666" type="curve" smooth="yes"/>
      <point x="493.444" y="666"/>
      <point x="507.384" y="654.316"/>
    </contour>
  </outline>
</glyph>
<glyph name="ordfeminine" format="1">
  <advance width="240"/>
  <unicode hex="00AA"/>
  <outline>
    <contour>
      <point x="302" y="356" type="curve" smooth="yes"/>
      <point x="295.398" y="356"/>
      <point x="289.335" y="358.69"/>
      <point x="289.335" y="373.544" type="curve" smooth="yes"/>
      <point x="289.335" y="378.939"/>
      <point x="290.135" y="385.94"/>
      <point x="292" y="395" type="curve"/>
      <point x="253" y="372"/>
      <point x="224" y="362"/>
      <point x="191" y="362" type="curve" smooth="yes"/>
      <point x="137.223" y="362"/>
      <point x="103.215" y="401.539"/>
      <point x="103.215" y="458.665" type="curve" smooth="yes"/>
      <point x="103.215" y="469.525"/>
      <point x="104.444" y="481.02"/>
      <point x="107" y="493" type="curve" smooth="yes"/>
      <point x="125" y="577"/>
      <point x="196" y="675"/>
      <point x="289" y="675" type="curve" smooth="yes"/>
      <point x="328" y="675"/>
      <point x="365" y="662"/>
      <point x="379" y="650" type="curve"/>
      <point x="321" y="372" type="line"/>
      <point x="318" y="362"/>
      <point x="310" y="356"/>
    </contour>
    <contour>
      <point x="286" y="644" type="curve" smooth="yes"/>
      <point x="203" y="644"/>
      <point x="152" y="556"/>
      <point x="139" y="495" type="curve" smooth="yes"/>
      <point x="136.955" y="485.594"/>
      <point x="135.83" y="475.729"/>
      <point x="135.83" y="465.985" type="curve" smooth="yes"/>
      <point x="135.83" y="428.074"/>
      <point x="152.859" y="392"/>
      <point x="199" y="392" type="curve" smooth="yes"/>
      <point x="238" y="392"/>
      <point x="284" y="419"/>
      <point x="298" y="428" type="curve"/>
      <point x="344" y="630" type="line"/>
      <point x="333" y="638"/>
      <point x="304" y="644"/>
    </contour>
  </outline>
</glyph>
<glyph name="logicalnot" format="1">
  <advance width="470"/>
  <unicode hex="00AC"/>
  <outline>
    <contour>
      <point x="428" y="130" type="curve" smooth="yes"/>
      <point x="418" y="130"/>
      <point x="413" y="138"/>
      <point x="415" y="146" type="curve" smooth="yes"/>
      <point x="446" y="290" type="line"/>
      <point x="119" y="290" type="line" smooth="yes"/>
      <point x="111" y="290"/>
      <point x="105" y="297"/>
      <point x="106" y="305" type="curve" smooth="yes"/>
      <point x="108" y="315"/>
      <point x="118" y="322"/>
      <point x="126" y="322" type="curve" smooth="yes"/>
      <point x="469" y="322" type="line" smooth="yes"/>
      <point x="477" y="322"/>
      <point x="484" y="316"/>
      <point x="481" y="305" type="curve" smooth="yes"/>
      <point x="447" y="146" type="line" smooth="yes"/>
      <point x="445" y="138"/>
      <point x="436" y="130"/>
    </contour>
  </outline>
</glyph>
<glyph name="uni00AD" format="1">
  <advance width="431"/>
  <unicode hex="00AD"/>
  <outline>
    <contour>
      <point x="399" y="232" type="curve" smooth="yes"/>
      <point x="141" y="232" type="line" smooth="yes"/>
      <point x="132" y="232"/>
      <point x="126" y="241"/>
      <point x="128" y="250" type="curve" smooth="yes"/>
      <point x="130" y="259"/>
      <point x="139" y="268"/>
      <point x="148" y="268" type="curve" smooth="yes"/>
      <point x="406" y="268" type="line" smooth="yes"/>
      <point x="415" y="268"/>
      <point x="423" y="259"/>
      <point x="421" y="250" type="curve" smooth="yes"/>
      <point x="419" y="241"/>
      <point x="408" y="232"/>
    </contour>
  </outline>
</glyph>
<glyph name="macron" format="1">
  <advance width="490"/>
  <unicode hex="00AF"/>
  <outline>
    <contour>
      <point x="491" y="625" type="curve" smooth="yes"/>
      <point x="273" y="625" type="line" smooth="yes"/>
      <point x="265" y="625"/>
      <point x="259" y="633"/>
      <point x="261" y="642" type="curve" smooth="yes"/>
      <point x="263" y="650"/>
      <point x="272" y="658"/>
      <point x="280" y="658" type="curve" smooth="yes"/>
      <point x="498" y="658" type="line" smooth="yes"/>
      <point x="506" y="658"/>
      <point x="512" y="650"/>
      <point x="510" y="642" type="curve" smooth="yes"/>
      <point x="508" y="633"/>
      <point x="499" y="625"/>
    </contour>
  </outline>
</glyph>
<glyph name="degree" format="1">
  <advance width="233"/>
  <unicode hex="00B0"/>
  <outline>
    <contour>
      <point x="222" y="483" type="curve" smooth="yes"/>
      <point x="165.593" y="483"/>
      <point x="127.26" y="522.913"/>
      <point x="127.26" y="575.292" type="curve" smooth="yes"/>
      <point x="127.26" y="583.271"/>
      <point x="128.149" y="591.539"/>
      <point x="130" y="600" type="curve" smooth="yes"/>
      <point x="144" y="665"/>
      <point x="207" y="717"/>
      <point x="272" y="717" type="curve" smooth="yes"/>
      <point x="326.65" y="717"/>
      <point x="364.745" y="677.871"/>
      <point x="364.745" y="625.07" type="curve" smooth="yes"/>
      <point x="364.745" y="617.002"/>
      <point x="363.856" y="608.615"/>
      <point x="362" y="600" type="curve" smooth="yes"/>
      <point x="348" y="536"/>
      <point x="285" y="483"/>
    </contour>
    <contour>
      <point x="266" y="690" type="curve" smooth="yes"/>
      <point x="217" y="690"/>
      <point x="167" y="650"/>
      <point x="156" y="600" type="curve" smooth="yes"/>
      <point x="154.596" y="593.617"/>
      <point x="153.925" y="587.414"/>
      <point x="153.925" y="581.448" type="curve" smooth="yes"/>
      <point x="153.925" y="540.679"/>
      <point x="185.255" y="511"/>
      <point x="228" y="511" type="curve" smooth="yes"/>
      <point x="278" y="511"/>
      <point x="325" y="550"/>
      <point x="336" y="600" type="curve" smooth="yes"/>
      <point x="337.496" y="606.801"/>
      <point x="338.215" y="613.417"/>
      <point x="338.215" y="619.772" type="curve" smooth="yes"/>
      <point x="338.215" y="660.141"/>
      <point x="309.199" y="690"/>
    </contour>
  </outline>
</glyph>
<glyph name="twosuperior" format="1">
  <advance width="230"/>
  <unicode hex="00B2"/>
  <outline>
    <contour>
      <point x="311" y="462" type="curve" smooth="yes"/>
      <point x="104" y="462" type="line"/>
      <point x="106" y="475" type="line"/>
      <point x="127" y="572"/>
      <point x="184" y="613"/>
      <point x="290" y="672" type="curve" smooth="yes"/>
      <point x="321" y="690"/>
      <point x="345" y="713"/>
      <point x="352" y="747" type="curve" smooth="yes"/>
      <point x="353.02" y="751.464"/>
      <point x="353.52" y="755.863"/>
      <point x="353.52" y="760.141" type="curve" smooth="yes"/>
      <point x="353.52" y="789.403"/>
      <point x="330.133" y="813"/>
      <point x="290" y="813" type="curve" smooth="yes"/>
      <point x="255" y="813"/>
      <point x="218" y="789"/>
      <point x="201" y="776" type="curve" smooth="yes"/>
      <point x="188" y="766"/>
      <point x="184" y="761"/>
      <point x="178" y="761" type="curve" smooth="yes"/>
      <point x="171" y="761"/>
      <point x="166" y="767"/>
      <point x="167" y="775" type="curve" smooth="yes"/>
      <point x="168" y="779"/>
      <point x="170" y="782"/>
      <point x="175" y="786" type="curve" smooth="yes"/>
      <point x="196" y="805"/>
      <point x="242" y="840"/>
      <point x="295" y="840" type="curve" smooth="yes"/>
      <point x="342.522" y="840"/>
      <point x="382.299" y="814.443"/>
      <point x="382.299" y="767.418" type="curve" smooth="yes"/>
      <point x="382.299" y="761.008"/>
      <point x="381.56" y="754.198"/>
      <point x="380" y="747" type="curve" smooth="yes"/>
      <point x="368" y="688"/>
      <point x="317" y="655"/>
      <point x="268" y="630" type="curve" smooth="yes"/>
      <point x="216" y="602"/>
      <point x="153" y="557"/>
      <point x="139" y="490" type="curve"/>
      <point x="317" y="490" type="line" smooth="yes"/>
      <point x="324" y="490"/>
      <point x="330" y="485"/>
      <point x="327" y="475" type="curve"/>
      <point x="326" y="468"/>
      <point x="318" y="462"/>
    </contour>
  </outline>
</glyph>
<glyph name="threesuperior" format="1">
  <advance width="226"/>
  <unicode hex="00B3"/>
  <outline>
    <contour>
      <point x="213" y="794" type="curve" smooth="yes"/>
      <point x="207" y="790"/>
      <point x="203" y="789"/>
      <point x="200" y="789" type="curve" smooth="yes"/>
      <point x="194" y="789"/>
      <point x="188" y="794"/>
      <point x="190" y="802" type="curve" smooth="yes"/>
      <point x="194" y="821"/>
      <point x="242" y="844"/>
      <point x="293" y="844" type="curve" smooth="yes"/>
      <point x="340.242" y="844"/>
      <point x="381.923" y="820.164"/>
      <point x="381.923" y="777.45" type="curve" smooth="yes"/>
      <point x="381.923" y="772.244"/>
      <point x="381.304" y="766.758"/>
      <point x="380" y="761" type="curve" smooth="yes"/>
      <point x="373" y="728"/>
      <point x="342" y="696"/>
      <point x="300" y="677" type="curve"/>
      <point x="336.953" y="659.703"/>
      <point x="352.27" y="632.515"/>
      <point x="352.27" y="600.298" type="curve" smooth="yes"/>
      <point x="352.27" y="591.538"/>
      <point x="351.138" y="582.406"/>
      <point x="349" y="573" type="curve"/>
      <point x="335" y="504"/>
      <point x="271" y="458"/>
      <point x="210" y="458" type="curve" smooth="yes"/>
      <point x="151" y="458"/>
      <point x="125" y="493"/>
      <point x="116" y="518" type="curve" smooth="yes"/>
      <point x="114" y="522"/>
      <point x="114" y="525"/>
      <point x="115" y="529" type="curve" smooth="yes"/>
      <point x="117" y="537"/>
      <point x="123" y="543"/>
      <point x="132" y="543" type="curve" smooth="yes"/>
      <point x="137" y="543"/>
      <point x="140" y="541"/>
      <point x="142" y="537" type="curve" smooth="yes"/>
      <point x="155" y="503"/>
      <point x="181" y="486"/>
      <point x="216" y="486" type="curve" smooth="yes"/>
      <point x="250" y="486"/>
      <point x="308" y="509"/>
      <point x="321" y="573" type="curve" smooth="yes"/>
      <point x="322.706" y="580.849"/>
      <point x="323.626" y="588.436"/>
      <point x="323.626" y="595.651" type="curve" smooth="yes"/>
      <point x="323.626" y="630.724"/>
      <point x="301.885" y="657.024"/>
      <point x="243" y="662" type="curve" smooth="yes"/>
      <point x="235" y="663"/>
      <point x="230" y="667"/>
      <point x="232" y="675" type="curve" smooth="yes"/>
      <point x="234" y="686"/>
      <point x="241" y="689"/>
      <point x="249" y="690" type="curve" smooth="yes"/>
      <point x="287" y="692"/>
      <point x="343" y="715"/>
      <point x="353" y="761" type="curve" smooth="yes"/>
      <point x="353.779" y="764.377"/>
      <point x="354.146" y="767.582"/>
      <point x="354.146" y="770.618" type="curve" smooth="yes"/>
      <point x="354.146" y="802.651"/>
      <point x="313.316" y="816"/>
      <point x="285" y="816" type="curve" smooth="yes"/>
      <point x="245" y="816"/>
      <point x="227" y="804"/>
    </contour>
  </outline>
</glyph>
<glyph name="periodcentered" format="1">
  <advance width="162"/>
  <unicode hex="00B7"/>
  <outline>
    <contour>
      <point x="125" y="219" type="curve" smooth="yes"/>
      <point x="113.355" y="219"/>
      <point x="107.245" y="227.994"/>
      <point x="107.245" y="240.227" type="curve" smooth="yes"/>
      <point x="107.245" y="242.701"/>
      <point x="107.495" y="245.308"/>
      <point x="108" y="248" type="curve" smooth="yes"/>
      <point x="112" y="267"/>
      <point x="130" y="284"/>
      <point x="147" y="284" type="curve" smooth="yes"/>
      <point x="157.286" y="284"/>
      <point x="164.633" y="275.184"/>
      <point x="164.633" y="263.219" type="curve" smooth="yes"/>
      <point x="164.633" y="261.224"/>
      <point x="164.429" y="259.143"/>
      <point x="164" y="257" type="curve" smooth="yes"/>
      <point x="160" y="237"/>
      <point x="141" y="219"/>
    </contour>
  </outline>
</glyph>
<glyph name="cedilla" format="1">
  <advance width="490"/>
  <unicode hex="00B8"/>
  <outline>
    <contour>
      <point x="204" y="-9" type="curve" smooth="yes"/>
      <point x="219" y="17"/>
      <point x="222" y="23"/>
      <point x="225" y="23" type="curve" smooth="yes"/>
      <point x="227" y="23"/>
      <point x="228" y="21"/>
      <point x="226" y="13" type="curve" smooth="yes"/>
      <point x="213" y="-41" type="line"/>
      <point x="274.525" y="-41"/>
      <point x="303.01" y="-68.7836"/>
      <point x="303.01" y="-105.481" type="curve" smooth="yes"/>
      <point x="303.01" y="-111.132"/>
      <point x="302.335" y="-116.995"/>
      <point x="301" y="-123" type="curve" smooth="yes"/>
      <point x="291" y="-170"/>
      <point x="246" y="-209"/>
      <point x="199" y="-209" type="curve" smooth="yes"/>
      <point x="170.256" y="-209"/>
      <point x="136.354" y="-191.805"/>
      <point x="136.354" y="-168.577" type="curve" smooth="yes"/>
      <point x="136.354" y="-166.753"/>
      <point x="136.563" y="-164.892"/>
      <point x="137" y="-163" type="curve" smooth="yes"/>
      <point x="138" y="-157"/>
      <point x="144" y="-154"/>
      <point x="149" y="-154" type="curve" smooth="yes"/>
      <point x="154" y="-154"/>
      <point x="156" y="-159"/>
      <point x="159" y="-164" type="curve" smooth="yes"/>
      <point x="166" y="-174"/>
      <point x="175" y="-187"/>
      <point x="204" y="-187" type="curve" smooth="yes"/>
      <point x="238" y="-187"/>
      <point x="271" y="-159"/>
      <point x="278" y="-125" type="curve" smooth="yes"/>
      <point x="278.906" y="-120.597"/>
      <point x="279.343" y="-116.312"/>
      <point x="279.343" y="-112.187" type="curve" smooth="yes"/>
      <point x="279.343" y="-84.4602"/>
      <point x="259.597" y="-64"/>
      <point x="230" y="-64" type="curve" smooth="yes"/>
      <point x="212" y="-64"/>
      <point x="200" y="-70"/>
      <point x="192" y="-75" type="curve" smooth="yes"/>
      <point x="187" y="-78"/>
      <point x="184" y="-79"/>
      <point x="182" y="-79" type="curve" smooth="yes"/>
      <point x="176" y="-79"/>
      <point x="172" y="-75"/>
      <point x="173" y="-69" type="curve" smooth="yes"/>
      <point x="174" y="-65"/>
      <point x="199" y="-18"/>
    </contour>
  </outline>
</glyph>
<glyph name="questiondown" format="1">
  <advance width="523"/>
  <unicode hex="00BF"/>
  <outline>
    <contour>
      <point x="247" y="229" type="curve" smooth="yes"/>
      <point x="392" y="337" type="line" smooth="yes"/>
      <point x="397" y="340"/>
      <point x="401" y="343"/>
      <point x="405" y="343" type="curve" smooth="yes"/>
      <point x="415" y="343"/>
      <point x="421" y="334"/>
      <point x="420" y="325" type="curve" smooth="yes"/>
      <point x="419" y="320"/>
      <point x="416" y="316"/>
      <point x="411" y="312" type="curve" smooth="yes"/>
      <point x="261" y="199" type="line" smooth="yes"/>
      <point x="185" y="142"/>
      <point x="115" y="88"/>
      <point x="98" y="9" type="curve" smooth="yes"/>
      <point x="95.2124" y="-4.28195"/>
      <point x="93.6886" y="-17.7521"/>
      <point x="93.6886" y="-30.9917" type="curve" smooth="yes"/>
      <point x="93.6886" y="-98.4934"/>
      <point x="133.301" y="-160"/>
      <point x="247" y="-160" type="curve" smooth="yes"/>
      <point x="321" y="-160"/>
      <point x="378" y="-115"/>
      <point x="418" y="-78" type="curve" smooth="yes"/>
      <point x="420" y="-76"/>
      <point x="425" y="-73"/>
      <point x="431" y="-73" type="curve" smooth="yes"/>
      <point x="441" y="-73"/>
      <point x="447" y="-81"/>
      <point x="446" y="-89" type="curve" smooth="yes"/>
      <point x="444" y="-98"/>
      <point x="432" y="-109"/>
      <point x="420" y="-120" type="curve" smooth="yes"/>
      <point x="381" y="-155"/>
      <point x="316" y="-195"/>
      <point x="240" y="-195" type="curve" smooth="yes"/>
      <point x="126.862" y="-195"/>
      <point x="57.7317" y="-133.837"/>
      <point x="57.7317" y="-38.5675" type="curve" smooth="yes"/>
      <point x="57.7317" y="-23.5263"/>
      <point x="59.4548" y="-7.635"/>
      <point x="63" y="9" type="curve" smooth="yes"/>
      <point x="87" y="120"/>
      <point x="185" y="183"/>
    </contour>
    <contour>
      <point x="469" y="501" type="curve" smooth="yes"/>
      <point x="479.988" y="501"/>
      <point x="486.689" y="490.999"/>
      <point x="486.689" y="478.846" type="curve" smooth="yes"/>
      <point x="486.689" y="476.62"/>
      <point x="486.464" y="474.322"/>
      <point x="486" y="472" type="curve" smooth="yes"/>
      <point x="482" y="453"/>
      <point x="463" y="435"/>
      <point x="446" y="435" type="curve" smooth="yes"/>
      <point x="435.714" y="435"/>
      <point x="428.367" y="444.551"/>
      <point x="428.367" y="456.096" type="curve" smooth="yes"/>
      <point x="428.367" y="458.02"/>
      <point x="428.571" y="460"/>
      <point x="429" y="462" type="curve" smooth="yes"/>
      <point x="433" y="483"/>
      <point x="452" y="501"/>
    </contour>
  </outline>
</glyph>
<glyph name="Atilde" format="1">
  <advance width="614"/>
  <unicode hex="00C3"/>
  <outline>
    <contour>
      <point x="646" y="844" type="curve" smooth="yes"/>
      <point x="649" y="850"/>
      <point x="655" y="855"/>
      <point x="664" y="855" type="curve" smooth="yes"/>
      <point x="673" y="855"/>
      <point x="677" y="849"/>
      <point x="675" y="841" type="curve" smooth="yes"/>
      <point x="667" y="803"/>
      <point x="604" y="735"/>
      <point x="550" y="735" type="curve" smooth="yes"/>
      <point x="509" y="735"/>
      <point x="494" y="766"/>
      <point x="481" y="792" type="curve" smooth="yes"/>
      <point x="463" y="829"/>
      <point x="454" y="842"/>
      <point x="434" y="842" type="curve" smooth="yes"/>
      <point x="418" y="842"/>
      <point x="376" y="829"/>
      <point x="346" y="771" type="curve" smooth="yes"/>
      <point x="341" y="762"/>
      <point x="336" y="758"/>
      <point x="329" y="758" type="curve" smooth="yes"/>
      <point x="319" y="758"/>
      <point x="317" y="766"/>
      <point x="319" y="774" type="curve" smooth="yes"/>
      <point x="328" y="816"/>
      <point x="393" y="869"/>
      <point x="440" y="869" type="curve" smooth="yes"/>
      <point x="481" y="869"/>
      <point x="496" y="839"/>
      <point x="509" y="811" type="curve" smooth="yes"/>
      <point x="521" y="786"/>
      <point x="536" y="761"/>
      <point x="557" y="761" type="curve" smooth="yes"/>
      <point x="595" y="761"/>
      <point x="627" y="812"/>
    </contour>
    <contour>
      <point x="58" y="27" type="curve" smooth="yes"/>
      <point x="165" y="203" type="line"/>
      <point x="126" y="194" type="line"/>
      <point x="113" y="192"/>
      <point x="107" y="202"/>
      <point x="110" y="212" type="curve" smooth="yes"/>
      <point x="112" y="222"/>
      <point x="120" y="229"/>
      <point x="129" y="231" type="curve" smooth="yes"/>
      <point x="190" y="244" type="line"/>
      <point x="452" y="677" type="line" smooth="yes"/>
      <point x="457" y="684"/>
      <point x="465" y="689"/>
      <point x="474" y="689" type="curve" smooth="yes"/>
      <point x="484" y="689"/>
      <point x="489" y="683"/>
      <point x="489" y="677" type="curve"/>
      <point x="574" y="32" type="line" smooth="yes"/>
      <point x="575" y="23"/>
      <point x="574" y="18"/>
      <point x="574" y="15" type="curve"/>
      <point x="571" y="4"/>
      <point x="560" y="-1"/>
      <point x="549" y="-1" type="curve" smooth="yes"/>
      <point x="541" y="-1"/>
      <point x="536" y="3"/>
      <point x="535" y="11" type="curve" smooth="yes"/>
      <point x="501" y="272" type="line"/>
      <point x="211" y="211" type="line"/>
      <point x="91" y="11" type="line" smooth="yes"/>
      <point x="86" y="4"/>
      <point x="80" y="0"/>
      <point x="72" y="0" type="curve" smooth="yes"/>
      <point x="60" y="0"/>
      <point x="52" y="8"/>
      <point x="54" y="18" type="curve" smooth="yes"/>
      <point x="55" y="21"/>
      <point x="57" y="25"/>
    </contour>
    <contour>
      <point x="237" y="253" type="line"/>
      <point x="496" y="307" type="line"/>
      <point x="455" y="614" type="line"/>
    </contour>
  </outline>
</glyph>
<glyph name="Adieresis" format="1">
  <advance width="614"/>
  <unicode hex="00C4"/>
  <outline>
    <contour>
      <point x="450" y="790" type="curve" smooth="yes"/>
      <point x="446" y="771"/>
      <point x="424" y="755"/>
      <point x="401" y="755" type="curve" smooth="yes"/>
      <point x="382.927" y="755"/>
      <point x="370.57" y="765.615"/>
      <point x="370.57" y="780.205" type="curve" smooth="yes"/>
      <point x="370.57" y="803.005"/>
      <point x="396.791" y="820"/>
      <point x="421" y="820" type="curve" smooth="yes"/>
      <point x="437.013" y="820"/>
      <point x="450.652" y="809.712"/>
      <point x="450.652" y="795.472" type="curve" smooth="yes"/>
      <point x="450.652" y="793.705"/>
      <point x="450.442" y="791.877"/>
    </contour>
    <contour>
      <point x="614" y="790" type="curve" smooth="yes"/>
      <point x="610" y="771"/>
      <point x="588" y="755"/>
      <point x="564" y="755" type="curve" smooth="yes"/>
      <point x="546.732" y="755"/>
      <point x="533.594" y="765.738"/>
      <point x="533.594" y="780.457" type="curve" smooth="yes"/>
      <point x="533.594" y="803.122"/>
      <point x="560.91" y="820"/>
      <point x="585" y="820" type="curve" smooth="yes"/>
      <point x="601.013" y="820"/>
      <point x="614.652" y="809.712"/>
      <point x="614.652" y="795.472" type="curve" smooth="yes"/>
      <point x="614.652" y="793.705"/>
      <point x="614.442" y="791.877"/>
    </contour>
    <contour>
      <point x="58" y="27" type="curve" smooth="yes"/>
      <point x="165" y="203" type="line"/>
      <point x="126" y="194" type="line"/>
      <point x="113" y="192"/>
      <point x="107" y="202"/>
      <point x="110" y="212" type="curve" smooth="yes"/>
      <point x="112" y="222"/>
      <point x="120" y="229"/>
      <point x="129" y="231" type="curve" smooth="yes"/>
      <point x="190" y="244" type="line"/>
      <point x="452" y="677" type="line" smooth="yes"/>
      <point x="457" y="684"/>
      <point x="465" y="689"/>
      <point x="474" y="689" type="curve" smooth="yes"/>
      <point x="484" y="689"/>
      <point x="489" y="683"/>
      <point x="489" y="677" type="curve"/>
      <point x="574" y="32" type="line" smooth="yes"/>
      <point x="575" y="23"/>
      <point x="574" y="18"/>
      <point x="574" y="15" type="curve"/>
      <point x="571" y="4"/>
      <point x="560" y="-1"/>
      <point x="549" y="-1" type="curve" smooth="yes"/>
      <point x="541" y="-1"/>
      <point x="536" y="3"/>
      <point x="535" y="11" type="curve" smooth="yes"/>
      <point x="501" y="272" type="line"/>
      <point x="211" y="211" type="line"/>
      <point x="91" y="11" type="line" smooth="yes"/>
      <point x="86" y="4"/>
      <point x="80" y="0"/>
      <point x="72" y="0" type="curve" smooth="yes"/>
      <point x="60" y="0"/>
      <point x="52" y="8"/>
      <point x="54" y="18" type="curve" smooth="yes"/>
      <point x="55" y="21"/>
      <point x="57" y="25"/>
    </contour>
    <contour>
      <point x="237" y="253" type="line"/>
      <point x="496" y="307" type="line"/>
      <point x="455" y="614" type="line"/>
    </contour>
  </outline>
</glyph>
<glyph name="Ccedilla" format="1">
  <advance width="622"/>
  <unicode hex="00C7"/>
  <outline>
    <contour>
      <point x="288" y="2" type="curve"/>
      <point x="179.422" y="22.3584"/>
      <point x="106.822" y="110.355"/>
      <point x="106.822" y="228.757" type="curve" smooth="yes"/>
      <point x="106.822" y="249.936"/>
      <point x="109.145" y="272.088"/>
      <point x="114" y="295" type="curve" smooth="yes"/>
      <point x="158" y="500"/>
      <point x="355" y="684"/>
      <point x="492" y="684" type="curve" smooth="yes"/>
      <point x="561" y="684"/>
      <point x="606" y="661"/>
      <point x="636" y="639" type="curve"/>
      <point x="644" y="650"/>
      <point x="654" y="658"/>
      <point x="662" y="658" type="curve" smooth="yes"/>
      <point x="672" y="658"/>
      <point x="679" y="650"/>
      <point x="677" y="640" type="curve" smooth="yes"/>
      <point x="663" y="574" type="line"/>
      <point x="660" y="564"/>
      <point x="649" y="554"/>
      <point x="639" y="554" type="curve" smooth="yes"/>
      <point x="629" y="554"/>
      <point x="622" y="564"/>
      <point x="625" y="574" type="curve"/>
      <point x="626" y="583" type="line"/>
      <point x="610" y="607"/>
      <point x="575" y="646"/>
      <point x="484" y="646" type="curve" smooth="yes"/>
      <point x="363" y="646"/>
      <point x="189" y="469"/>
      <point x="152" y="295" type="curve" smooth="yes"/>
      <point x="147.307" y="272.74"/>
      <point x="145.148" y="252.088"/>
      <point x="145.148" y="232.978" type="curve" smooth="yes"/>
      <point x="145.148" y="93.2637"/>
      <point x="260.551" y="36"/>
      <point x="345" y="36" type="curve" smooth="yes"/>
      <point x="421" y="36"/>
      <point x="503" y="68"/>
      <point x="574" y="138" type="curve" smooth="yes"/>
      <point x="579" y="142"/>
      <point x="584" y="145"/>
      <point x="589" y="145" type="curve" smooth="yes"/>
      <point x="599" y="145"/>
      <point x="608" y="139"/>
      <point x="605" y="127" type="curve"/>
      <point x="605" y="123"/>
      <point x="602" y="118"/>
      <point x="599" y="115" type="curve" smooth="yes"/>
      <point x="527" y="40"/>
      <point x="433" y="-2"/>
      <point x="337" y="-2" type="curve" smooth="yes"/>
      <point x="324" y="-2"/>
      <point x="312" y="-1"/>
      <point x="301" y="0" type="curve"/>
      <point x="291" y="-41" type="line"/>
      <point x="352.525" y="-41"/>
      <point x="381.01" y="-68.7836"/>
      <point x="381.01" y="-105.481" type="curve" smooth="yes"/>
      <point x="381.01" y="-111.132"/>
      <point x="380.335" y="-116.995"/>
      <point x="379" y="-123" type="curve" smooth="yes"/>
      <point x="369" y="-170"/>
      <point x="324" y="-209"/>
      <point x="277" y="-209" type="curve" smooth="yes"/>
      <point x="248.256" y="-209"/>
      <point x="214.354" y="-191.805"/>
      <point x="214.354" y="-168.577" type="curve" smooth="yes"/>
      <point x="214.354" y="-166.753"/>
      <point x="214.563" y="-164.892"/>
      <point x="215" y="-163" type="curve" smooth="yes"/>
      <point x="216" y="-157"/>
      <point x="222" y="-154"/>
      <point x="227" y="-154" type="curve" smooth="yes"/>
      <point x="232" y="-154"/>
      <point x="234" y="-159"/>
      <point x="237" y="-164" type="curve" smooth="yes"/>
      <point x="244" y="-174"/>
      <point x="253" y="-187"/>
      <point x="282" y="-187" type="curve" smooth="yes"/>
      <point x="316" y="-187"/>
      <point x="349" y="-159"/>
      <point x="356" y="-125" type="curve" smooth="yes"/>
      <point x="356.906" y="-120.597"/>
      <point x="357.343" y="-116.312"/>
      <point x="357.343" y="-112.187" type="curve" smooth="yes"/>
      <point x="357.343" y="-84.4602"/>
      <point x="337.597" y="-64"/>
      <point x="308" y="-64" type="curve" smooth="yes"/>
      <point x="290" y="-64"/>
      <point x="278" y="-70"/>
      <point x="270" y="-75" type="curve" smooth="yes"/>
      <point x="265" y="-78"/>
      <point x="262" y="-79"/>
      <point x="259" y="-79" type="curve" smooth="yes"/>
      <point x="252" y="-79"/>
      <point x="250" y="-74"/>
      <point x="251" y="-70" type="curve" smooth="yes"/>
      <point x="252" y="-64"/>
      <point x="282" y="-8"/>
    </contour>
  </outline>
</glyph>
<glyph name="Ecircumflex" format="1">
  <advance width="600"/>
  <unicode hex="00CA"/>
  <outline>
    <contour>
      <point x="519" y="902" type="curve" smooth="yes"/>
      <point x="524" y="902"/>
      <point x="530" y="900"/>
      <point x="533" y="896" type="curve" smooth="yes"/>
      <point x="621" y="783" type="line" smooth="yes"/>
      <point x="624" y="779"/>
      <point x="625" y="776"/>
      <point x="624" y="771" type="curve" smooth="yes"/>
      <point x="622" y="762"/>
      <point x="613" y="753"/>
      <point x="604" y="753" type="curve" smooth="yes"/>
      <point x="599" y="753"/>
      <point x="595" y="755"/>
      <point x="592" y="758" type="curve" smooth="yes"/>
      <point x="507" y="853" type="line"/>
      <point x="362" y="757" type="line" smooth="yes"/>
      <point x="359" y="755"/>
      <point x="355" y="753"/>
      <point x="351" y="753" type="curve" smooth="yes"/>
      <point x="341" y="753"/>
      <point x="334" y="762"/>
      <point x="336" y="771" type="curve" smooth="yes"/>
      <point x="337" y="776"/>
      <point x="342" y="781"/>
      <point x="346" y="784" type="curve" smooth="yes"/>
      <point x="505" y="897" type="line" smooth="yes"/>
      <point x="510" y="900"/>
      <point x="515" y="902"/>
    </contour>
    <contour>
      <point x="114" y="38" type="line"/>
      <point x="534" y="38" type="line" smooth="yes"/>
      <point x="544" y="38"/>
      <point x="551" y="30"/>
      <point x="549" y="20" type="curve" smooth="yes"/>
      <point x="546" y="9"/>
      <point x="536" y="0"/>
      <point x="526" y="0" type="curve" smooth="yes"/>
      <point x="87" y="0" type="line" smooth="yes"/>
      <point x="77" y="0"/>
      <point x="69" y="9"/>
      <point x="72" y="20" type="curve"/>
      <point x="209" y="664" type="line" smooth="yes"/>
      <point x="211" y="674"/>
      <point x="221" y="682"/>
      <point x="231" y="682" type="curve" smooth="yes"/>
      <point x="672" y="682" type="line" smooth="yes"/>
      <point x="682" y="682"/>
      <point x="690" y="674"/>
      <point x="688" y="664" type="curve" smooth="yes"/>
      <point x="685" y="653"/>
      <point x="674" y="644"/>
      <point x="664" y="644" type="curve" smooth="yes"/>
      <point x="242" y="644" type="line"/>
      <point x="185" y="372" type="line"/>
      <point x="557" y="372" type="line" smooth="yes"/>
      <point x="567" y="372"/>
      <point x="573" y="364"/>
      <point x="571" y="353" type="curve"/>
      <point x="568" y="343"/>
      <point x="558" y="334"/>
      <point x="548" y="334" type="curve" smooth="yes"/>
      <point x="176" y="334" type="line"/>
    </contour>
  </outline>
</glyph>
<glyph name="Edieresis" format="1">
  <advance width="600"/>
  <unicode hex="00CB"/>
  <outline>
    <contour>
      <point x="437" y="790" type="curve" smooth="yes"/>
      <point x="433" y="771"/>
      <point x="411" y="755"/>
      <point x="387" y="755" type="curve" smooth="yes"/>
      <point x="369.732" y="755"/>
      <point x="356.594" y="765.738"/>
      <point x="356.594" y="780.457" type="curve" smooth="yes"/>
      <point x="356.594" y="803.066"/>
      <point x="383.925" y="820"/>
      <point x="407" y="820" type="curve" smooth="yes"/>
      <point x="423.909" y="820"/>
      <point x="437.65" y="809.704"/>
      <point x="437.65" y="795.455" type="curve" smooth="yes"/>
      <point x="437.65" y="793.693"/>
      <point x="437.44" y="791.871"/>
    </contour>
    <contour>
      <point x="600" y="790" type="curve" smooth="yes"/>
      <point x="596" y="771"/>
      <point x="575" y="755"/>
      <point x="551" y="755" type="curve" smooth="yes"/>
      <point x="533.732" y="755"/>
      <point x="520.594" y="765.738"/>
      <point x="520.594" y="780.457" type="curve" smooth="yes"/>
      <point x="520.594" y="803.066"/>
      <point x="547.925" y="820"/>
      <point x="571" y="820" type="curve" smooth="yes"/>
      <point x="587.797" y="820"/>
      <point x="600.686" y="809.84"/>
      <point x="600.686" y="795.739" type="curve" smooth="yes"/>
      <point x="600.686" y="793.889"/>
      <point x="600.464" y="791.971"/>
    </contour>
    <contour>
      <point x="114" y="38" type="line"/>
      <point x="534" y="38" type="line" smooth="yes"/>
      <point x="544" y="38"/>
      <point x="551" y="30"/>
      <point x="549" y="20" type="curve" smooth="yes"/>
      <point x="546" y="9"/>
      <point x="536" y="0"/>
      <point x="526" y="0" type="curve" smooth="yes"/>
      <point x="87" y="0" type="line" smooth="yes"/>
      <point x="77" y="0"/>
      <point x="69" y="9"/>
      <point x="72" y="20" type="curve"/>
      <point x="209" y="664" type="line" smooth="yes"/>
      <point x="211" y="674"/>
      <point x="221" y="682"/>
      <point x="231" y="682" type="curve" smooth="yes"/>
      <point x="672" y="682" type="line" smooth="yes"/>
      <point x="682" y="682"/>
      <point x="690" y="674"/>
      <point x="688" y="664" type="curve" smooth="yes"/>
      <point x="685" y="653"/>
      <point x="674" y="644"/>
      <point x="664" y="644" type="curve" smooth="yes"/>
      <point x="242" y="644" type="line"/>
      <point x="185" y="372" type="line"/>
      <point x="557" y="372" type="line" smooth="yes"/>
      <point x="567" y="372"/>
      <point x="573" y="364"/>
      <point x="571" y="353" type="curve"/>
      <point x="568" y="343"/>
      <point x="558" y="334"/>
      <point x="548" y="334" type="curve" smooth="yes"/>
      <point x="176" y="334" type="line"/>
    </contour>
  </outline>
</glyph>
<glyph name="Iacute" format="1">
  <advance width="423"/>
  <unicode hex="00CD"/>
  <outline>
    <contour>
      <point x="242" y="37" type="line"/>
      <point x="354" y="37" type="line" smooth="yes"/>
      <point x="366" y="37"/>
      <point x="372" y="29"/>
      <point x="370" y="19" type="curve" smooth="yes"/>
      <point x="367" y="8"/>
      <point x="356" y="-1"/>
      <point x="346" y="-1" type="curve" smooth="yes"/>
      <point x="82" y="-1" type="line" smooth="yes"/>
      <point x="72" y="-1"/>
      <point x="65" y="8"/>
      <point x="68" y="19" type="curve" smooth="yes"/>
      <point x="70" y="29"/>
      <point x="80" y="37"/>
      <point x="90" y="37" type="curve" smooth="yes"/>
      <point x="204" y="37" type="line"/>
      <point x="333" y="643" type="line"/>
      <point x="219" y="643" type="line" smooth="yes"/>
      <point x="209" y="643"/>
      <point x="202" y="652"/>
      <point x="204" y="662" type="curve" smooth="yes"/>
      <point x="207" y="673"/>
      <point x="217" y="681"/>
      <point x="227" y="681" type="curve" smooth="yes"/>
      <point x="491" y="681" type="line" smooth="yes"/>
      <point x="501" y="681"/>
      <point x="509" y="673"/>
      <point x="506" y="662" type="curve" smooth="yes"/>
      <point x="504" y="652"/>
      <point x="493" y="643"/>
      <point x="483" y="643" type="curve" smooth="yes"/>
      <point x="371" y="643" type="line"/>
    </contour>
    <contour>
      <point x="500" y="857" type="curve" smooth="yes"/>
      <point x="336" y="759" type="line" smooth="yes"/>
      <point x="328" y="754"/>
      <point x="322" y="752"/>
      <point x="318" y="752" type="curve" smooth="yes"/>
      <point x="309" y="752"/>
      <point x="303" y="760"/>
      <point x="305" y="769" type="curve" smooth="yes"/>
      <point x="306" y="772"/>
      <point x="307" y="777"/>
      <point x="314" y="782" type="curve" smooth="yes"/>
      <point x="464" y="886" type="line" smooth="yes"/>
      <point x="474" y="893"/>
      <point x="483" y="900"/>
      <point x="493" y="900" type="curve" smooth="yes"/>
      <point x="502.655" y="900"/>
      <point x="511.539" y="889.985"/>
      <point x="511.539" y="878.069" type="curve" smooth="yes"/>
      <point x="511.539" y="876.409"/>
      <point x="511.367" y="874.712"/>
      <point x="511" y="873" type="curve" smooth="yes"/>
      <point x="510" y="866"/>
      <point x="508" y="862"/>
    </contour>
  </outline>
</glyph>
<glyph name="Icircumflex" format="1">
  <advance width="423"/>
  <unicode hex="00CE"/>
  <outline>
    <contour>
      <point x="423" y="902" type="curve" smooth="yes"/>
      <point x="428" y="902"/>
      <point x="434" y="900"/>
      <point x="437" y="896" type="curve" smooth="yes"/>
      <point x="525" y="783" type="line" smooth="yes"/>
      <point x="528" y="779"/>
      <point x="529" y="776"/>
      <point x="528" y="771" type="curve" smooth="yes"/>
      <point x="526" y="762"/>
      <point x="517" y="753"/>
      <point x="508" y="753" type="curve" smooth="yes"/>
      <point x="503" y="753"/>
      <point x="499" y="755"/>
      <point x="496" y="758" type="curve" smooth="yes"/>
      <point x="411" y="853" type="line"/>
      <point x="266" y="757" type="line" smooth="yes"/>
      <point x="263" y="755"/>
      <point x="259" y="753"/>
      <point x="255" y="753" type="curve" smooth="yes"/>
      <point x="245" y="753"/>
      <point x="238" y="762"/>
      <point x="240" y="771" type="curve" smooth="yes"/>
      <point x="241" y="776"/>
      <point x="246" y="781"/>
      <point x="250" y="784" type="curve" smooth="yes"/>
      <point x="409" y="897" type="line" smooth="yes"/>
      <point x="414" y="900"/>
      <point x="419" y="902"/>
    </contour>
    <contour>
      <point x="242" y="37" type="line"/>
      <point x="354" y="37" type="line" smooth="yes"/>
      <point x="366" y="37"/>
      <point x="372" y="29"/>
      <point x="370" y="19" type="curve" smooth="yes"/>
      <point x="367" y="8"/>
      <point x="356" y="-1"/>
      <point x="346" y="-1" type="curve" smooth="yes"/>
      <point x="82" y="-1" type="line" smooth="yes"/>
      <point x="72" y="-1"/>
      <point x="65" y="8"/>
      <point x="68" y="19" type="curve" smooth="yes"/>
      <point x="70" y="29"/>
      <point x="80" y="37"/>
      <point x="90" y="37" type="curve" smooth="yes"/>
      <point x="204" y="37" type="line"/>
      <point x="333" y="643" type="line"/>
      <point x="219" y="643" type="line" smooth="yes"/>
      <point x="209" y="643"/>
      <point x="202" y="652"/>
      <point x="204" y="662" type="curve" smooth="yes"/>
      <point x="207" y="673"/>
      <point x="217" y="681"/>
      <point x="227" y="681" type="curve" smooth="yes"/>
      <point x="491" y="681" type="line" smooth="yes"/>
      <point x="501" y="681"/>
      <point x="509" y="673"/>
      <point x="506" y="662" type="curve" smooth="yes"/>
      <point x="504" y="652"/>
      <point x="493" y="643"/>
      <point x="483" y="643" type="curve" smooth="yes"/>
      <point x="371" y="643" type="line"/>
    </contour>
  </outline>
</glyph>
<glyph name="Ograve" format="1">
  <advance width="650"/>
  <unicode hex="00D2"/>
  <outline>
    <contour>
      <point x="307" y="-2" type="curve" smooth="yes"/>
      <point x="188.556" y="-2"/>
      <point x="118.821" y="96.7914"/>
      <point x="118.821" y="227.321" type="curve" smooth="yes"/>
      <point x="118.821" y="254.383"/>
      <point x="121.818" y="282.808"/>
      <point x="128" y="312" type="curve" smooth="yes"/>
      <point x="171" y="513"/>
      <point x="340" y="682"/>
      <point x="496" y="682" type="curve" smooth="yes"/>
      <point x="613.989" y="682"/>
      <point x="685.03" y="583.963"/>
      <point x="685.03" y="452.138" type="curve" smooth="yes"/>
      <point x="685.03" y="425.311"/>
      <point x="682.087" y="397.084"/>
      <point x="676" y="368" type="curve" smooth="yes"/>
      <point x="633" y="167"/>
      <point x="463" y="-2"/>
    </contour>
    <contour>
      <point x="481" y="649" type="curve" smooth="yes"/>
      <point x="350" y="649"/>
      <point x="202" y="500"/>
      <point x="162" y="312" type="curve" smooth="yes"/>
      <point x="156.078" y="284.545"/>
      <point x="153.216" y="257.894"/>
      <point x="153.216" y="232.644" type="curve" smooth="yes"/>
      <point x="153.216" y="117.183"/>
      <point x="213.072" y="31"/>
      <point x="314" y="31" type="curve" smooth="yes"/>
      <point x="446" y="31"/>
      <point x="602" y="183"/>
      <point x="641" y="364" type="curve" smooth="yes"/>
      <point x="646.053" y="388.252"/>
      <point x="648.524" y="412.42"/>
      <point x="648.524" y="435.843" type="curve" smooth="yes"/>
      <point x="648.524" y="551.495"/>
      <point x="588.274" y="649"/>
    </contour>
    <contour>
      <point x="506" y="901" type="curve" smooth="yes"/>
      <point x="586" y="765" type="line" smooth="yes"/>
      <point x="589" y="760"/>
      <point x="590" y="756"/>
      <point x="589" y="752" type="curve" smooth="yes"/>
      <point x="587" y="742"/>
      <point x="576" y="736"/>
      <point x="567" y="736" type="curve" smooth="yes"/>
      <point x="563" y="736"/>
      <point x="558" y="738"/>
      <point x="555" y="742" type="curve" smooth="yes"/>
      <point x="459" y="868" type="line" smooth="yes"/>
      <point x="455" y="874"/>
      <point x="454" y="880"/>
      <point x="455" y="887" type="curve" smooth="yes"/>
      <point x="458" y="901"/>
      <point x="473" y="912"/>
      <point x="487" y="912" type="curve" smooth="yes"/>
      <point x="495" y="912"/>
      <point x="502" y="909"/>
    </contour>
  </outline>
</glyph>
<glyph name="Ocircumflex" format="1">
  <advance width="650"/>
  <unicode hex="00D4"/>
  <outline>
    <contour>
      <point x="307" y="-2" type="curve" smooth="yes"/>
      <point x="188.556" y="-2"/>
      <point x="118.821" y="96.7914"/>
      <point x="118.821" y="227.321" type="curve" smooth="yes"/>
      <point x="118.821" y="254.383"/>
      <point x="121.818" y="282.808"/>
      <point x="128" y="312" type="curve" smooth="yes"/>
      <point x="171" y="513"/>
      <point x="340" y="682"/>
      <point x="496" y="682" type="curve" smooth="yes"/>
      <point x="613.989" y="682"/>
      <point x="685.03" y="583.963"/>
      <point x="685.03" y="452.138" type="curve" smooth="yes"/>
      <point x="685.03" y="425.311"/>
      <point x="682.087" y="397.084"/>
      <point x="676" y="368" type="curve" smooth="yes"/>
      <point x="633" y="167"/>
      <point x="463" y="-2"/>
    </contour>
    <contour>
      <point x="481" y="649" type="curve" smooth="yes"/>
      <point x="350" y="649"/>
      <point x="202" y="500"/>
      <point x="162" y="312" type="curve" smooth="yes"/>
      <point x="156.078" y="284.545"/>
      <point x="153.216" y="257.894"/>
      <point x="153.216" y="232.644" type="curve" smooth="yes"/>
      <point x="153.216" y="117.183"/>
      <point x="213.072" y="31"/>
      <point x="314" y="31" type="curve" smooth="yes"/>
      <point x="446" y="31"/>
      <point x="602" y="183"/>
      <point x="641" y="364" type="curve" smooth="yes"/>
      <point x="646.053" y="388.252"/>
      <point x="648.524" y="412.42"/>
      <point x="648.524" y="435.843" type="curve" smooth="yes"/>
      <point x="648.524" y="551.495"/>
      <point x="588.274" y="649"/>
    </contour>
    <contour>
      <point x="561" y="902" type="curve" smooth="yes"/>
      <point x="566" y="902"/>
      <point x="572" y="900"/>
      <point x="575" y="896" type="curve" smooth="yes"/>
      <point x="663" y="783" type="line" smooth="yes"/>
      <point x="666" y="779"/>
      <point x="667" y="776"/>
      <point x="666" y="771" type="curve" smooth="yes"/>
      <point x="664" y="762"/>
      <point x="655" y="753"/>
      <point x="646" y="753" type="curve" smooth="yes"/>
      <point x="641" y="753"/>
      <point x="637" y="755"/>
      <point x="634" y="758" type="curve" smooth="yes"/>
      <point x="549" y="853" type="line"/>
      <point x="404" y="757" type="line" smooth="yes"/>
      <point x="401" y="755"/>
      <point x="397" y="753"/>
      <point x="393" y="753" type="curve" smooth="yes"/>
      <point x="383" y="753"/>
      <point x="376" y="762"/>
      <point x="378" y="771" type="curve" smooth="yes"/>
      <point x="379" y="776"/>
      <point x="384" y="781"/>
      <point x="388" y="784" type="curve" smooth="yes"/>
      <point x="547" y="897" type="line" smooth="yes"/>
      <point x="552" y="900"/>
      <point x="557" y="902"/>
    </contour>
  </outline>
</glyph>
<glyph name="Odieresis" format="1">
  <advance width="650"/>
  <unicode hex="00D6"/>
  <outline>
    <contour>
      <point x="307" y="-2" type="curve" smooth="yes"/>
      <point x="188.556" y="-2"/>
      <point x="118.821" y="96.7914"/>
      <point x="118.821" y="227.321" type="curve" smooth="yes"/>
      <point x="118.821" y="254.383"/>
      <point x="121.818" y="282.808"/>
      <point x="128" y="312" type="curve" smooth="yes"/>
      <point x="171" y="513"/>
      <point x="340" y="682"/>
      <point x="496" y="682" type="curve" smooth="yes"/>
      <point x="613.989" y="682"/>
      <point x="685.03" y="583.963"/>
      <point x="685.03" y="452.138" type="curve" smooth="yes"/>
      <point x="685.03" y="425.311"/>
      <point x="682.087" y="397.084"/>
      <point x="676" y="368" type="curve" smooth="yes"/>
      <point x="633" y="167"/>
      <point x="463" y="-2"/>
    </contour>
    <contour>
      <point x="481" y="649" type="curve" smooth="yes"/>
      <point x="350" y="649"/>
      <point x="202" y="500"/>
      <point x="162" y="312" type="curve" smooth="yes"/>
      <point x="156.078" y="284.545"/>
      <point x="153.216" y="257.894"/>
      <point x="153.216" y="232.644" type="curve" smooth="yes"/>
      <point x="153.216" y="117.183"/>
      <point x="213.072" y="31"/>
      <point x="314" y="31" type="curve" smooth="yes"/>
      <point x="446" y="31"/>
      <point x="602" y="183"/>
      <point x="641" y="364" type="curve" smooth="yes"/>
      <point x="646.053" y="388.252"/>
      <point x="648.524" y="412.42"/>
      <point x="648.524" y="435.843" type="curve" smooth="yes"/>
      <point x="648.524" y="551.495"/>
      <point x="588.274" y="649"/>
    </contour>
    <contour>
      <point x="488" y="790" type="curve" smooth="yes"/>
      <point x="484" y="771"/>
      <point x="462" y="755"/>
      <point x="438" y="755" type="curve" smooth="yes"/>
      <point x="420.732" y="755"/>
      <point x="407.594" y="765.738"/>
      <point x="407.594" y="780.457" type="curve" smooth="yes"/>
      <point x="407.594" y="803.122"/>
      <point x="434.91" y="820"/>
      <point x="459" y="820" type="curve" smooth="yes"/>
      <point x="475.013" y="820"/>
      <point x="488.652" y="809.712"/>
      <point x="488.652" y="795.472" type="curve" smooth="yes"/>
      <point x="488.652" y="793.705"/>
      <point x="488.442" y="791.877"/>
    </contour>
    <contour>
      <point x="652" y="790" type="curve" smooth="yes"/>
      <point x="648" y="771"/>
      <point x="626" y="755"/>
      <point x="602" y="755" type="curve" smooth="yes"/>
      <point x="584.732" y="755"/>
      <point x="571.594" y="765.738"/>
      <point x="571.594" y="780.457" type="curve" smooth="yes"/>
      <point x="571.594" y="803.066"/>
      <point x="598.925" y="820"/>
      <point x="622" y="820" type="curve" smooth="yes"/>
      <point x="638.909" y="820"/>
      <point x="652.65" y="809.704"/>
      <point x="652.65" y="795.455" type="curve" smooth="yes"/>
      <point x="652.65" y="793.693"/>
      <point x="652.44" y="791.871"/>
    </contour>
  </outline>
</glyph>
<glyph name="multiply" format="1">
  <advance width="431"/>
  <unicode hex="00D7"/>
  <outline>
    <contour>
      <point x="408" y="340" type="curve" smooth="yes"/>
      <point x="407" y="337"/>
      <point x="404" y="332"/>
      <point x="402" y="330" type="curve" smooth="yes"/>
      <point x="296" y="243" type="line"/>
      <point x="363" y="155" type="line" smooth="yes"/>
      <point x="366" y="152"/>
      <point x="367" y="148"/>
      <point x="366" y="144" type="curve" smooth="yes"/>
      <point x="364" y="133"/>
      <point x="355" y="126"/>
      <point x="346" y="126" type="curve" smooth="yes"/>
      <point x="341" y="126"/>
      <point x="337" y="128"/>
      <point x="334" y="131" type="curve" smooth="yes"/>
      <point x="267" y="218" type="line"/>
      <point x="159" y="130" type="line" smooth="yes"/>
      <point x="155" y="127"/>
      <point x="151" y="125"/>
      <point x="146" y="125" type="curve" smooth="yes"/>
      <point x="135" y="125"/>
      <point x="131" y="134"/>
      <point x="133" y="142" type="curve" smooth="yes"/>
      <point x="134" y="146"/>
      <point x="137" y="151"/>
      <point x="140" y="154" type="curve" smooth="yes"/>
      <point x="248" y="243" type="line"/>
      <point x="184" y="322" type="line" smooth="yes"/>
      <point x="182" y="325"/>
      <point x="180" y="329"/>
      <point x="181" y="334" type="curve" smooth="yes"/>
      <point x="183" y="343"/>
      <point x="193" y="351"/>
      <point x="202" y="351" type="curve" smooth="yes"/>
      <point x="207" y="351"/>
      <point x="211" y="349"/>
      <point x="213" y="346" type="curve" smooth="yes"/>
      <point x="277" y="267" type="line"/>
      <point x="383" y="354" type="line" smooth="yes"/>
      <point x="385" y="356"/>
      <point x="390" y="358"/>
      <point x="394" y="358" type="curve" smooth="yes"/>
      <point x="406" y="358"/>
      <point x="410" y="351"/>
    </contour>
  </outline>
</glyph>
<glyph name="Oslash" format="1">
  <advance width="650"/>
  <unicode hex="00D8"/>
  <outline>
    <contour>
      <point x="93" y="-6" type="curve" smooth="yes"/>
      <point x="157" y="78" type="line"/>
      <point x="132.443" y="119.611"/>
      <point x="119.053" y="171.924"/>
      <point x="119.053" y="229.225" type="curve" smooth="yes"/>
      <point x="119.053" y="255.926"/>
      <point x="121.961" y="283.711"/>
      <point x="128" y="312" type="curve" smooth="yes"/>
      <point x="171" y="513"/>
      <point x="340" y="682"/>
      <point x="496" y="682" type="curve" smooth="yes"/>
      <point x="531" y="682"/>
      <point x="566" y="671"/>
      <point x="599" y="650" type="curve"/>
      <point x="664" y="737" type="line" smooth="yes"/>
      <point x="668" y="742"/>
      <point x="674" y="745"/>
      <point x="681" y="745" type="curve" smooth="yes"/>
      <point x="688" y="745"/>
      <point x="696" y="740"/>
      <point x="693" y="729" type="curve"/>
      <point x="693" y="726"/>
      <point x="691" y="722"/>
      <point x="690" y="720" type="curve" smooth="yes"/>
      <point x="622" y="632" type="line"/>
      <point x="662.532" y="586.309"/>
      <point x="684.599" y="522.154"/>
      <point x="684.599" y="449.139" type="curve" smooth="yes"/>
      <point x="684.599" y="423.076"/>
      <point x="681.787" y="395.884"/>
      <point x="676" y="368" type="curve" smooth="yes"/>
      <point x="633" y="167"/>
      <point x="463" y="-2"/>
      <point x="307" y="-2" type="curve" smooth="yes"/>
      <point x="257" y="-2"/>
      <point x="212" y="18"/>
      <point x="177" y="53" type="curve"/>
      <point x="117" y="-25" type="line" smooth="yes"/>
      <point x="113" y="-30"/>
      <point x="108" y="-33"/>
      <point x="102" y="-33" type="curve" smooth="yes"/>
      <point x="90" y="-33"/>
      <point x="86" y="-26"/>
      <point x="88" y="-16" type="curve" smooth="yes"/>
      <point x="89" y="-13"/>
      <point x="91" y="-9"/>
    </contour>
    <contour>
      <point x="314" y="31" type="curve" smooth="yes"/>
      <point x="446" y="31"/>
      <point x="602" y="183"/>
      <point x="641" y="364" type="curve" smooth="yes"/>
      <point x="645.841" y="386.593"/>
      <point x="648.223" y="409.62"/>
      <point x="648.223" y="432.399" type="curve" smooth="yes"/>
      <point x="648.223" y="494.315"/>
      <point x="630.628" y="554.407"/>
      <point x="597" y="599" type="curve"/>
      <point x="200" y="82" type="line"/>
      <point x="230" y="49"/>
      <point x="268" y="31"/>
    </contour>
    <contour>
      <point x="481" y="649" type="curve" smooth="yes"/>
      <point x="350" y="649"/>
      <point x="202" y="500"/>
      <point x="162" y="312" type="curve" smooth="yes"/>
      <point x="156.846" y="287.261"/>
      <point x="154.289" y="262.641"/>
      <point x="154.289" y="238.544" type="curve" smooth="yes"/>
      <point x="154.289" y="192.509"/>
      <point x="163.621" y="148.384"/>
      <point x="182" y="109" type="curve"/>
      <point x="574" y="619" type="line"/>
      <point x="545" y="639"/>
      <point x="514" y="649"/>
    </contour>
  </outline>
</glyph>
<glyph name="Uacute" format="1">
  <advance width="673"/>
  <unicode hex="00DA"/>
  <outline>
    <contour>
      <point x="752" y="653" type="curve" smooth="yes"/>
      <point x="730" y="527"/>
      <point x="708" y="400"/>
      <point x="663" y="270" type="curve" smooth="yes"/>
      <point x="608" y="110"/>
      <point x="502" y="0"/>
      <point x="329" y="0" type="curve" smooth="yes"/>
      <point x="202.421" y="1.42109e-14"/>
      <point x="134.248" y="80.2261"/>
      <point x="134.248" y="236.565" type="curve" smooth="yes"/>
      <point x="134.248" y="275.374"/>
      <point x="138.449" y="318.873"/>
      <point x="147" y="367" type="curve"/>
      <point x="165" y="474"/>
      <point x="188" y="570"/>
      <point x="207" y="655" type="curve" smooth="yes"/>
      <point x="210" y="671"/>
      <point x="218" y="681"/>
      <point x="232" y="681" type="curve" smooth="yes"/>
      <point x="242.827" y="681"/>
      <point x="246.36" y="675.27"/>
      <point x="246.36" y="666.065" type="curve" smooth="yes"/>
      <point x="246.36" y="662.516"/>
      <point x="245.835" y="658.452"/>
      <point x="245" y="654" type="curve"/>
      <point x="224" y="565"/>
      <point x="202" y="474"/>
      <point x="185" y="381" type="curve"/>
      <point x="177.612" y="338.151"/>
      <point x="171.622" y="290.063"/>
      <point x="171.622" y="243.574" type="curve" smooth="yes"/>
      <point x="171.622" y="132.744"/>
      <point x="205.669" y="31"/>
      <point x="336" y="31" type="curve" smooth="yes"/>
      <point x="496" y="31"/>
      <point x="583" y="139"/>
      <point x="628" y="277" type="curve" smooth="yes"/>
      <point x="667" y="397"/>
      <point x="687" y="518"/>
      <point x="715" y="651" type="curve" smooth="yes"/>
      <point x="718" y="667"/>
      <point x="722" y="681"/>
      <point x="740" y="681" type="curve" smooth="yes"/>
      <point x="750.365" y="681"/>
      <point x="753.568" y="674.793"/>
      <point x="753.568" y="666.008" type="curve" smooth="yes"/>
      <point x="753.568" y="662.08"/>
      <point x="752.927" y="657.635"/>
    </contour>
    <contour>
      <point x="630" y="857" type="curve" smooth="yes"/>
      <point x="466" y="759" type="line" smooth="yes"/>
      <point x="458" y="754"/>
      <point x="452" y="752"/>
      <point x="448" y="752" type="curve" smooth="yes"/>
      <point x="439" y="752"/>
      <point x="433" y="760"/>
      <point x="435" y="769" type="curve" smooth="yes"/>
      <point x="436" y="772"/>
      <point x="437" y="777"/>
      <point x="444" y="782" type="curve" smooth="yes"/>
      <point x="594" y="886" type="line" smooth="yes"/>
      <point x="604" y="893"/>
      <point x="613" y="900"/>
      <point x="623" y="900" type="curve" smooth="yes"/>
      <point x="632.655" y="900"/>
      <point x="641.539" y="889.985"/>
      <point x="641.539" y="878.069" type="curve" smooth="yes"/>
      <point x="641.539" y="876.409"/>
      <point x="641.367" y="874.712"/>
      <point x="641" y="873" type="curve" smooth="yes"/>
      <point x="640" y="866"/>
      <point x="638" y="862"/>
    </contour>
  </outline>
</glyph>
<glyph name="Ucircumflex" format="1">
  <advance width="673"/>
  <unicode hex="00DB"/>
  <outline>
    <contour>
      <point x="554" y="902" type="curve" smooth="yes"/>
      <point x="559" y="902"/>
      <point x="565" y="900"/>
      <point x="568" y="896" type="curve" smooth="yes"/>
      <point x="656" y="783" type="line" smooth="yes"/>
      <point x="659" y="779"/>
      <point x="660" y="776"/>
      <point x="659" y="771" type="curve" smooth="yes"/>
      <point x="657" y="762"/>
      <point x="648" y="753"/>
      <point x="639" y="753" type="curve" smooth="yes"/>
      <point x="634" y="753"/>
      <point x="630" y="755"/>
      <point x="627" y="758" type="curve" smooth="yes"/>
      <point x="542" y="853" type="line"/>
      <point x="397" y="757" type="line" smooth="yes"/>
      <point x="394" y="755"/>
      <point x="390" y="753"/>
      <point x="386" y="753" type="curve" smooth="yes"/>
      <point x="376" y="753"/>
      <point x="369" y="762"/>
      <point x="371" y="771" type="curve" smooth="yes"/>
      <point x="372" y="776"/>
      <point x="377" y="781"/>
      <point x="381" y="784" type="curve" smooth="yes"/>
      <point x="540" y="897" type="line" smooth="yes"/>
      <point x="545" y="900"/>
      <point x="550" y="902"/>
    </contour>
    <contour>
      <point x="752" y="653" type="curve" smooth="yes"/>
      <point x="730" y="527"/>
      <point x="708" y="400"/>
      <point x="663" y="270" type="curve" smooth="yes"/>
      <point x="608" y="110"/>
      <point x="502" y="0"/>
      <point x="329" y="0" type="curve" smooth="yes"/>
      <point x="202.421" y="0"/>
      <point x="134.248" y="80.2261"/>
      <point x="134.248" y="236.565" type="curve" smooth="yes"/>
      <point x="134.248" y="275.374"/>
      <point x="138.449" y="318.873"/>
      <point x="147" y="367" type="curve"/>
      <point x="165" y="474"/>
      <point x="188" y="570"/>
      <point x="207" y="655" type="curve" smooth="yes"/>
      <point x="210" y="671"/>
      <point x="218" y="681"/>
      <point x="232" y="681" type="curve" smooth="yes"/>
      <point x="242.827" y="681"/>
      <point x="246.36" y="675.27"/>
      <point x="246.36" y="666.065" type="curve" smooth="yes"/>
      <point x="246.36" y="662.516"/>
      <point x="245.835" y="658.452"/>
      <point x="245" y="654" type="curve"/>
      <point x="224" y="565"/>
      <point x="202" y="474"/>
      <point x="185" y="381" type="curve"/>
      <point x="177.612" y="338.151"/>
      <point x="171.622" y="290.063"/>
      <point x="171.622" y="243.574" type="curve" smooth="yes"/>
      <point x="171.622" y="132.744"/>
      <point x="205.669" y="31"/>
      <point x="336" y="31" type="curve" smooth="yes"/>
      <point x="496" y="31"/>
      <point x="583" y="139"/>
      <point x="628" y="277" type="curve" smooth="yes"/>
      <point x="667" y="397"/>
      <point x="687" y="518"/>
      <point x="715" y="651" type="curve" smooth="yes"/>
      <point x="718" y="667"/>
      <point x="722" y="681"/>
      <point x="740" y="681" type="curve" smooth="yes"/>
      <point x="750.365" y="681"/>
      <point x="753.568" y="674.793"/>
      <point x="753.568" y="666.008" type="curve" smooth="yes"/>
      <point x="753.568" y="662.08"/>
      <point x="752.927" y="657.635"/>
    </contour>
  </outline>
</glyph>
<glyph name="germandbls" format="1">
  <advance width="515"/>
  <unicode hex="00DF"/>
  <outline>
    <contour>
      <point x="207" y="26" type="curve" smooth="yes"/>
      <point x="230" y="13"/>
      <point x="253" y="7"/>
      <point x="280" y="7" type="curve" smooth="yes"/>
      <point x="366" y="7"/>
      <point x="458" y="81"/>
      <point x="477" y="170" type="curve" smooth="yes"/>
      <point x="479.298" y="181.108"/>
      <point x="480.439" y="192.167"/>
      <point x="480.439" y="202.986" type="curve" smooth="yes"/>
      <point x="480.439" y="271.85"/>
      <point x="434.219" y="330.974"/>
      <point x="346.073" y="330.974" type="curve" smooth="yes"/>
      <point x="339.607" y="330.974"/>
      <point x="332.915" y="330.656"/>
      <point x="326" y="330" type="curve" smooth="yes"/>
      <point x="316" y="329"/>
      <point x="307" y="327"/>
      <point x="296" y="327" type="curve" smooth="yes"/>
      <point x="286" y="327"/>
      <point x="280" y="334"/>
      <point x="282" y="343" type="curve" smooth="yes"/>
      <point x="284" y="352"/>
      <point x="290" y="360"/>
      <point x="301" y="361" type="curve" smooth="yes"/>
      <point x="316" y="362" type="line" smooth="yes"/>
      <point x="386" y="367"/>
      <point x="441" y="423"/>
      <point x="455" y="486" type="curve" smooth="yes"/>
      <point x="456.808" y="494.784"/>
      <point x="457.682" y="503.4"/>
      <point x="457.682" y="511.747" type="curve" smooth="yes"/>
      <point x="457.682" y="568.016"/>
      <point x="417.958" y="612"/>
      <point x="357" y="612" type="curve" smooth="yes"/>
      <point x="288" y="612"/>
      <point x="218" y="554"/>
      <point x="204" y="486" type="curve" smooth="yes"/>
      <point x="104" y="16" type="line" smooth="yes"/>
      <point x="102" y="6"/>
      <point x="93" y="-1"/>
      <point x="83" y="-1" type="curve" smooth="yes"/>
      <point x="74" y="-1"/>
      <point x="68" y="6"/>
      <point x="70" y="16" type="curve" smooth="yes"/>
      <point x="170" y="486" type="line" smooth="yes"/>
      <point x="188" y="573"/>
      <point x="276" y="645"/>
      <point x="364" y="645" type="curve" smooth="yes"/>
      <point x="439.874" y="645"/>
      <point x="491.41" y="590.237"/>
      <point x="491.41" y="518.522" type="curve" smooth="yes"/>
      <point x="491.41" y="508.006"/>
      <point x="490.302" y="497.126"/>
      <point x="488" y="486" type="curve" smooth="yes"/>
      <point x="479" y="443"/>
      <point x="439" y="388"/>
      <point x="397" y="358" type="curve"/>
      <point x="467.803" y="341.792"/>
      <point x="513.137" y="279.739"/>
      <point x="513.137" y="207.225" type="curve" smooth="yes"/>
      <point x="513.137" y="194.733"/>
      <point x="511.792" y="181.931"/>
      <point x="509" y="169" type="curve" smooth="yes"/>
      <point x="487" y="63"/>
      <point x="379" y="-26"/>
      <point x="273" y="-26" type="curve" smooth="yes"/>
      <point x="239.548" y="-26"/>
      <point x="179.606" y="-15.9518"/>
      <point x="179.606" y="7.63692" type="curve" smooth="yes"/>
      <point x="179.606" y="19.4505"/>
      <point x="189.637" y="28"/>
      <point x="198" y="28" type="curve" smooth="yes"/>
      <point x="200" y="28"/>
      <point x="203" y="28"/>
    </contour>
  </outline>
</glyph>
<glyph name="agrave" format="1">
  <advance width="495"/>
  <unicode hex="00E0"/>
  <outline>
    <contour>
      <point x="539" y="476" type="curve"/>
      <point x="442" y="21" type="line" smooth="yes"/>
      <point x="439" y="9"/>
      <point x="430" y="0"/>
      <point x="419" y="0" type="curve" smooth="yes"/>
      <point x="408.714" y="0"/>
      <point x="403.571" y="7.34694"/>
      <point x="403.571" y="17.6327" type="curve" smooth="yes"/>
      <point x="403.571" y="19.3469"/>
      <point x="403.714" y="21.1429"/>
      <point x="404" y="23" type="curve"/>
      <point x="414" y="66" type="line"/>
      <point x="365" y="39"/>
      <point x="294" y="8"/>
      <point x="239" y="8" type="curve" smooth="yes"/>
      <point x="149.921" y="8"/>
      <point x="92.6222" y="69.4405"/>
      <point x="92.6222" y="165.022" type="curve" smooth="yes"/>
      <point x="92.6222" y="183.178"/>
      <point x="94.6899" y="202.567"/>
      <point x="99" y="223" type="curve" smooth="yes"/>
      <point x="121" y="327"/>
      <point x="226" y="515"/>
      <point x="400" y="515" type="curve" smooth="yes"/>
      <point x="461" y="515"/>
      <point x="516" y="489"/>
    </contour>
    <contour>
      <point x="421" y="110" type="curve"/>
      <point x="498" y="452" type="line"/>
      <point x="478" y="463"/>
      <point x="432" y="478"/>
      <point x="395" y="478" type="curve" smooth="yes"/>
      <point x="245" y="478"/>
      <point x="158" y="316"/>
      <point x="138" y="225" type="curve" smooth="yes"/>
      <point x="134.648" y="208.866"/>
      <point x="132.7" y="191.591"/>
      <point x="132.7" y="174.361" type="curve" smooth="yes"/>
      <point x="132.7" y="109.359"/>
      <point x="160.419" y="45"/>
      <point x="245" y="45" type="curve" smooth="yes"/>
      <point x="310" y="45"/>
      <point x="391" y="93"/>
    </contour>
    <contour>
      <point x="414" y="747" type="curve" smooth="yes"/>
      <point x="494" y="611" type="line" smooth="yes"/>
      <point x="497" y="606"/>
      <point x="498" y="602"/>
      <point x="498" y="598" type="curve"/>
      <point x="495" y="588"/>
      <point x="484" y="582"/>
      <point x="475" y="582" type="curve" smooth="yes"/>
      <point x="471" y="582"/>
      <point x="467" y="584"/>
      <point x="463" y="588" type="curve"/>
      <point x="367" y="714" type="line"/>
      <point x="364" y="720"/>
      <point x="362" y="726"/>
      <point x="363" y="733" type="curve" smooth="yes"/>
      <point x="366" y="747"/>
      <point x="382" y="758"/>
      <point x="396" y="758" type="curve" smooth="yes"/>
      <point x="404" y="758"/>
      <point x="410" y="755"/>
    </contour>
  </outline>
</glyph>
<glyph name="aacute" format="1">
  <advance width="495"/>
  <unicode hex="00E1"/>
  <outline>
    <contour>
      <point x="539" y="476" type="curve"/>
      <point x="442" y="21" type="line" smooth="yes"/>
      <point x="439" y="9"/>
      <point x="430" y="0"/>
      <point x="419" y="0" type="curve" smooth="yes"/>
      <point x="408.714" y="0"/>
      <point x="403.571" y="7.34694"/>
      <point x="403.571" y="17.6327" type="curve" smooth="yes"/>
      <point x="403.571" y="19.3469"/>
      <point x="403.714" y="21.1429"/>
      <point x="404" y="23" type="curve"/>
      <point x="414" y="66" type="line"/>
      <point x="365" y="39"/>
      <point x="294" y="8"/>
      <point x="239" y="8" type="curve" smooth="yes"/>
      <point x="149.921" y="8"/>
      <point x="92.6222" y="69.4405"/>
      <point x="92.6222" y="165.022" type="curve" smooth="yes"/>
      <point x="92.6222" y="183.178"/>
      <point x="94.6899" y="202.567"/>
      <point x="99" y="223" type="curve" smooth="yes"/>
      <point x="121" y="327"/>
      <point x="226" y="515"/>
      <point x="400" y="515" type="curve" smooth="yes"/>
      <point x="461" y="515"/>
      <point x="516" y="489"/>
    </contour>
    <contour>
      <point x="421" y="110" type="curve"/>
      <point x="498" y="452" type="line"/>
      <point x="478" y="463"/>
      <point x="432" y="478"/>
      <point x="395" y="478" type="curve" smooth="yes"/>
      <point x="245" y="478"/>
      <point x="158" y="316"/>
      <point x="138" y="225" type="curve" smooth="yes"/>
      <point x="134.648" y="208.866"/>
      <point x="132.7" y="191.591"/>
      <point x="132.7" y="174.361" type="curve" smooth="yes"/>
      <point x="132.7" y="109.359"/>
      <point x="160.419" y="45"/>
      <point x="245" y="45" type="curve" smooth="yes"/>
      <point x="310" y="45"/>
      <point x="391" y="93"/>
    </contour>
    <contour>
      <point x="563" y="692" type="curve" smooth="yes"/>
      <point x="399" y="594" type="line" smooth="yes"/>
      <point x="391" y="589"/>
      <point x="385" y="587"/>
      <point x="381" y="587" type="curve" smooth="yes"/>
      <point x="372" y="587"/>
      <point x="366" y="595"/>
      <point x="368" y="604" type="curve" smooth="yes"/>
      <point x="369" y="607"/>
      <point x="370" y="612"/>
      <point x="377" y="617" type="curve" smooth="yes"/>
      <point x="527" y="721" type="line" smooth="yes"/>
      <point x="537" y="728"/>
      <point x="546" y="735"/>
      <point x="556" y="735" type="curve" smooth="yes"/>
      <point x="565.655" y="735"/>
      <point x="574.539" y="724.985"/>
      <point x="574.539" y="713.069" type="curve" smooth="yes"/>
      <point x="574.539" y="711.409"/>
      <point x="574.367" y="709.712"/>
      <point x="574" y="708" type="curve" smooth="yes"/>
      <point x="573" y="701"/>
      <point x="571" y="697"/>
    </contour>
  </outline>
</glyph>
<glyph name="acircumflex" format="1">
  <advance width="495"/>
  <unicode hex="00E2"/>
  <outline>
    <contour>
      <point x="468" y="748" type="curve" smooth="yes"/>
      <point x="473" y="748"/>
      <point x="479" y="746"/>
      <point x="482" y="742" type="curve" smooth="yes"/>
      <point x="570" y="629" type="line" smooth="yes"/>
      <point x="573" y="625"/>
      <point x="575" y="622"/>
      <point x="574" y="617" type="curve" smooth="yes"/>
      <point x="572" y="608"/>
      <point x="562" y="599"/>
      <point x="553" y="599" type="curve" smooth="yes"/>
      <point x="548" y="599"/>
      <point x="544" y="601"/>
      <point x="541" y="604" type="curve" smooth="yes"/>
      <point x="456" y="699" type="line"/>
      <point x="312" y="603" type="line" smooth="yes"/>
      <point x="308" y="601"/>
      <point x="304" y="599"/>
      <point x="300" y="599" type="curve" smooth="yes"/>
      <point x="290" y="599"/>
      <point x="284" y="608"/>
      <point x="286" y="617" type="curve" smooth="yes"/>
      <point x="287" y="622"/>
      <point x="291" y="627"/>
      <point x="295" y="630" type="curve" smooth="yes"/>
      <point x="454" y="743" type="line" smooth="yes"/>
      <point x="459" y="746"/>
      <point x="464" y="748"/>
    </contour>
    <contour>
      <point x="539" y="476" type="curve"/>
      <point x="442" y="21" type="line" smooth="yes"/>
      <point x="439" y="9"/>
      <point x="430" y="0"/>
      <point x="419" y="0" type="curve" smooth="yes"/>
      <point x="408.714" y="0"/>
      <point x="403.571" y="7.34694"/>
      <point x="403.571" y="17.6327" type="curve" smooth="yes"/>
      <point x="403.571" y="19.3469"/>
      <point x="403.714" y="21.1429"/>
      <point x="404" y="23" type="curve"/>
      <point x="414" y="66" type="line"/>
      <point x="365" y="39"/>
      <point x="294" y="8"/>
      <point x="239" y="8" type="curve" smooth="yes"/>
      <point x="149.921" y="8"/>
      <point x="92.6222" y="69.4405"/>
      <point x="92.6222" y="165.022" type="curve" smooth="yes"/>
      <point x="92.6222" y="183.178"/>
      <point x="94.6899" y="202.567"/>
      <point x="99" y="223" type="curve" smooth="yes"/>
      <point x="121" y="327"/>
      <point x="226" y="515"/>
      <point x="400" y="515" type="curve" smooth="yes"/>
      <point x="461" y="515"/>
      <point x="516" y="489"/>
    </contour>
    <contour>
      <point x="421" y="110" type="curve"/>
      <point x="498" y="452" type="line"/>
      <point x="478" y="463"/>
      <point x="432" y="478"/>
      <point x="395" y="478" type="curve" smooth="yes"/>
      <point x="245" y="478"/>
      <point x="158" y="316"/>
      <point x="138" y="225" type="curve" smooth="yes"/>
      <point x="134.648" y="208.866"/>
      <point x="132.7" y="191.591"/>
      <point x="132.7" y="174.361" type="curve" smooth="yes"/>
      <point x="132.7" y="109.359"/>
      <point x="160.419" y="45"/>
      <point x="245" y="45" type="curve" smooth="yes"/>
      <point x="310" y="45"/>
      <point x="391" y="93"/>
    </contour>
  </outline>
</glyph>
<glyph name="atilde" format="1">
  <advance width="495"/>
  <unicode hex="00E3"/>
  <outline>
    <contour>
      <point x="539" y="476" type="curve"/>
      <point x="442" y="21" type="line" smooth="yes"/>
      <point x="439" y="9"/>
      <point x="430" y="0"/>
      <point x="419" y="0" type="curve" smooth="yes"/>
      <point x="408.714" y="0"/>
      <point x="403.571" y="7.34694"/>
      <point x="403.571" y="17.6327" type="curve" smooth="yes"/>
      <point x="403.571" y="19.3469"/>
      <point x="403.714" y="21.1429"/>
      <point x="404" y="23" type="curve"/>
      <point x="414" y="66" type="line"/>
      <point x="365" y="39"/>
      <point x="294" y="8"/>
      <point x="239" y="8" type="curve" smooth="yes"/>
      <point x="149.921" y="8"/>
      <point x="92.6222" y="69.4405"/>
      <point x="92.6222" y="165.022" type="curve" smooth="yes"/>
      <point x="92.6222" y="183.178"/>
      <point x="94.6899" y="202.567"/>
      <point x="99" y="223" type="curve" smooth="yes"/>
      <point x="121" y="327"/>
      <point x="226" y="515"/>
      <point x="400" y="515" type="curve" smooth="yes"/>
      <point x="461" y="515"/>
      <point x="516" y="489"/>
    </contour>
    <contour>
      <point x="421" y="110" type="curve"/>
      <point x="498" y="452" type="line"/>
      <point x="478" y="463"/>
      <point x="432" y="478"/>
      <point x="395" y="478" type="curve" smooth="yes"/>
      <point x="245" y="478"/>
      <point x="158" y="316"/>
      <point x="138" y="225" type="curve" smooth="yes"/>
      <point x="134.648" y="208.866"/>
      <point x="132.7" y="191.591"/>
      <point x="132.7" y="174.361" type="curve" smooth="yes"/>
      <point x="132.7" y="109.359"/>
      <point x="160.419" y="45"/>
      <point x="245" y="45" type="curve" smooth="yes"/>
      <point x="310" y="45"/>
      <point x="391" y="93"/>
    </contour>
    <contour>
      <point x="554" y="690" type="curve" smooth="yes"/>
      <point x="557" y="696"/>
      <point x="564" y="701"/>
      <point x="573" y="701" type="curve" smooth="yes"/>
      <point x="582" y="701"/>
      <point x="585" y="695"/>
      <point x="584" y="687" type="curve"/>
      <point x="575" y="649"/>
      <point x="512" y="581"/>
      <point x="458" y="581" type="curve" smooth="yes"/>
      <point x="417" y="581"/>
      <point x="403" y="612"/>
      <point x="389" y="638" type="curve"/>
      <point x="371" y="675"/>
      <point x="363" y="688"/>
      <point x="343" y="688" type="curve" smooth="yes"/>
      <point x="327" y="688"/>
      <point x="284" y="675"/>
      <point x="255" y="617" type="curve" smooth="yes"/>
      <point x="250" y="608"/>
      <point x="244" y="604"/>
      <point x="237" y="604" type="curve" smooth="yes"/>
      <point x="227" y="604"/>
      <point x="226" y="612"/>
      <point x="227" y="620" type="curve"/>
      <point x="236" y="662"/>
      <point x="301" y="715"/>
      <point x="348" y="715" type="curve" smooth="yes"/>
      <point x="389" y="715"/>
      <point x="404" y="685"/>
      <point x="417" y="657" type="curve" smooth="yes"/>
      <point x="429" y="632"/>
      <point x="445" y="607"/>
      <point x="466" y="607" type="curve" smooth="yes"/>
      <point x="504" y="607"/>
      <point x="535" y="658"/>
    </contour>
  </outline>
</glyph>
<glyph name="aring" format="1">
  <advance width="495"/>
  <unicode hex="00E5"/>
  <outline>
    <contour>
      <point x="418" y="587" type="curve" smooth="yes"/>
      <point x="366.077" y="587"/>
      <point x="328.869" y="619.528"/>
      <point x="328.869" y="664.138" type="curve" smooth="yes"/>
      <point x="328.869" y="670.218"/>
      <point x="329.561" y="676.523"/>
      <point x="331" y="683" type="curve" smooth="yes"/>
      <point x="344" y="747"/>
      <point x="419" y="794"/>
      <point x="485" y="794" type="curve" smooth="yes"/>
      <point x="535.733" y="794"/>
      <point x="573.79" y="759.936"/>
      <point x="573.79" y="714.371" type="curve" smooth="yes"/>
      <point x="573.79" y="708.742"/>
      <point x="573.209" y="702.938"/>
      <point x="572" y="697" type="curve" smooth="yes"/>
      <point x="558" y="631"/>
      <point x="483" y="587"/>
    </contour>
    <contour>
      <point x="475" y="766" type="curve" smooth="yes"/>
      <point x="412" y="766"/>
      <point x="361" y="718"/>
      <point x="354" y="683" type="curve" smooth="yes"/>
      <point x="353.03" y="678.366"/>
      <point x="352.56" y="673.93"/>
      <point x="352.56" y="669.703" type="curve" smooth="yes"/>
      <point x="352.56" y="634.699"/>
      <point x="384.819" y="614"/>
      <point x="433" y="614" type="curve" smooth="yes"/>
      <point x="474" y="614"/>
      <point x="538" y="645"/>
      <point x="548" y="695" type="curve" smooth="yes"/>
      <point x="548.863" y="698.775"/>
      <point x="549.284" y="702.562"/>
      <point x="549.284" y="706.314" type="curve" smooth="yes"/>
      <point x="549.284" y="737.347"/>
      <point x="520.499" y="766"/>
    </contour>
    <contour>
      <point x="539" y="476" type="curve"/>
      <point x="442" y="21" type="line" smooth="yes"/>
      <point x="439" y="9"/>
      <point x="430" y="0"/>
      <point x="419" y="0" type="curve" smooth="yes"/>
      <point x="408.714" y="0"/>
      <point x="403.571" y="7.34694"/>
      <point x="403.571" y="17.6327" type="curve" smooth="yes"/>
      <point x="403.571" y="19.3469"/>
      <point x="403.714" y="21.1429"/>
      <point x="404" y="23" type="curve"/>
      <point x="414" y="66" type="line"/>
      <point x="365" y="39"/>
      <point x="294" y="8"/>
      <point x="239" y="8" type="curve" smooth="yes"/>
      <point x="149.921" y="8"/>
      <point x="92.6222" y="69.4405"/>
      <point x="92.6222" y="165.022" type="curve" smooth="yes"/>
      <point x="92.6222" y="183.178"/>
      <point x="94.6899" y="202.567"/>
      <point x="99" y="223" type="curve" smooth="yes"/>
      <point x="121" y="327"/>
      <point x="226" y="515"/>
      <point x="400" y="515" type="curve" smooth="yes"/>
      <point x="461" y="515"/>
      <point x="516" y="489"/>
    </contour>
    <contour>
      <point x="421" y="110" type="curve"/>
      <point x="498" y="452" type="line"/>
      <point x="478" y="463"/>
      <point x="432" y="478"/>
      <point x="395" y="478" type="curve" smooth="yes"/>
      <point x="245" y="478"/>
      <point x="158" y="316"/>
      <point x="138" y="225" type="curve" smooth="yes"/>
      <point x="134.648" y="208.866"/>
      <point x="132.7" y="191.591"/>
      <point x="132.7" y="174.361" type="curve" smooth="yes"/>
      <point x="132.7" y="109.359"/>
      <point x="160.419" y="45"/>
      <point x="245" y="45" type="curve" smooth="yes"/>
      <point x="310" y="45"/>
      <point x="391" y="93"/>
    </contour>
  </outline>
</glyph>
<glyph name="ae" format="1">
  <advance width="822"/>
  <unicode hex="00E6"/>
  <outline>
    <contour>
      <point x="783" y="95" type="curve" smooth="yes"/>
      <point x="786" y="98"/>
      <point x="789" y="100"/>
      <point x="794" y="100" type="curve" smooth="yes"/>
      <point x="803" y="100"/>
      <point x="808" y="93"/>
      <point x="807" y="85" type="curve"/>
      <point x="805" y="79"/>
      <point x="804" y="77"/>
      <point x="799" y="72" type="curve" smooth="yes"/>
      <point x="757" y="32"/>
      <point x="684" y="0"/>
      <point x="624" y="0" type="curve" smooth="yes"/>
      <point x="547" y="0"/>
      <point x="485" y="34"/>
      <point x="443" y="104" type="curve"/>
      <point x="424" y="18" type="line" smooth="yes"/>
      <point x="422" y="9"/>
      <point x="412" y="0"/>
      <point x="403" y="0" type="curve" smooth="yes"/>
      <point x="392" y="0"/>
      <point x="385" y="9"/>
      <point x="387" y="18" type="curve" smooth="yes"/>
      <point x="397" y="64" type="line"/>
      <point x="351" y="38"/>
      <point x="282" y="8"/>
      <point x="230" y="8" type="curve" smooth="yes"/>
      <point x="144.347" y="8"/>
      <point x="87.6059" y="62.2965"/>
      <point x="87.6059" y="155.494" type="curve" smooth="yes"/>
      <point x="87.6059" y="173.281"/>
      <point x="89.6728" y="192.486"/>
      <point x="94" y="213" type="curve" smooth="yes"/>
      <point x="129" y="379"/>
      <point x="259" y="498"/>
      <point x="378" y="498" type="curve" smooth="yes"/>
      <point x="432" y="498"/>
      <point x="493" y="475"/>
      <point x="518" y="462" type="curve"/>
      <point x="499" y="374" type="line"/>
      <point x="557" y="444"/>
      <point x="648" y="482"/>
      <point x="708" y="482" type="curve" smooth="yes"/>
      <point x="815.254" y="482"/>
      <point x="857.241" y="414.256"/>
      <point x="857.241" y="370.378" type="curve" smooth="yes"/>
      <point x="857.241" y="365.982"/>
      <point x="856.82" y="361.825"/>
      <point x="856" y="358" type="curve"/>
      <point x="854" y="352"/>
      <point x="848" y="345"/>
      <point x="834" y="338" type="curve" smooth="yes"/>
      <point x="462" y="147" type="line"/>
      <point x="488" y="65"/>
      <point x="550" y="33"/>
      <point x="638" y="33" type="curve" smooth="yes"/>
      <point x="687" y="33"/>
      <point x="745" y="60"/>
    </contour>
    <contour>
      <point x="404" y="106" type="curve"/>
      <point x="480" y="438" type="line"/>
      <point x="462" y="447"/>
      <point x="416" y="464"/>
      <point x="379" y="464" type="curve" smooth="yes"/>
      <point x="233" y="464"/>
      <point x="148" y="304"/>
      <point x="129" y="216" type="curve" smooth="yes"/>
      <point x="125.411" y="198.774"/>
      <point x="123.626" y="182.16"/>
      <point x="123.626" y="166.493" type="curve" smooth="yes"/>
      <point x="123.626" y="94.8463"/>
      <point x="160.97" y="43"/>
      <point x="234" y="43" type="curve" smooth="yes"/>
      <point x="290" y="43"/>
      <point x="369" y="81"/>
    </contour>
    <contour>
      <point x="701" y="448" type="curve" smooth="yes"/>
      <point x="594" y="448"/>
      <point x="491" y="355"/>
      <point x="464" y="228" type="curve" smooth="yes"/>
      <point x="462" y="217"/>
      <point x="459" y="207"/>
      <point x="459" y="179" type="curve"/>
      <point x="824" y="362" type="line"/>
      <point x="807" y="424"/>
      <point x="773" y="448"/>
    </contour>
  </outline>
</glyph>
<glyph name="ccedilla" format="1">
  <advance width="499"/>
  <unicode hex="00E7"/>
  <outline>
    <contour>
      <point x="241" y="-9" type="curve" smooth="yes"/>
      <point x="246" y="0" type="line"/>
      <point x="158.23" y="14.7732"/>
      <point x="92.3597" y="79.3885"/>
      <point x="92.3597" y="171.533" type="curve" smooth="yes"/>
      <point x="92.3597" y="185.422"/>
      <point x="93.8563" y="199.936"/>
      <point x="97" y="215" type="curve" smooth="yes"/>
      <point x="107" y="263"/>
      <point x="131" y="308"/>
      <point x="146" y="334" type="curve"/>
      <point x="189" y="401"/>
      <point x="286" y="500"/>
      <point x="379" y="500" type="curve" smooth="yes"/>
      <point x="451" y="500"/>
      <point x="483" y="474"/>
      <point x="512" y="430" type="curve" smooth="yes"/>
      <point x="514" y="427"/>
      <point x="515" y="422"/>
      <point x="514" y="418" type="curve" smooth="yes"/>
      <point x="512" y="408"/>
      <point x="503" y="400"/>
      <point x="494" y="400" type="curve" smooth="yes"/>
      <point x="489" y="400"/>
      <point x="484" y="402"/>
      <point x="482" y="405" type="curve" smooth="yes"/>
      <point x="459" y="441"/>
      <point x="431" y="467"/>
      <point x="374" y="467" type="curve" smooth="yes"/>
      <point x="300" y="467"/>
      <point x="215" y="386"/>
      <point x="176" y="323" type="curve" smooth="yes"/>
      <point x="151" y="281"/>
      <point x="139" y="246"/>
      <point x="133" y="217" type="curve" smooth="yes"/>
      <point x="129.508" y="201.006"/>
      <point x="127.92" y="186.28"/>
      <point x="127.92" y="172.74" type="curve" smooth="yes"/>
      <point x="127.92" y="66.0713"/>
      <point x="226.519" y="33"/>
      <point x="270" y="33" type="curve" smooth="yes"/>
      <point x="349" y="33"/>
      <point x="406" y="71"/>
      <point x="444" y="111" type="curve" smooth="yes"/>
      <point x="449" y="117"/>
      <point x="457" y="124"/>
      <point x="466" y="124" type="curve" smooth="yes"/>
      <point x="475" y="124"/>
      <point x="482" y="117"/>
      <point x="480" y="108" type="curve" smooth="yes"/>
      <point x="479" y="103"/>
      <point x="474" y="97"/>
      <point x="470" y="93" type="curve" smooth="yes"/>
      <point x="426" y="43"/>
      <point x="351" y="3"/>
      <point x="277" y="0" type="curve"/>
      <point x="260" y="0" type="line"/>
      <point x="250" y="-41" type="line"/>
      <point x="311.525" y="-41"/>
      <point x="340.01" y="-68.7836"/>
      <point x="340.01" y="-105.481" type="curve" smooth="yes"/>
      <point x="340.01" y="-111.132"/>
      <point x="339.335" y="-116.995"/>
      <point x="338" y="-123" type="curve" smooth="yes"/>
      <point x="328" y="-170"/>
      <point x="283" y="-209"/>
      <point x="236" y="-209" type="curve" smooth="yes"/>
      <point x="207.256" y="-209"/>
      <point x="173.354" y="-191.805"/>
      <point x="173.354" y="-168.577" type="curve" smooth="yes"/>
      <point x="173.354" y="-166.753"/>
      <point x="173.563" y="-164.892"/>
      <point x="174" y="-163" type="curve" smooth="yes"/>
      <point x="175" y="-157"/>
      <point x="181" y="-154"/>
      <point x="186" y="-154" type="curve" smooth="yes"/>
      <point x="191" y="-154"/>
      <point x="193" y="-159"/>
      <point x="196" y="-164" type="curve" smooth="yes"/>
      <point x="203" y="-174"/>
      <point x="212" y="-187"/>
      <point x="241" y="-187" type="curve" smooth="yes"/>
      <point x="275" y="-187"/>
      <point x="308" y="-159"/>
      <point x="315" y="-125" type="curve" smooth="yes"/>
      <point x="315.906" y="-120.597"/>
      <point x="316.343" y="-116.312"/>
      <point x="316.343" y="-112.187" type="curve" smooth="yes"/>
      <point x="316.343" y="-84.4602"/>
      <point x="296.597" y="-64"/>
      <point x="267" y="-64" type="curve" smooth="yes"/>
      <point x="249" y="-64"/>
      <point x="237" y="-70"/>
      <point x="229" y="-75" type="curve" smooth="yes"/>
      <point x="224" y="-78"/>
      <point x="221" y="-79"/>
      <point x="219" y="-79" type="curve" smooth="yes"/>
      <point x="213" y="-79"/>
      <point x="209" y="-75"/>
      <point x="210" y="-69" type="curve" smooth="yes"/>
      <point x="211" y="-65"/>
      <point x="236" y="-18"/>
    </contour>
  </outline>
</glyph>
<glyph name="ecircumflex" format="1">
  <advance width="511"/>
  <unicode hex="00EA"/>
  <outline>
    <contour>
      <point x="487" y="83" type="curve" smooth="yes"/>
      <point x="486" y="79"/>
      <point x="483" y="75"/>
      <point x="480" y="72" type="curve" smooth="yes"/>
      <point x="436" y="32"/>
      <point x="363" y="0"/>
      <point x="302" y="0" type="curve" smooth="yes"/>
      <point x="169.535" y="-1.42109e-14"/>
      <point x="97.7861" y="85.4524"/>
      <point x="97.7861" y="188.864" type="curve" smooth="yes"/>
      <point x="97.7861" y="204.895"/>
      <point x="99.5104" y="221.357"/>
      <point x="103" y="238" type="curve" smooth="yes"/>
      <point x="132" y="376"/>
      <point x="247" y="499"/>
      <point x="382" y="499" type="curve" smooth="yes"/>
      <point x="497.526" y="499"/>
      <point x="540.234" y="427.838"/>
      <point x="540.234" y="383.366" type="curve" smooth="yes"/>
      <point x="540.234" y="378.948"/>
      <point x="539.813" y="374.795"/>
      <point x="539" y="371" type="curve" smooth="yes"/>
      <point x="538" y="365"/>
      <point x="530" y="357"/>
      <point x="517" y="350" type="curve" smooth="yes"/>
      <point x="134" y="155" type="line"/>
      <point x="161" y="74"/>
      <point x="220" y="33"/>
      <point x="308" y="33" type="curve" smooth="yes"/>
      <point x="356" y="33"/>
      <point x="426" y="60"/>
      <point x="463" y="95" type="curve" smooth="yes"/>
      <point x="466" y="98"/>
      <point x="470" y="100"/>
      <point x="474" y="100" type="curve" smooth="yes"/>
      <point x="484" y="100"/>
      <point x="489" y="93"/>
    </contour>
    <contour>
      <point x="374" y="465" type="curve" smooth="yes"/>
      <point x="262" y="465"/>
      <point x="162" y="364"/>
      <point x="135" y="237" type="curve" smooth="yes"/>
      <point x="132" y="225"/>
      <point x="130" y="216"/>
      <point x="130" y="188" type="curve"/>
      <point x="506" y="373" type="line"/>
      <point x="495" y="432"/>
      <point x="456" y="465"/>
    </contour>
    <contour>
      <point x="460" y="748" type="curve" smooth="yes"/>
      <point x="465" y="748"/>
      <point x="471" y="746"/>
      <point x="474" y="742" type="curve" smooth="yes"/>
      <point x="562" y="629" type="line" smooth="yes"/>
      <point x="565" y="625"/>
      <point x="567" y="622"/>
      <point x="566" y="617" type="curve" smooth="yes"/>
      <point x="564" y="608"/>
      <point x="554" y="599"/>
      <point x="545" y="599" type="curve" smooth="yes"/>
      <point x="540" y="599"/>
      <point x="536" y="601"/>
      <point x="533" y="604" type="curve" smooth="yes"/>
      <point x="448" y="699" type="line"/>
      <point x="304" y="603" type="line" smooth="yes"/>
      <point x="300" y="601"/>
      <point x="296" y="599"/>
      <point x="292" y="599" type="curve" smooth="yes"/>
      <point x="282" y="599"/>
      <point x="276" y="608"/>
      <point x="278" y="617" type="curve" smooth="yes"/>
      <point x="279" y="622"/>
      <point x="283" y="627"/>
      <point x="287" y="630" type="curve" smooth="yes"/>
      <point x="446" y="743" type="line" smooth="yes"/>
      <point x="451" y="746"/>
      <point x="456" y="748"/>
    </contour>
  </outline>
</glyph>
<glyph name="icircumflex" format="1">
  <advance width="224"/>
  <unicode hex="00EE"/>
  <outline>
    <contour>
      <point x="242" y="476" type="curve" smooth="yes"/>
      <point x="139" y="20" type="line" smooth="yes"/>
      <point x="136" y="9"/>
      <point x="126" y="0"/>
      <point x="115" y="0" type="curve" smooth="yes"/>
      <point x="105" y="0"/>
      <point x="97" y="9"/>
      <point x="100" y="20" type="curve" smooth="yes"/>
      <point x="203" y="476" type="line" smooth="yes"/>
      <point x="205" y="487"/>
      <point x="216" y="496"/>
      <point x="227" y="496" type="curve" smooth="yes"/>
      <point x="237" y="496"/>
      <point x="244" y="487"/>
    </contour>
    <contour>
      <point x="292" y="748" type="curve" smooth="yes"/>
      <point x="297" y="748"/>
      <point x="303" y="746"/>
      <point x="306" y="742" type="curve" smooth="yes"/>
      <point x="394" y="629" type="line" smooth="yes"/>
      <point x="397" y="625"/>
      <point x="399" y="622"/>
      <point x="398" y="617" type="curve" smooth="yes"/>
      <point x="396" y="608"/>
      <point x="386" y="599"/>
      <point x="377" y="599" type="curve" smooth="yes"/>
      <point x="372" y="599"/>
      <point x="368" y="601"/>
      <point x="365" y="604" type="curve" smooth="yes"/>
      <point x="280" y="699" type="line"/>
      <point x="136" y="603" type="line" smooth="yes"/>
      <point x="132" y="601"/>
      <point x="128" y="599"/>
      <point x="124" y="599" type="curve" smooth="yes"/>
      <point x="114" y="599"/>
      <point x="108" y="608"/>
      <point x="110" y="617" type="curve" smooth="yes"/>
      <point x="111" y="622"/>
      <point x="115" y="627"/>
      <point x="119" y="630" type="curve" smooth="yes"/>
      <point x="278" y="743" type="line" smooth="yes"/>
      <point x="283" y="746"/>
      <point x="288" y="748"/>
    </contour>
  </outline>
</glyph>
<glyph name="eth" format="1">
  <advance width="472"/>
  <unicode hex="00F0"/>
  <outline>
    <contour>
      <point x="387" y="601" type="curve"/>
      <point x="445.309" y="522.16"/>
      <point x="490.803" y="424.436"/>
      <point x="490.803" y="322.782" type="curve" smooth="yes"/>
      <point x="490.803" y="300.656"/>
      <point x="488.648" y="278.344"/>
      <point x="484" y="256" type="curve" smooth="yes"/>
      <point x="457" y="129"/>
      <point x="348" y="1"/>
      <point x="214" y="1" type="curve" smooth="yes"/>
      <point x="136.375" y="1"/>
      <point x="84.2179" y="51.935"/>
      <point x="84.2179" y="131.46" type="curve" smooth="yes"/>
      <point x="84.2179" y="145.163"/>
      <point x="85.7664" y="159.714"/>
      <point x="89" y="175" type="curve" smooth="yes"/>
      <point x="122" y="332"/>
      <point x="261" y="428"/>
      <point x="437" y="435" type="curve"/>
      <point x="414" y="495"/>
      <point x="382" y="545"/>
      <point x="356" y="585" type="curve"/>
      <point x="303" y="559"/>
      <point x="262" y="535"/>
      <point x="242" y="523" type="curve" smooth="yes"/>
      <point x="225" y="513"/>
      <point x="217" y="509"/>
      <point x="212" y="509" type="curve" smooth="yes"/>
      <point x="208" y="509"/>
      <point x="205" y="513"/>
      <point x="205" y="517" type="curve" smooth="yes"/>
      <point x="206" y="521"/>
      <point x="208" y="524"/>
      <point x="220" y="532" type="curve" smooth="yes"/>
      <point x="232" y="541"/>
      <point x="255" y="553"/>
      <point x="283" y="568" type="curve" smooth="yes"/>
      <point x="344" y="601" type="line"/>
      <point x="337" y="611"/>
      <point x="323" y="628"/>
      <point x="316" y="634" type="curve"/>
      <point x="306" y="645"/>
      <point x="299" y="651"/>
      <point x="300" y="658" type="curve" smooth="yes"/>
      <point x="302" y="667"/>
      <point x="312" y="674"/>
      <point x="319" y="674" type="curve" smooth="yes"/>
      <point x="324" y="674"/>
      <point x="326" y="673"/>
      <point x="330" y="670" type="curve" smooth="yes"/>
      <point x="332" y="669"/>
      <point x="344" y="658"/>
      <point x="376" y="616" type="curve"/>
      <point x="417" y="636"/>
      <point x="505" y="678"/>
      <point x="517" y="678" type="curve" smooth="yes"/>
      <point x="522" y="678"/>
      <point x="525" y="675"/>
      <point x="523" y="668" type="curve"/>
      <point x="523" y="665"/>
      <point x="520" y="663"/>
      <point x="518" y="662" type="curve" smooth="yes"/>
      <point x="480" y="645"/>
      <point x="423" y="619"/>
    </contour>
    <contour>
      <point x="221" y="33" type="curve" smooth="yes"/>
      <point x="337" y="33"/>
      <point x="427" y="144"/>
      <point x="452" y="259" type="curve"/>
      <point x="455.356" y="276.153"/>
      <point x="456.904" y="293.862"/>
      <point x="456.904" y="311.765" type="curve" smooth="yes"/>
      <point x="456.904" y="341.872"/>
      <point x="452.525" y="372.526"/>
      <point x="445" y="402" type="curve"/>
      <point x="303" y="402"/>
      <point x="157" y="341"/>
      <point x="121" y="174" type="curve" smooth="yes"/>
      <point x="118.281" y="161.01"/>
      <point x="116.977" y="148.727"/>
      <point x="116.977" y="137.234" type="curve" smooth="yes"/>
      <point x="116.977" y="72.6395"/>
      <point x="158.178" y="33"/>
    </contour>
  </outline>
</glyph>
